<svg xmlns="http://www.w3.org/2000/svg" aria-hidden="true" style="width:0;height:0;position:absolute;overflow:hidden"><defs><symbol id="close" viewBox="0 0 32 32"><path d="M5.86 4.04 4.04 5.86 14.18 16 3.98 26.22l1.8 1.8L16 17.82l10.2 10.2 1.82-1.82L17.82 16 27.96 5.86l-1.82-1.82L16 14.18z"/></symbol><symbol id="favorite" viewBox="0 0 34 32"><path d="m17.231 31.704-2.412-2.412C5.859 21.366.001 16.024.001 9.477.001 4.135 4.136 0 9.478 0c2.929 0 5.858 1.378 7.754 3.618C19.127 1.378 22.057 0 24.986 0c5.342 0 9.477 4.135 9.477 9.477 0 6.548-5.858 11.889-14.818 19.815l-2.412 2.412z"/></symbol><symbol id="film" viewBox="0 0 32 32"><path stroke-linecap="round" stroke-linejoin="round" stroke-width="2" d="M26.427 2.667H5.574a2.907 2.907 0 0 0-2.907 2.907v20.853a2.907 2.907 0 0 0 2.907 2.907h20.853a2.907 2.907 0 0 0 2.907-2.907V5.574a2.907 2.907 0 0 0-2.907-2.907zm-17.094 0v26.667M22.667 2.667v26.667M2.667 16h26.667M2.667 9.334h6.667M2.667 22.666h6.667m13.333 0h6.667M22.667 9.334h6.667"/></symbol><symbol id="search" viewBox="0 0 32 32"><path stroke-linecap="round" stroke-linejoin="round" stroke-width="2.286" d="M14.667 25.333c5.891 0 10.667-4.776 10.667-10.667S20.558 3.999 14.667 3.999 4 8.775 4 14.666s4.776 10.667 10.667 10.667zM27.999 28l-5.8-5.8"/></symbol><symbol id="linkedin" viewBox="0 0 32 32"><path d="M7.449 10.295H1.025a.516.516 0 0 0-.516.516v20.638c0 .285.231.516.516.516h6.424a.516.516 0 0 0 .516-.516V10.811a.516.516 0 0 0-.516-.516zM4.239.035A4.242 4.242 0 0 0 0 4.269a4.242 4.242 0 0 0 4.239 4.236c2.336 0 4.236-1.9 4.236-4.236S6.575.035 4.239.035zM23.789 9.782c-2.58 0-4.487 1.109-5.644 2.369v-1.34a.516.516 0 0 0-.516-.516h-6.152a.516.516 0 0 0-.516.516v20.638c0 .285.231.516.516.516h6.41a.516.516 0 0 0 .516-.516V21.238c0-3.441.935-4.781 3.333-4.781 2.612 0 2.82 2.149 2.82 4.958v10.034c0 .285.231.516.516.516h6.412a.516.516 0 0 0 .516-.516v-11.32c0-5.116-.976-10.347-8.211-10.347z"/></symbol><symbol id="github" viewBox="0 0 32 32"><path d="M16 0C7.16 0 0 7.16 0 16c0 7.08 4.58 13.06 10.94 15.18.8.14 1.1-.34 1.1-.76 0-.38-.02-1.64-.02-2.98-4.02.74-5.06-.98-5.38-1.88-.18-.46-.96-1.88-1.64-2.26-.56-.3-1.36-1.04-.02-1.06 1.26-.02 2.16 1.16 2.46 1.64 1.44 2.42 3.74 1.74 4.66 1.32.14-1.04.56-1.74 1.02-2.14-3.56-.4-7.28-1.78-7.28-7.9 0-1.74.62-3.18 1.64-4.3-.16-.4-.72-2.04.16-4.24 0 0 1.34-.42 4.4 1.64 1.28-.36 2.64-.54 4-.54s2.72.18 4 .54c3.06-2.08 4.4-1.64 4.4-1.64.88 2.2.32 3.84.16 4.24 1.02 1.12 1.64 2.54 1.64 4.3 0 6.14-3.74 7.5-7.3 7.9.58.5 1.08 1.46 1.08 2.96 0 2.14-.02 3.86-.02 4.4 0 .42.3.92 1.1.76C27.42 29.06 32 23.06 32 16c0-8.84-7.16-16-16-16z"/></symbol><symbol id="youtube" viewBox="0 0 32 32"><path d="M31.331 8.248a4.035 4.035 0 0 0-2.801-2.841l-.028-.007c-2.495-.673-12.501-.673-12.501-.673s-10.007 0-12.503.673A4.038 4.038 0 0 0 .677 8.22l-.007.028C.001 10.76.001 16 .001 16s0 5.24.669 7.752a4.035 4.035 0 0 0 2.801 2.841l.028.007c2.495.673 12.501.673 12.501.673s10.007 0 12.503-.673a4.037 4.037 0 0 0 2.823-2.82l.007-.028c.668-2.512.668-7.752.668-7.752s0-5.24-.669-7.752zM12.727 20.757v-9.515l8.364 4.757-8.364 4.757z"/></symbol><symbol id="youtube-logo" viewBox="0 0 48 32"><path fill="red" style="fill:var(--color1,red)" d="M41.69 7.055a4.639 4.639 0 0 0-3.265-3.285C35.546 2.993 24 2.993 24 2.993s-11.546 0-14.425.777A4.64 4.64 0 0 0 6.31 7.055C5.539 9.953 5.539 16 5.539 16s0 6.047.771 8.945a4.64 4.64 0 0 0 3.264 3.286c2.879.776 14.425.776 14.425.776s11.546 0 14.425-.776a4.642 4.642 0 0 0 3.265-3.286c.772-2.898.772-8.945.772-8.945s0-6.047-.772-8.945z"/><path fill="#fff" style="fill:var(--color2,#fff)" d="m20.224 21.49 9.65-5.49-9.65-5.49z"/></symbol><symbol id="icon-lens" viewBox="0 0 32 32"><path stroke-linejoin="round" stroke-linecap="round" stroke-width="2.286" d="M14.667 25.333c5.891 0 10.667-4.776 10.667-10.667S20.558 3.999 14.667 3.999 4 8.775 4 14.666s4.776 10.667 10.667 10.667zM27.999 28l-5.8-5.8"/></symbol><symbol id="icon-user" viewBox="0 0 32 32"><path d="M16.837 3.03c-.109.023-.375.095-.593.158-.471.142-.744.178-1.597.224-1.244.066-1.719.151-2.235.398-.385.184-.737.54-1.159 1.165a5.204 5.204 0 0 1-1.248 1.327c-.76.593-.839.797-.79 2.031.013.336.01.382-.079.639-.092.263-.095.283-.059.504.023.125.063.27.089.323.066.128.063.329-.016.823-.036.227-.082.658-.105.961-.04.566-.033.784.079 2.568.02.339.026.629.013.642-.013.016-.201.033-.415.043-.217.01-.402.03-.415.043-.118.115-.181 1.119-.115 1.824.105 1.1.458 2.706.681 3.095.069.119.112.151.375.26.165.066.306.132.313.145.01.013.059.415.115.892.191 1.672.313 2.166.751 3.042.23.458.24.566.135 1.449a10.8 10.8 0 0 0-.079 1.086c0 .411.003.435.096.602.122.214.724.807 1.258 1.235 1.287 1.024 2.983 2.067 3.822 2.347.451.151.836.076 1.607-.316.876-.445 1.962-1.185 3.276-2.235.681-.543 1.024-.892 1.113-1.133.092-.24.092-.346-.013-1.225-.151-1.31-.155-1.261.109-1.89.352-.846.533-1.686.691-3.177l.056-.556.119-.069c.063-.04.221-.115.346-.168.375-.161.405-.247.803-2.324.257-1.343.309-1.771.267-2.127-.066-.52-.3-.734-.807-.734h-.247v-.833c0-.461.01-1.258.023-1.778l.02-.942.112.086c.184.142.352.412.553.882.313.737.52.902 1.175.932.191.007.418.003.504-.007.204-.033.165-.076-.237-.267-.714-.342-.863-.681-.866-1.975 0-.296-.023-.626-.053-.823-.04-.244-.053-.53-.049-1.086.003-.856-.013-.955-.217-1.294a3.263 3.263 0 0 0-.333-.435 2.38 2.38 0 0 1-.204-.244c0-.03.362.105.491.184.207.125.392.29.57.507.092.115.174.204.184.198.033-.036-.151-.543-.26-.714-.197-.306-.415-.438-1.129-.688a3.512 3.512 0 0 1-.385-.155c-.016-.016.138-.102.342-.191.365-.161.369-.165.234-.175-.076-.007-.26.023-.411.063s-.405.079-.563.086c-.283.02-.286.02-.385-.082-.056-.056-.102-.128-.102-.165 0-.092.227-.165.639-.207.178-.016.395-.059.484-.095.168-.063.471-.227.451-.247a3.153 3.153 0 0 0-.352.023c-.543.049-.553.04-.188-.168.711-.405.849-.672.563-1.077-.063-.089-.115-.155-.119-.145 0 .01-.007.079-.016.158-.033.323-.224.556-.576.705-.158.066-.23.076-.688.076s-.543-.01-.836-.092c-.589-.165-1.04-.388-1.587-.8-.372-.277-.402-.29-.793-.392-.402-.105-.665-.23-.899-.425-.277-.23-.428-.293-.757-.303a2.292 2.292 0 0 0-.477.033zm6.541 4.734c.109.056.244.161.303.23.132.151.24.464.27.774l.02.224-.181-.267c-.303-.444-.672-1.067-.632-1.067.013 0 .112.046.221.105zM21.791 9.67c0 .02-.099.132-.217.247l-.221.207.036.125c.016.069.109.375.201.678.217.721.323 1.241.365 1.85.049.734.086.915.25 1.267.165.362.204.527.234 1.044.02.352.016.372-.043.372-.033 0-.537-.023-1.116-.049l-1.218-.053-.165-.003.145-.066c.23-.105.55-.138.899-.095.26.033.741.132.928.188.056.02.053.01-.016-.118a1.654 1.654 0 0 0-.247-.296c-.527-.5-1.267-.553-2.647-.194-1.136.293-1.472.448-1.584.714-.115.277-.342.382-.948.438-.405.04-1.36-.007-1.379-.066a2.168 2.168 0 0 0-.115-.201c-.086-.142-.145-.194-.319-.283-.471-.24-1.462-.514-2.255-.626-.477-.063-1.073-.049-1.307.033-.158.059-.451.333-.57.537a.468.468 0 0 1-.165.155c-.109.053-.573.125-.616.099-.046-.03.003-.737.069-1.017.224-.951.207-.813.217-1.893.007-1.077.036-1.363.197-1.85l.076-.237-.112-.138a2.483 2.483 0 0 0-.263-.26c-.082-.069-.142-.128-.135-.135.016-.016.747.198 1.593.464 1.119.359 1.742.504 2.792.658 1.478.217 1.814.198 3.539-.201.54-.125.681-.148.892-.138.411.023.849.27 1.244.704.174.191.293.408.438.8.043.119.099.221.122.227.039.013.043-.082.026-.616-.023-.599-.026-.639-.102-.737a3.067 3.067 0 0 1-.184-.316c-.056-.115-.171-.28-.253-.369s-.145-.161-.135-.161c.049 0 .461.151.593.217.165.082.375.28.405.379.046.142.122.023.122-.188 0-.072-.053-.207-.151-.379-.082-.148-.151-.28-.151-.293s.158-.082.355-.151l.599-.214c.286-.105.296-.109.296-.059zM9.034 15.214c.072.069.082.109.082.296 0 .118-.013.214-.03.214s-.092-.023-.168-.049c-.079-.026-.148-.043-.155-.036s.053.158.132.336c.138.309.221.632.221.863 0 .069.023.115.063.138.089.046.148.461.283 2.051.069.807.072.757-.056.731-.211-.043-.23-.056-.309-.234-.155-.349-.372-1.383-.51-2.433-.076-.563-.109-1.768-.056-1.903.02-.043.066-.056.224-.056.168 0 .214.013.28.082zm14.551.056c.039.036.082.418.082.701 0 .375-.072 1.001-.184 1.567-.171.899-.408 1.906-.471 2.031a.818.818 0 0 1-.181.217c-.102.076-.122.082-.138.04-.01-.03.04-.695.115-1.478.148-1.557.178-1.718.415-2.222.079-.165.128-.303.112-.303-.089 0-.257.102-.28.171-.023.072-.023.072-.049.01a1.197 1.197 0 0 1-.026-.273c-.003-.237.059-.405.171-.464.069-.033.398-.033.435.003zm-2.607.567c.691.132.994.448 1.08 1.113.086.672-.198 1.686-.563 2.011-.645.579-2.133.76-3.164.385-.51-.184-.797-.441-1.014-.902-.204-.425-.306-.787-.326-1.126-.016-.352.02-.5.161-.629.056-.053.135-.161.181-.25.069-.132.112-.171.27-.24.379-.171 1.159-.336 1.916-.408.408-.036 1.136-.013 1.458.046zm-7.911.148c.527.082 1.086.217 1.261.306.069.033.151.109.181.165s.086.125.119.155c.253.211.316.415.26.859a4.38 4.38 0 0 1-.395 1.225c-.247.474-.701.797-1.261.902-.415.079-1.251.046-1.682-.063-.681-.178-1.119-.504-1.383-1.027a2.376 2.376 0 0 1 .01-2.058c.191-.379.247-.412.915-.54.211-.04 1.547.01 1.975.076zm3.559 1.755c.214.678.402 1.083.632 1.376.115.145.201.211.421.319.352.178.603.263.948.323.355.063 1.057.063 1.6 0 .836-.099 1.284-.267 1.514-.57.072-.096.178-.204.237-.24.089-.056.122-.119.214-.395.086-.26.112-.313.128-.25.056.211-.119 1.985-.227 2.311-.099.293-.27.533-.672.961-.464.491-.639.724-.82 1.116-.418.895-.504 1.06-.681 1.327-.26.389-.411.593-.441.596-.033 0-.036-.135-.04-.955-.003-.721-.01-.751-.25-.968-.184-.168-.253-.188-.714-.221-.566-.036-.751-.148-.928-.556-.043-.099-.086-.201-.099-.227s-.174-.092-.359-.148c-.184-.056-.333-.115-.326-.135.016-.056.23-.148.339-.148.056 0 .171.02.257.046.155.046.158.046.263-.049.168-.148.204-.26.155-.504-.063-.306-.082-.313-.151-.036l-.063.254-.573-.046-.096.109c-.237.28-.632.635-.764.691l-.142.063-.306-.188c-.29-.178-.306-.194-.362-.362-.086-.254-.178-.339-.352-.339-.079 0-.224.023-.323.049-.277.076-.263.089-.267-.29l-.003-.336-.092.197a1.357 1.357 0 0 0-.115.346c-.02.142-.016.155.128.293l.145.145.349-.03c.191-.016.349-.023.349-.013 0 .049-.102.145-.293.27-.158.105-.237.184-.3.303-.105.198-.336.389-.655.54-.227.109-.263.119-.523.112l-.28-.007-.122.128c-.201.207-.263.385-.3.84a5.437 5.437 0 0 1-.066.56c-.036.181-.227.563-.26.523a2.806 2.806 0 0 1-.132-.323 8.84 8.84 0 0 0-.734-1.491c-.115-.174-.369-.52-.566-.764-.586-.731-.757-1.027-.902-1.547-.138-.5-.263-1.712-.175-1.712.049 0 .152.138.237.316a.468.468 0 0 0 .178.201c.056.026.161.105.237.174.402.369 1.007.53 1.989.53.912 0 1.429-.125 1.886-.458.148-.105.303-.211.346-.234.04-.02.072-.053.072-.069s.082-.211.184-.435.273-.675.382-1.007l.194-.599h.882l.204.632zm1.116 5.655c.988.063 1.284.267 1.284.886 0 .984-.609 1.83-1.468 2.031-.649.151-1.129-.138-1.133-.688 0-.277.059-.388.296-.55.112-.076.198-.142.191-.148s-.122.016-.257.053c-.497.132-1.149.109-1.537-.053-.059-.026-.109-.04-.109-.03s.066.082.145.161c.201.194.263.326.263.543-.007.619-.705.882-1.426.533-.227-.109-.583-.454-.718-.698-.145-.254-.273-.655-.273-.853 0-.096.043-.303.102-.487.115-.356.217-.491.395-.517a101.167 101.167 0 0 0 1.544-.201c.122-.023 2.268-.013 2.7.016zm3.526 1.999c.135.879.119 1.482-.043 1.804-.263.514-2.788 2.384-4.145 3.065-.336.168-.833.342-.974.342-.649 0-3.009-1.419-4.504-2.706-.777-.668-.876-.909-.76-1.87l.072-.685c.016-.191.033-.237.076-.237.079 0 .224.161.494.56.128.191.29.385.359.438.211.155.658.616.988 1.011.596.711 1.001 1.073 1.472 1.307.586.293 1.35.415 2.156.339 1.281-.115 1.949-.523 2.953-1.794.382-.481.688-.797.925-.955.102-.066.165-.145.237-.293.089-.184.583-.797.616-.764.007.007.043.204.079.438z"/></symbol></defs></svg>