<svg xmlns="http://www.w3.org/2000/svg" aria-hidden="true" style="width:0;height:0;position:absolute;overflow:hidden"><defs><symbol id="close" viewBox="0 0 32 32"><path d="M5.86 4.04 4.04 5.86 14.18 16 3.98 26.22l1.8 1.8L16 17.82l10.2 10.2 1.82-1.82L17.82 16 27.96 5.86l-1.82-1.82L16 14.18z"/></symbol><symbol id="favorite" viewBox="0 0 34 32"><path d="m17.231 31.704-2.412-2.412C5.859 21.366.001 16.024.001 9.477.001 4.135 4.136 0 9.478 0c2.929 0 5.858 1.378 7.754 3.618C19.127 1.378 22.057 0 24.986 0c5.342 0 9.477 4.135 9.477 9.477 0 6.548-5.858 11.889-14.818 19.815l-2.412 2.412z"/></symbol><symbol id="film" viewBox="0 0 32 32"><path stroke-linecap="round" stroke-linejoin="round" stroke-width="2" d="M26.427 2.667H5.574a2.907 2.907 0 0 0-2.907 2.907v20.853a2.907 2.907 0 0 0 2.907 2.907h20.853a2.907 2.907 0 0 0 2.907-2.907V5.574a2.907 2.907 0 0 0-2.907-2.907zm-17.094 0v26.667M22.667 2.667v26.667M2.667 16h26.667M2.667 9.334h6.667M2.667 22.666h6.667m13.333 0h6.667M22.667 9.334h6.667"/></symbol><symbol id="search" viewBox="0 0 32 32"><path stroke-linecap="round" stroke-linejoin="round" stroke-width="2.286" d="M14.667 25.333c5.891 0 10.667-4.776 10.667-10.667S20.558 3.999 14.667 3.999 4 8.775 4 14.666s4.776 10.667 10.667 10.667zM27.999 28l-5.8-5.8"/></symbol><symbol id="linkedin" viewBox="0 0 32 32"><path d="M7.449 10.295H1.025a.516.516 0 0 0-.516.516v20.638c0 .285.231.516.516.516h6.424a.516.516 0 0 0 .516-.516V10.811a.516.516 0 0 0-.516-.516zM4.239.035A4.242 4.242 0 0 0 0 4.269a4.242 4.242 0 0 0 4.239 4.236c2.336 0 4.236-1.9 4.236-4.236S6.575.035 4.239.035zM23.789 9.782c-2.58 0-4.487 1.109-5.644 2.369v-1.34a.516.516 0 0 0-.516-.516h-6.152a.516.516 0 0 0-.516.516v20.638c0 .285.231.516.516.516h6.41a.516.516 0 0 0 .516-.516V21.238c0-3.441.935-4.781 3.333-4.781 2.612 0 2.82 2.149 2.82 4.958v10.034c0 .285.231.516.516.516h6.412a.516.516 0 0 0 .516-.516v-11.32c0-5.116-.976-10.347-8.211-10.347z"/></symbol><symbol id="github" viewBox="0 0 32 32"><path d="M16 0C7.16 0 0 7.16 0 16c0 7.08 4.58 13.06 10.94 15.18.8.14 1.1-.34 1.1-.76 0-.38-.02-1.64-.02-2.98-4.02.74-5.06-.98-5.38-1.88-.18-.46-.96-1.88-1.64-2.26-.56-.3-1.36-1.04-.02-1.06 1.26-.02 2.16 1.16 2.46 1.64 1.44 2.42 3.74 1.74 4.66 1.32.14-1.04.56-1.74 1.02-2.14-3.56-.4-7.28-1.78-7.28-7.9 0-1.74.62-3.18 1.64-4.3-.16-.4-.72-2.04.16-4.24 0 0 1.34-.42 4.4 1.64 1.28-.36 2.64-.54 4-.54s2.72.18 4 .54c3.06-2.08 4.4-1.64 4.4-1.64.88 2.2.32 3.84.16 4.24 1.02 1.12 1.64 2.54 1.64 4.3 0 6.14-3.74 7.5-7.3 7.9.58.5 1.08 1.46 1.08 2.96 0 2.14-.02 3.86-.02 4.4 0 .42.3.92 1.1.76C27.42 29.06 32 23.06 32 16c0-8.84-7.16-16-16-16z"/></symbol><symbol id="youtube" viewBox="0 0 32 32"><path d="M31.331 8.248a4.035 4.035 0 0 0-2.801-2.841l-.028-.007c-2.495-.673-12.501-.673-12.501-.673s-10.007 0-12.503.673A4.038 4.038 0 0 0 .677 8.22l-.007.028C.001 10.76.001 16 .001 16s0 5.24.669 7.752a4.035 4.035 0 0 0 2.801 2.841l.028.007c2.495.673 12.501.673 12.501.673s10.007 0 12.503-.673a4.037 4.037 0 0 0 2.823-2.82l.007-.028c.668-2.512.668-7.752.668-7.752s0-5.24-.669-7.752zM12.727 20.757v-9.515l8.364 4.757-8.364 4.757z"/></symbol><symbol id="youtube-logo" viewBox="0 0 48 32"><path fill="red" style="fill:var(--color1,red)" d="M41.69 7.055a4.639 4.639 0 0 0-3.265-3.285C35.546 2.993 24 2.993 24 2.993s-11.546 0-14.425.777A4.64 4.64 0 0 0 6.31 7.055C5.539 9.953 5.539 16 5.539 16s0 6.047.771 8.945a4.64 4.64 0 0 0 3.264 3.286c2.879.776 14.425.776 14.425.776s11.546 0 14.425-.776a4.642 4.642 0 0 0 3.265-3.286c.772-2.898.772-8.945.772-8.945s0-6.047-.772-8.945z"/><path fill="#fff" style="fill:var(--color2,#fff)" d="m20.224 21.49 9.65-5.49-9.65-5.49z"/></symbol><symbol id="icon-lens" viewBox="0 0 32 32"><path stroke-linejoin="round" stroke-linecap="round" stroke-width="2.286" d="M14.667 25.333c5.891 0 10.667-4.776 10.667-10.667S20.558 3.999 14.667 3.999 4 8.775 4 14.666s4.776 10.667 10.667 10.667zM27.999 28l-5.8-5.8"/></symbol><symbol id="icon-user" viewBox="0 0 32 32"><path d="M16.837 3.03c-.109.023-.375.095-.593.158-.471.142-.744.178-1.597.224-1.244.066-1.719.151-2.235.398-.385.184-.737.54-1.159 1.165a5.204 5.204 0 0 1-1.248 1.327c-.76.593-.839.797-.79 2.031.013.336.01.382-.079.639-.092.263-.095.283-.059.504.023.125.063.27.089.323.066.128.063.329-.016.823-.036.227-.082.658-.105.961-.04.566-.033.784.079 2.568.02.339.026.629.013.642-.013.016-.201.033-.415.043-.217.01-.402.03-.415.043-.118.115-.181 1.119-.115 1.824.105 1.1.458 2.706.681 3.095.069.119.112.151.375.26.165.066.306.132.313.145.01.013.059.415.115.892.191 1.672.313 2.166.751 3.042.23.458.24.566.135 1.449a10.8 10.8 0 0 0-.079 1.086c0 .411.003.435.096.602.122.214.724.807 1.258 1.235 1.287 1.024 2.983 2.067 3.822 2.347.451.151.836.076 1.607-.316.876-.445 1.962-1.185 3.276-2.235.681-.543 1.024-.892 1.113-1.133.092-.24.092-.346-.013-1.225-.151-1.31-.155-1.261.109-1.89.352-.846.533-1.686.691-3.177l.056-.556.119-.069c.063-.04.221-.115.346-.168.375-.161.405-.247.803-2.324.257-1.343.309-1.771.267-2.127-.066-.52-.3-.734-.807-.734h-.247v-.833c0-.461.01-1.258.023-1.778l.02-.942.112.086c.184.142.352.412.553.882.313.737.52.902 1.175.932.191.007.418.003.504-.007.204-.033.165-.076-.237-.267-.714-.342-.863-.681-.866-1.975 0-.296-.023-.626-.053-.823-.04-.244-.053-.53-.049-1.086.003-.856-.013-.955-.217-1.294a3.263 3.263 0 0 0-.333-.435 2.38 2.38 0 0 1-.204-.244c0-.03.362.105.491.184.207.125.392.29.57.507.092.115.174.204.184.198.033-.036-.151-.543-.26-.714-.197-.306-.415-.438-1.129-.688a3.512 3.512 0 0 1-.385-.155c-.016-.016.138-.102.342-.191.365-.161.369-.165.234-.175-.076-.007-.26.023-.411.063s-.405.079-.563.086c-.283.02-.286.02-.385-.082-.056-.056-.102-.128-.102-.165 0-.092.227-.165.639-.207.178-.016.395-.059.484-.095.168-.063.471-.227.451-.247a3.153 3.153 0 0 0-.352.023c-.543.049-.553.04-.188-.168.711-.405.849-.672.563-1.077-.063-.089-.115-.155-.119-.145 0 .01-.007.079-.016.158-.033.323-.224.556-.576.705-.158.066-.23.076-.688.076s-.543-.01-.836-.092c-.589-.165-1.04-.388-1.587-.8-.372-.277-.402-.29-.793-.392-.402-.105-.665-.23-.899-.425-.277-.23-.428-.293-.757-.303a2.292 2.292 0 0 0-.477.033zm6.541 4.734c.109.056.244.161.303.23.132.151.24.464.27.774l.02.224-.181-.267c-.303-.444-.672-1.067-.632-1.067.013 0 .112.046.221.105zM21.791 9.67c0 .02-.099.132-.217.247l-.221.207.036.125c.016.069.109.375.201.678.217.721.323 1.241.365 1.85.049.734.086.915.25 1.267.165.362.204.527.234 1.044.02.352.016.372-.043.372-.033 0-.537-.023-1.116-.049l-1.218-.053-.165-.003.145-.066c.23-.105.55-.138.899-.095.26.033.741.132.928.188.056.02.053.01-.016-.118a1.654 1.654 0 0 0-.247-.296c-.527-.5-1.267-.553-2.647-.194-1.136.293-1.472.448-1.584.714-.115.277-.342.382-.948.438-.405.04-1.36-.007-1.379-.066a2.168 2.168 0 0 0-.115-.201c-.086-.142-.145-.194-.319-.283-.471-.24-1.462-.514-2.255-.626-.477-.063-1.073-.049-1.307.033-.158.059-.451.333-.57.537a.468.468 0 0 1-.165.155c-.109.053-.573.125-.616.099-.046-.03.003-.737.069-1.017.224-.951.207-.813.217-1.893.007-1.077.036-1.363.197-1.85l.076-.237-.112-.138a2.483 2.483 0 0 0-.263-.26c-.082-.069-.142-.128-.135-.135.016-.016.747.198 1.593.464 1.119.359 1.742.504 2.792.658 1.478.217 1.814.198 3.539-.201.54-.125.681-.148.892-.138.411.023.849.27 1.244.704.174.191.293.408.438.8.043.119.099.221.122.227.039.013.043-.082.026-.616-.023-.599-.026-.639-.102-.737a3.067 3.067 0 0 1-.184-.316c-.056-.115-.171-.28-.253-.369s-.145-.161-.135-.161c.049 0 .461.151.593.217.165.082.375.28.405.379.046.142.122.023.122-.188 0-.072-.053-.207-.151-.379-.082-.148-.151-.28-.151-.293s.158-.082.355-.151l.599-.214c.286-.105.296-.109.296-.059zM9.034 15.214c.072.069.082.109.082.296 0 .118-.013.214-.03.214s-.092-.023-.168-.049c-.079-.026-.148-.043-.155-.036s.053.158.132.336c.138.309.221.632.221.863 0 .069.023.115.063.138.089.046.148.461.283 2.051.069.807.072.757-.056.731-.211-.043-.23-.056-.309-.234-.155-.349-.372-1.383-.51-2.433-.076-.563-.109-1.768-.056-1.903.02-.043.066-.056.224-.056.168 0 .214.013.28.082zm14.551.056c.039.036.082.418.082.701 0 .375-.072 1.001-.184 1.567-.171.899-.408 1.906-.471 2.031a.818.818 0 0 1-.181.217c-.102.076-.122.082-.138.04-.01-.03.04-.695.115-1.478.148-1.557.178-1.718.415-2.222.079-.165.128-.303.112-.303-.089 0-.257.102-.28.171-.023.072-.023.072-.049.01a1.197 1.197 0 0 1-.026-.273c-.003-.237.059-.405.171-.464.069-.033.398-.033.435.003zm-2.607.567c.691.132.994.448 1.08 1.113.086.672-.198 1.686-.563 2.011-.645.579-2.133.76-3.164.385-.51-.184-.797-.441-1.014-.902-.204-.425-.306-.787-.326-1.126-.016-.352.02-.5.161-.629.056-.053.135-.161.181-.25.069-.132.112-.171.27-.24.379-.171 1.159-.336 1.916-.408.408-.036 1.136-.013 1.458.046zm-7.911.148c.527.082 1.086.217 1.261.306.069.033.151.109.181.165s.086.125.119.155c.253.211.316.415.26.859a4.38 4.38 0 0 1-.395 1.225c-.247.474-.701.797-1.261.902-.415.079-1.251.046-1.682-.063-.681-.178-1.119-.504-1.383-1.027a2.376 2.376 0 0 1 .01-2.058c.191-.379.247-.412.915-.54.211-.04 1.547.01 1.975.076zm3.559 1.755c.214.678.402 1.083.632 1.376.115.145.201.211.421.319.352.178.603.263.948.323.355.063 1.057.063 1.6 0 .836-.099 1.284-.267 1.514-.57.072-.096.178-.204.237-.24.089-.056.122-.119.214-.395.086-.26.112-.313.128-.25.056.211-.119 1.985-.227 2.311-.099.293-.27.533-.672.961-.464.491-.639.724-.82 1.116-.418.895-.504 1.06-.681 1.327-.26.389-.411.593-.441.596-.033 0-.036-.135-.04-.955-.003-.721-.01-.751-.25-.968-.184-.168-.253-.188-.714-.221-.566-.036-.751-.148-.928-.556-.043-.099-.086-.201-.099-.227s-.174-.092-.359-.148c-.184-.056-.333-.115-.326-.135.016-.056.23-.148.339-.148.056 0 .171.02.257.046.155.046.158.046.263-.049.168-.148.204-.26.155-.504-.063-.306-.082-.313-.151-.036l-.063.254-.573-.046-.096.109c-.237.28-.632.635-.764.691l-.142.063-.306-.188c-.29-.178-.306-.194-.362-.362-.086-.254-.178-.339-.352-.339-.079 0-.224.023-.323.049-.277.076-.263.089-.267-.29l-.003-.336-.092.197a1.357 1.357 0 0 0-.115.346c-.02.142-.016.155.128.293l.145.145.349-.03c.191-.016.349-.023.349-.013 0 .049-.102.145-.293.27-.158.105-.237.184-.3.303-.105.198-.336.389-.655.54-.227.109-.263.119-.523.112l-.28-.007-.122.128c-.201.207-.263.385-.3.84a5.437 5.437 0 0 1-.066.56c-.036.181-.227.563-.26.523a2.806 2.806 0 0 1-.132-.323 8.84 8.84 0 0 0-.734-1.491c-.115-.174-.369-.52-.566-.764-.586-.731-.757-1.027-.902-1.547-.138-.5-.263-1.712-.175-1.712.049 0 .152.138.237.316a.468.468 0 0 0 .178.201c.056.026.161.105.237.174.402.369 1.007.53 1.989.53.912 0 1.429-.125 1.886-.458.148-.105.303-.211.346-.234.04-.02.072-.053.072-.069s.082-.211.184-.435.273-.675.382-1.007l.194-.599h.882l.204.632zm1.116 5.655c.988.063 1.284.267 1.284.886 0 .984-.609 1.83-1.468 2.031-.649.151-1.129-.138-1.133-.688 0-.277.059-.388.296-.55.112-.076.198-.142.191-.148s-.122.016-.257.053c-.497.132-1.149.109-1.537-.053-.059-.026-.109-.04-.109-.03s.066.082.145.161c.201.194.263.326.263.543-.007.619-.705.882-1.426.533-.227-.109-.583-.454-.718-.698-.145-.254-.273-.655-.273-.853 0-.096.043-.303.102-.487.115-.356.217-.491.395-.517a101.167 101.167 0 0 0 1.544-.201c.122-.023 2.268-.013 2.7.016zm3.526 1.999c.135.879.119 1.482-.043 1.804-.263.514-2.788 2.384-4.145 3.065-.336.168-.833.342-.974.342-.649 0-3.009-1.419-4.504-2.706-.777-.668-.876-.909-.76-1.87l.072-.685c.016-.191.033-.237.076-.237.079 0 .224.161.494.56.128.191.29.385.359.438.211.155.658.616.988 1.011.596.711 1.001 1.073 1.472 1.307.586.293 1.35.415 2.156.339 1.281-.115 1.949-.523 2.953-1.794.382-.481.688-.797.925-.955.102-.066.165-.145.237-.293.089-.184.583-.797.616-.764.007.007.043.204.079.438z"/></symbol><symbol id="icon-cam" viewBox="0 0 752 648"><path d="M376 648h376V0H0v648h376ZM20.273 574.01c4.244-4.477 26.874-5.184 34.182-1.414 4.008 2.121 4.48 5.184 4.48 24.271 0 13.902-.944 22.857-2.83 24.742-3.771 3.77-33.003 3.77-36.775 0-4.479-4.477-3.771-43.122.943-47.599Zm.707-552.803c2.594-1.178 10.137-2.356 16.738-2.356 20.037 0 21.216 1.414 21.216 26.627 0 13.902-.943 22.857-2.829 24.742-1.65 1.65-9.43 2.827-18.387 2.827-8.958 0-16.738-1.178-18.388-2.827-1.885-1.885-2.828-10.84-2.828-24.742 0-19.087.471-22.15 4.479-24.27Zm358.556 68.335h351.248v464.203H28.288V89.542h351.248ZM105.139 574.01c4.243-4.477 26.874-5.184 34.181-1.414 4.008 2.121 4.479 5.184 4.479 24.271 0 13.902-.943 22.857-2.828 24.742-3.772 3.77-33.004 3.77-36.775 0-4.48-4.477-3.772-43.122.943-47.599Zm0-551.389c4.479-4.477 31.588-5.184 35.832-.942 1.885 1.885 2.828 10.839 2.828 24.27s-.943 22.386-2.828 24.27c-1.651 1.65-9.194 2.828-17.445 2.828-20.273 0-22.159-2.356-22.159-27.098 0-14.845.943-20.736 3.772-23.328Zm84.865 552.803c3.064-4.477 5.657-5.184 18.387-5.184 8.251 0 15.795 1.178 17.445 2.828 1.886 1.885 2.829 11.075 2.829 25.684 0 26.391.471 25.684-22.395 25.684-11.787 0-15.559-.942-17.445-4.241-4.007-6.598-3.065-38.644 1.179-44.771Zm0-552.803c4.479-4.477 31.588-5.184 35.832-.942 1.886 1.885 2.829 10.839 2.829 24.27s-.943 22.386-2.829 24.27c-1.65 1.65-9.194 2.828-17.445 2.828-20.273 0-22.159-2.356-22.159-27.098 0-14.845.943-20.736 3.772-23.328Zm85.572 549.975c7.308-3.77 29.939-3.063 34.182 1.414 4.715 4.477 5.422 43.122.943 47.599-3.772 3.77-33.003 3.77-36.775 0-1.886-1.885-2.829-10.84-2.829-24.742 0-19.087.472-22.15 4.479-24.271Zm-1.65-550.918c4.243-4.24 31.353-3.534 35.832.943 4.715 4.477 5.422 43.122.943 47.599-3.772 3.77-33.003 3.77-36.775 0-1.886-1.885-2.829-10.84-2.829-24.27 0-13.432.943-22.386 2.829-24.272Zm85.808 552.332c4.243-4.477 26.874-5.184 34.182-1.414 4.008 2.121 4.479 5.184 4.479 24.271 0 13.902-.943 22.857-2.829 24.742-3.772 3.77-33.003 3.77-36.775 0-4.479-4.477-3.772-43.122.943-47.599Zm.707-552.803c2.593-1.178 10.137-2.356 16.738-2.356 20.037 0 21.216 1.414 21.216 26.627 0 13.902-.943 22.857-2.829 24.742-1.65 1.65-9.429 2.827-18.387 2.827s-16.738-1.178-18.388-2.827c-1.886-1.885-2.829-10.84-2.829-24.742 0-19.087.472-22.15 4.479-24.27Zm84.158 552.803c4.244-4.477 26.874-5.184 34.182-1.414 4.008 2.121 4.479 5.184 4.479 24.271 0 13.902-.943 22.857-2.829 24.742-1.65 1.649-9.429 2.827-18.387 2.827s-16.737-1.178-18.388-2.827c-4.479-4.477-3.771-43.122.943-47.599Zm0-551.389c4.479-4.477 31.589-5.184 35.832-.942 1.886 1.885 2.829 10.839 2.829 24.27s-.943 22.386-2.829 24.27c-1.65 1.65-9.429 2.828-18.859 2.828-19.566 0-20.509-1.414-20.744-27.57 0-14.373.943-20.264 3.771-22.856Zm85.101 551.86c2.829-3.063 7.072-4.241 16.502-4.241 20.98 0 21.923 1.178 21.923 26.627 0 13.902-.943 22.857-2.828 24.742-1.651 1.649-9.43 2.827-18.859 2.827-19.567 0-20.509-1.413-20.745-26.862 0-14.138.943-19.794 4.007-23.093Zm-.235-551.86c4.479-4.477 31.588-5.184 35.832-.942 3.771 3.77 3.771 44.77 0 48.54-1.651 1.65-9.194 2.828-17.445 2.828-20.273 0-22.159-2.356-22.159-27.098 0-14.845.943-20.736 3.772-23.328Zm85.572 549.975c7.308-3.77 29.939-3.063 34.182 1.414 4.715 4.477 5.422 43.122.943 47.599-3.772 3.77-33.003 3.77-36.775 0-1.886-1.885-2.829-10.84-2.829-24.742 0-19.087.471-22.15 4.479-24.271Zm-1.65-550.918c4.243-4.24 31.353-3.534 35.832.943 4.715 4.477 5.422 43.122.943 47.599-3.536 3.534-28.76 3.77-35.125.47-4.008-2.12-4.479-5.183-4.479-24.27 0-13.902.943-22.856 2.829-24.742Zm85.808 552.332c2.357-2.592 8.015-3.77 17.444-3.77 19.331 0 21.217 2.356 21.217 28.041 0 12.724-.943 21.443-2.829 23.328-3.772 3.77-33.003 3.77-36.775 0-4.479-4.477-3.772-43.122.943-47.599Zm.707-552.803c2.593-1.178 10.137-2.356 16.737-2.356 20.038 0 21.217 1.414 21.217 26.627 0 13.902-.943 22.857-2.829 24.742-1.65 1.65-9.43 2.827-18.388 2.827-8.957 0-16.737-1.178-18.387-2.827-1.886-1.885-2.829-10.84-2.829-24.742 0-19.087.472-22.15 4.479-24.27Z"/><path d="M428.084 118.231c-2.3 1.6-5.7 9.7-7.4 17.6-1 4.5-1.6 5.3-9.5 11.1-5.1 3.8-8.4 6.9-8.4 8 0 2.4-1.1 2.3-7-1l-4.9-2.7-5.3 2.8c-5.2 2.8-5.5 2.9-13.3 1.8-6.9-1-8.6-.9-12.8.6-5.3 1.9-10.7 7.1-10.7 10.3 0 1.6-.7 2-3.3 2-5.2 0-6.9 2.5-6.1 9.2l.6 5.5-3.2.7c-5.4 1-6.7.7-11-2.9-4.8-4-9.4-5.5-17-5.5-4.9 0-5.8-.4-9.2-3.7-5.2-5.1-9.4-6.3-22.8-6.3-10 0-47.9 2.8-48.9 3.6-.1.1.4 1.6 1.2 3.3 1.5 3 1.5 3-1.7 3.6-1.7.4-4.4 1.3-6.1 2-1.6.7-8.4 1.6-15 1.9-6.6.3-13 .8-14.3 1.2-1.6.4-3.4 2.9-5.9 8.1-3.4 6.9-3.6 8.1-4.1 19.3-.4 10.6-.2 12.8 1.8 19.2 3.1 9.3 9.3 18.6 14.5 21.5 9.6 5.4 41.5 10.1 55.9 8.3 4.4-.5 9-1.9 12.6-3.8 5.7-3 12.7-4.6 41-9.2 11.1-1.8 32.3-6.1 37.4-7.7 1.8-.5 1.9-.1 1.3 4.7-.6 5.1-.5 5.3 8.8 21.6l9.4 16.4-3.7 1.6c-2 .8-9.9 3.7-17.5 6.5-10.4 3.7-15.1 4.9-19.5 4.9-5.2 0-19.7 3.2-39.7 8.9-3.8 1.1-7.5 2.7-8.1 3.6-1.6 2.2-16 4-19.9 2.5-1.4-.6-7.7-1-13.8-1-6.2 0-14.1-.5-17.7-1.1-8.5-1.5-28.4-1.5-38.5 0-5.9.8-9.8.9-15.5 0-6.8-1-8.6-.9-19.8 1.5-6.7 1.4-12.4 2.6-12.6 2.6-.2 0-2.2 4.1-4.5 9.1-3.9 8.4-4.2 9.5-3.7 15.2 4.5 48.8 6.3 64.9 9.8 91.9l2.2 16.7 6.6 12.3 6.7 12.3 11.4 6.3c28.8 15.9 78.2 39.5 105.4 50.5 16.7 6.7 19.8 7.7 23.5 7.7 4.4 0 20.1-8.6 24.4-13.3 1.6-1.8 5.1-5.6 7.7-8.5 2.7-2.9 9.9-9.4 16.1-14.4 6.2-5 11.9-9.6 12.6-10.3 1.1-.9 5.2-27 5.2-33 0-2.6 9.5-11.3 16.3-14.9l5.5-2.9 7.4 2.1c4 1.2 8.1 2.2 9.1 2.2s7.6-2.5 14.6-5.6l12.8-5.6 7.9 2.5c9.6 3 21.7 5.1 24.8 4.3 1.2-.3 11.9-5.9 23.7-12.4 11.8-6.6 34.7-19.2 50.9-28.2 45.8-25.4 45.3-25 46.6-37.3.9-8.6 0-13.1-2.8-14.4-2.1-.9-2.1-1.1 2.1-3.8 10.7-7.1 16.8-30.6 14.2-55-1.2-11.5-2.3-13.6-9.9-18-2.8-1.7-5.4-3.6-5.7-4.4-.4-1.1 3.6-13.4 10.7-32.4.7-1.9 2.8-3.6 6.2-5.4 13.6-6.8 16.3-9 20-16.3 7.3-14.6 7-27.5-.9-43.9l-4.6-9.5 1.7-10.2c1.6-9.6 1.6-10.5 0-12.8-2.3-3.5-5.9-5.7-10.9-6.7-4.9-.9-38.6-2.3-105.7-4.4-26.1-.8-51.5-1.7-56.5-2-7.1-.5-9.4-.2-11.2 1Zm25.2 4.4c24.3 1.1 49.7 1.9 99.5 3.1 34.5.8 42 1.6 42 4.3 0 2.9-9.2 32.2-21 66.7-7.3 21.2-14.1 41.3-15.3 44.8l-2.1 6.3-4.6-.5c-2.5-.3-10.6-1.2-18-2.1-7.4-.9-20.9-2.4-30-3.5-9.1-1.1-22.1-2.7-29-3.6-57.2-6.9-76.7-9.4-78.2-9.9-1-.4-1.8-1.2-1.8-1.8 0-.7 7.8-24.5 17.3-52.9 12.5-37.7 17.6-51.8 18.7-51.8.8 0 11 .4 22.5.9Zm-56.3 33.6c2.5 1.7 5.1 2.5 8 2.5h4.3l-2.5 2c-1.5 1.3-3.5 1.9-5 1.6-1.4-.2-4.1-.7-6.1-1.1l-3.6-.7-1.2 10.9c-1.7 14.9-2.2 18.3-3.1 18.3-.4 0-.4-1.7.1-3.8 1.2-5 1.1-15.9-.1-20.1-.5-1.9-1.9-4.4-3-5.6l-2.1-2.3 2.8-2c3.7-2.8 7.1-2.7 11.5.3Zm-25.7 2c5 2 5.8 5 4 13.8-2.2 10.4-3.1 13.3-5.4 16.6-1.9 2.7-8.7 6.8-9.7 5.8-.2-.2.9-3 2.6-6.2 2.5-4.7 3-6.9 3-12.5 0-3.8-.4-8-1-9.4-1.3-3.6-5-5.1-9-3.8-4.8 1.7-3.4-.8 2-3.6 5.1-2.6 8.7-2.8 13.5-.7Zm-100.5 10.5c-3 .5-10.2.8-16 .7-10.4-.1-10.5-.1-3-.7 4.1-.4 11.3-.7 16-.7 8 0 8.1 0 3 .7Zm27.2 3.7c1 .9 2 2.4 2.3 3.4.5 1.6 1.7 1.9 6.8 1.9 8.2 0 13 1.5 17.3 5.2 4.7 4.2 7.3 9.5 8.1 16.8.5 5 1.1 6.5 3.5 8.5 3.1 2.6 5.1 3.1 16.7 4 7.3.5 16.1 3.5 16.1 5.3 0 .6-1.1 1.3-2.4 1.6-1.3.3-5 3.4-8.3 6.9-6.6 7.1-6.9 7.2-31.8 12.7-7.7 1.7-14.8 3.3-15.7 3.6-.9.3 0-1.2 2.1-3.3 5.6-5.6 8.3-13.6 8.8-26.3.6-12.8-1.5-19.9-7.4-25.1-7.3-6.4-12.3-7-34.3-4.4-6.9.8-12.7 1.5-12.9 1.5-.2 0 2 2.1 4.8 4.6 11.5 10.3 14.5 23.6 10.1 44.1-1.5 7.1-7.6 13.8-16.6 18.4-6.5 3.2-7.3 3.4-18.8 3.7-6.7.1-14.1-.1-16.6-.6-3.4-.6-1.2-.8 8.5-.7 12.1 0 13.3-.2 17.5-2.5 9.5-5.4 14.5-16.1 14.5-31.5-.1-10.5-2.3-16.6-8.3-22.8-6.3-6.5-11.6-7.8-36.2-8.8-24-1-30.8-1.6-33-2.9-2.6-1.6 3.4-2.9 16.8-3.6 9.6-.5 13.2-1.1 14.6-2.3 1.5-1.3 5.5-1.7 23-2.2 11.6-.3 26.4-1.2 32.9-1.9 11.8-1.4 11.8-1.4 11.2-3.8-.6-2.3-.4-2.4 2.2-1.7 1.5.3 3.6 1.4 4.5 2.2Zm83.5 26.8c6 .4 12.5 1 14.7 1.3l3.8.7-1.9 2.3-1.9 2.4-13.4-1.7c-18-2.2-20-2.5-20-3.2 0-.3 1.5-2.2 3.3-4.2l3.2-3.6.7 2.6c.8 2.6 1 2.7 11.5 3.4Zm18.9 42.9c3 1.7 7.1 2.7 14.5 3.5 13 1.6 24.2 3.1 24.6 3.4.1.2-8.7 1.3-19.7 2.7-16.4 2-20.1 2.2-21.4 1.1-1.4-1.1-4.6-9.8-4.6-12.3 0-1.4 2.4-.8 6.6 1.6Zm76.7 18.4c7.9 3.9 21.6 16.4 28.3 25.8 10.1 14.1 14.5 29.3 14.5 49.2-.1 17.3-2.8 31.6-6.2 32.7-3.4 1.1-6.9 8.8-8.9 19.6-4.3 22.8-4 21.9-7.9 24.3-2 1.3-7.4 4.5-12.1 7.1-4.7 2.6-9.4 5.4-10.6 6.2-2 1.3-2.1 1.2-1.6-4.2.3-3.7-.1-7.5-1.3-11.2-2.3-7.1-1.7-16.6 2-32.3 2.4-10.4 2.6-12.9 2.2-26-.3-11.9-.9-16.1-3.1-23.5-3.4-11.6-11-27.3-17.1-35.3-9.2-12.2-22.9-21.4-34.2-22.8-6.6-.8-6.5-2.3.3-4.1 2.7-.7 11.4-3.1 19.4-5.3 18.8-5.1 26.2-5.2 36.3-.2Zm49.7.2c14.9 2 15.1 1.7-5.9 8.1-10.7 3.3-19.9 5.9-20.6 5.9-1.5 0-6.5-7-6.5-9.1 0-1.8 19-7 23-6.3 1.4.2 5.9.8 10 1.4Zm34.5 4.8c12 1.8 16.6 3.6 18.5 7.3.6 1 1.9 5.5 3 10.1 2.7 11.4 2.7 30.2 0 41.4-3.6 15.2-1.6 13.5-32.2 27-14.8 6.6-27.3 12-27.7 12.2-.4.1-.1-3.7.6-8.5 2.1-14.6 2.7-36.9 1.4-46.3-2-13.7-3.8-16.8-14.3-24.5-5-3.6-8.7-6.9-8.3-7.3 1.3-1.4 40.1-13 43.5-13.1 1.9 0 8.9.8 15.5 1.7Zm-121.1 20c10 7.3 21.9 26.7 26.6 43.2 2.9 10.5 3.7 26.4 1.6 36-4 18.9-16.9 36.2-33.4 44.8-4.5 2.4-8.2 4.1-8.2 4 0-.2 2.2-2.8 5-5.8 5.9-6.4 12.3-18.3 14.7-27.1 1.1-4.4 1.7-10.6 1.7-19.4.1-14.4-1.7-22.5-7.4-35.3-3.8-8.3-16.1-26.8-22.9-34.4-2.8-3.1-4.8-5.9-4.4-6.1.5-.2 3.4-.8 6.6-1.1 6-.8 6.8-1.8 4.2-5.2-.8-1-1.5-2.2-1.5-2.7 0-1.1 11.9 5.1 17.4 9.1Zm-75 .8c21.8 5.6 41.3 24.9 52 51.4 4.8 11.8 6.6 21.7 6.6 36 0 23.1-5.6 39.3-16.5 47.5-3.1 2.4-26.5 12.9-26.5 11.9 0-.3 1.3-3.1 3-6.3 5-10.1 7.1-19.2 7.7-33.8.7-15.8-.7-26.3-4.9-38.2-6.5-18.6-15-32.5-26.9-44.3-6.1-6.1-9.5-8.5-16.8-12l-9-4.4 11.7-4.6c6.4-2.6 12.1-4.7 12.6-4.7.4-.1 3.6.6 7 1.5Zm-58 18.8c21.4 7.7 41.9 28.5 51.5 52.2 5.7 14 7.6 24.4 7.6 40.9 0 9.6-.6 17.1-1.5 21l-1.5 6-.2-4c-.5-7.2-3.4-28.7-6-44.5-2.2-13.7-3.1-16.6-7.3-25.5-5.6-11.8-7.5-13.9-18.3-20.2-4.5-2.6-10.8-7.1-14-9.9-9.4-8.7-21.5-14.3-33.2-15.6-2.9-.3-2.9-.4 1.5-2 5.6-2.2 12.5-1.7 21.4 1.6Zm-126.9 4.7c3.9 1 12.9 3.4 20 5.3 7.2 1.9 22.9 5.9 35 9.1 12.1 3.1 26.7 6.9 32.5 8.5 5.8 1.5 16.1 4.2 23 6 9.1 2.4 13.3 4 15.4 5.9 4.9 4.5 11.6 13.8 14.5 20.3 2.7 5.8 3 7.8 4 25.3.6 10.4 1.8 30.5 2.6 44.5s2 33.8 2.5 44c.6 10.2 1.2 19.7 1.5 21.1.3 2.1-1.2 4.1-9.3 12.3-11.1 11.1-21.1 17.6-27.1 17.6-6.4 0-56.9-22.1-99.8-43.7-23.8-11.9-33.5-17.4-20.8-11.8 54 24.1 115.1 48.5 121.3 48.5 2.7 0 12.3-7.2 14.3-10.7.9-1.8.9-6.7 0-23.5-.6-11.7-1.9-33.2-2.7-47.8-.8-14.6-1.7-33.7-2-42.5l-.6-16-5.1-9.5c-7.9-14.9-13.4-22.9-16.4-24.1-4.5-1.7-55-15.3-79.3-21.3-23.9-5.9-48.6-11-58.8-12.2-10.1-1.1-7.4-4 6.2-6.6 10.5-2 18.8-1.6 29.1 1.3Zm-2.3 14.4c25.2 6 54.7 14 77.4 21.1 8.2 2.5 17.2 5.3 20.1 6.1 4.7 1.4 5.6 2.1 9.7 8.4 2.6 3.8 4.2 6.9 3.7 6.9s-11.6-3-24.7-6.6c-13.2-3.7-25.2-7-26.9-7.4-1.6-.4-9.7-2.7-18-5-49-13.8-68.7-19.1-69.3-18.5-.5.4.5 11 3.3 34.5 2.8 23.6 5.4 45.5 7 60.5.9 8.2 2.2 16 2.7 17.2.8 1.6 5.8 4.2 17.7 9.3 9.1 3.9 40.5 17.6 69.6 30.3 55.6 24.4 55.6 24.4 52.3 29-1.5 2.1 3.6 4.2-87.6-36.3-55.4-24.6-59.5-26.6-61.7-29.9-1.8-2.8-2.6-6.5-3.9-17.6-.9-7.7-2.3-19.6-3.1-26.5-.9-6.9-2.7-22.4-4.1-34.5-1.4-12.1-2.9-24.7-3.4-28-.8-5.9-.7-6.1 3.3-12.8l4-6.9 4.6.7c2.5.4 14.8 3.1 27.3 6Zm-7.2 11.6c4.1 1.2 10.7 2.9 14.5 4 3.9 1 9.8 2.6 13.3 3.5 3.4.9 6.2 2.2 6.2 2.8 0 1.2 2.1 29.4 4.5 60 .8 10.4 1.1 19.4.8 20-3 5-8.9 10.6-11.7 11-7 1-26.8 2.7-27.2 2.3-.5-.5-1.4-8.3-4.4-37.2-1.8-18.1-3.2-31.7-6-58.2-1.3-11.9-1.3-11.6.7-10.9 1 .4 5.1 1.6 9.3 2.7Zm51.5 15.1c.2.7 1.1 15.5 2.1 32.8 1 19.8 2.1 31.9 2.8 32.6 1.4 1.4 21.5 8.8 22.1 8.2.3-.2-1.1-3.4-3.1-7.1-8.1-15.4-13.1-37.1-12.1-53 .3-4.9 1.1-9.5 1.6-10 .8-.8 1.1 3 1.1 12.6 0 19.7 3.9 36.3 12.2 51.9 3.6 6.8 4.9 8.1 10.8 10.1 2.5.8 8.2 2.9 12.8 4.6 4.5 1.7 8.2 2.9 8.2 2.7 0-.2-2.2-1.8-5-3.6-16.1-10.3-26.6-31.2-28.6-57.1-.7-8.6.1-17.9 1.4-17.9.4 0 .8 5.3.9 11.9.4 26.2 9.9 47.8 27.3 62 3 2.4 5.4 4.9 5.2 5.4-.1.4.2.6.8.2.6-.4 2.5.2 4.4 1.3 1.8 1 5.6 2.7 8.4 3.6 3.8 1.3 5.2 2.3 5.2 3.6 0 1.6-1.8 1.2-14.2-3.7-7.9-3-17.9-6.8-22.3-8.5-4.4-1.6-10.7-4-14-5.3-3.3-1.2-10.5-3.9-16-6s-10.3-4-10.6-4.4c-.7-.6-4-54.3-3.9-63.4 0-4.3 1.5-6.4 2.5-3.5Zm54 16.1 14 4.3 3.7 5.5 3.6 5.5 1.1 19c.6 10.4 1.4 21.3 1.7 24.1.7 6.5.1 6.6-8.6 1.5-12.6-7.3-24.4-22-27.9-34.7-1.9-6.8-3.1-18.5-2.5-24.1.4-3 .7-5.4.8-5.4 0 0 6.4 2 14.1 4.3Z"/></symbol></defs></svg>