<svg xmlns="http://www.w3.org/2000/svg" aria-hidden="true" style="position:absolute;width:0;height:0;overflow:hidden">
  <defs>
        <!-- Кнопка закриття на модалках -->
    <symbol id="close" viewBox="0 0 32 32">
<path d="M5.86 4.040l-1.82 1.82 10.14 10.14-10.2 10.22 1.8 1.8 10.22-10.2 10.2 10.2 1.82-1.82-10.2-10.2 10.14-10.14-1.82-1.82-10.14 10.14z"></path>
</symbol>
        <!-- Сердечко в футтері -->
    <symbol id="favorite" viewBox="0 0 34 32">
      <path d="m17.231 31.704-2.412-2.412C5.859 21.366.001 16.024.001 9.477.001 4.135 4.136 0 9.478 0c2.929 0 5.858 1.378 7.754 3.618C19.127 1.378 22.057 0 24.986 0c5.342 0 9.477 4.135 9.477 9.477 0 6.548-5.858 11.889-14.818 19.815l-2.412 2.412z"/>
    </symbol>
        <!-- Значок фільм -->
    <symbol id="film" viewBox="0 0 32 32">
      <path stroke-linecap="round" stroke-linejoin="round" stroke-width="2" d="M26.427 2.667H5.574a2.907 2.907 0 0 0-2.907 2.907v20.853a2.907 2.907 0 0 0 2.907 2.907h20.853a2.907 2.907 0 0 0 2.907-2.907V5.574a2.907 2.907 0 0 0-2.907-2.907zM9.333 2.667v26.667M22.667 2.667v26.667M2.667 16h26.667M2.667 9.334h6.667M2.667 22.666h6.667M22.667 22.666h6.667M22.667 9.334h6.667"/>
    </symbol>
        <!-- Значок пошук -->
    <symbol id="search" viewBox="0 0 32 32">
      <path stroke-linecap="round" stroke-linejoin="round" stroke-width="2.286" d="M14.667 25.333c5.891 0 10.667-4.776 10.667-10.667S20.558 3.999 14.667 3.999 4 8.775 4 14.666s4.776 10.667 10.667 10.667zM27.999 28l-5.8-5.8"/>
    </symbol>
        <!-- Logo Linkedin -->
    <symbol id="linkedin" viewBox="0 0 32 32">
     <path d="M7.449 10.295h-6.424c-0.285 0-0.516 0.231-0.516 0.516v20.638c0 0.285 0.231 0.516 0.516 0.516h6.424c0.285 0 0.516-0.231 0.516-0.516v-20.638c0-0.285-0.231-0.516-0.516-0.516z"></path>
     <path d="M4.239 0.035c-2.337 0-4.239 1.9-4.239 4.234 0 2.336 1.902 4.236 4.239 4.236 2.336 0 4.236-1.9 4.236-4.236s-1.9-4.234-4.236-4.234z"></path>
     <path d="M23.789 9.782c-2.58 0-4.487 1.109-5.644 2.369v-1.34c0-0.285-0.231-0.516-0.516-0.516h-6.152c-0.285 0-0.516 0.231-0.516 0.516v20.638c0 0.285 0.231 0.516 0.516 0.516h6.41c0.285 0 0.516-0.231 0.516-0.516v-10.211c0-3.441 0.935-4.781 3.333-4.781 2.612 0 2.82 2.149 2.82 4.958v10.034c0 0.285 0.231 0.516 0.516 0.516h6.412c0.285 0 0.516-0.231 0.516-0.516v-11.32c0-5.116-0.976-10.347-8.211-10.347z"></path>
     </symbol>
        <!-- Logo GitHub -->
     <symbol id="github" viewBox="0 0 32 32">
     <path d="M16 0c-8.84 0-16 7.16-16 16 0 7.080 4.58 13.060 10.94 15.18 0.8 0.14 1.1-0.34 1.1-0.76 0-0.38-0.020-1.64-0.020-2.98-4.020 0.74-5.060-0.98-5.38-1.88-0.18-0.46-0.96-1.88-1.64-2.26-0.56-0.3-1.36-1.040-0.020-1.060 1.26-0.020 2.16 1.16 2.46 1.64 1.44 2.42 3.74 1.74 4.66 1.32 0.14-1.040 0.56-1.74 1.020-2.14-3.56-0.4-7.28-1.78-7.28-7.9 0-1.74 0.62-3.18 1.64-4.3-0.16-0.4-0.72-2.040 0.16-4.24 0 0 1.34-0.42 4.4 1.64 1.28-0.36 2.64-0.54 4-0.54s2.72 0.18 4 0.54c3.060-2.080 4.4-1.64 4.4-1.64 0.88 2.2 0.32 3.84 0.16 4.24 1.020 1.12 1.64 2.54 1.64 4.3 0 6.14-3.74 7.5-7.3 7.9 0.58 0.5 1.080 1.46 1.080 2.96 0 2.14-0.020 3.86-0.020 4.4 0 0.42 0.3 0.92 1.1 0.76 6.32-2.12 10.9-8.12 10.9-15.18 0-8.84-7.16-16-16-16z"></path>
     </symbol>
        <!-- Trailer Logo -->
      <symbol id="youtube" viewBox="0 0 32 32">
      <path d="M31.331 8.248c-0.377-1.389-1.444-2.462-2.801-2.841l-0.028-0.007c-2.495-0.673-12.501-0.673-12.501-0.673s-10.007 0-12.503 0.673c-1.384 0.387-2.451 1.46-2.821 2.82l-0.007 0.028c-0.669 2.512-0.669 7.752-0.669 7.752s0 5.24 0.669 7.752c0.377 1.389 1.444 2.462 2.801 2.841l0.028 0.007c2.495 0.673 12.501 0.673 12.501 0.673s10.007 0 12.503-0.673c1.385-0.386 2.452-1.459 2.823-2.82l0.007-0.028c0.668-2.512 0.668-7.752 0.668-7.752s0-5.24-0.669-7.752zM12.727 20.757v-9.515l8.364 4.757-8.364 4.757z"></path>
      </symbol>
      <symbol id="youtube-logo" viewBox="0 0 48 32">
      <path fill="#f00" style="fill: var(--color1, #f00)" d="M41.69 7.055c-0.425-1.599-1.676-2.858-3.265-3.285-2.879-0.777-14.425-0.777-14.425-0.777s-11.546 0-14.425 0.777c-1.589 0.427-2.84 1.687-3.265 3.285-0.771 2.898-0.771 8.945-0.771 8.945s0 6.047 0.771 8.945c0.424 1.599 1.676 2.858 3.264 3.286 2.879 0.776 14.425 0.776 14.425 0.776s11.546 0 14.425-0.776c1.589-0.428 2.84-1.687 3.265-3.286 0.772-2.898 0.772-8.945 0.772-8.945s0-6.047-0.772-8.945z"></path>
      <path fill="#fff" style="fill: var(--color2, #fff)" d="M20.224 21.49l9.65-5.49-9.65-5.49z"></path>
      </symbol>
        <!-- Lens icon -->
     <symbol id="icon-lens" viewBox="0 0 32 32">
<path stroke-linejoin="round" stroke-linecap="round" stroke-miterlimit="4" stroke-width="2.2857" d="M14.667 25.333c5.891 0 10.667-4.776 10.667-10.667s-4.776-10.667-10.667-10.667c-5.891 0-10.667 4.776-10.667 10.667s4.776 10.667 10.667 10.667z"></path>
<path stroke-linejoin="round" stroke-linecap="round" stroke-miterlimit="4" stroke-width="2.2857" d="M27.999 28l-5.8-5.8"></path>
</symbol>
        <!-- User icon -->
      <symbol id="icon-user" viewBox="0 0 32 32">
      <path d="M16.837 3.030c-0.109 0.023-0.375 0.095-0.593 0.158-0.471 0.142-0.744 0.178-1.597 0.224-1.244 0.066-1.719 0.151-2.235 0.398-0.385 0.184-0.737 0.54-1.159 1.165-0.375 0.556-0.705 0.905-1.248 1.327-0.76 0.593-0.839 0.797-0.79 2.031 0.013 0.336 0.010 0.382-0.079 0.639-0.092 0.263-0.095 0.283-0.059 0.504 0.023 0.125 0.063 0.27 0.089 0.323 0.066 0.128 0.063 0.329-0.016 0.823-0.036 0.227-0.082 0.658-0.105 0.961-0.040 0.566-0.033 0.784 0.079 2.568 0.020 0.339 0.026 0.629 0.013 0.642-0.013 0.016-0.201 0.033-0.415 0.043-0.217 0.010-0.402 0.030-0.415 0.043-0.118 0.115-0.181 1.119-0.115 1.824 0.105 1.1 0.458 2.706 0.681 3.095 0.069 0.119 0.112 0.151 0.375 0.26 0.165 0.066 0.306 0.132 0.313 0.145 0.010 0.013 0.059 0.415 0.115 0.892 0.191 1.672 0.313 2.166 0.751 3.042 0.23 0.458 0.24 0.566 0.135 1.449-0.046 0.375-0.079 0.843-0.079 1.086 0 0.411 0.003 0.435 0.096 0.602 0.122 0.214 0.724 0.807 1.258 1.235 1.287 1.024 2.983 2.067 3.822 2.347 0.451 0.151 0.836 0.076 1.607-0.316 0.876-0.445 1.962-1.185 3.276-2.235 0.681-0.543 1.024-0.892 1.113-1.133 0.092-0.24 0.092-0.346-0.013-1.225-0.151-1.31-0.155-1.261 0.109-1.89 0.352-0.846 0.533-1.686 0.691-3.177l0.056-0.556 0.119-0.069c0.063-0.040 0.221-0.115 0.346-0.168 0.375-0.161 0.405-0.247 0.803-2.324 0.257-1.343 0.309-1.771 0.267-2.127-0.066-0.52-0.3-0.734-0.807-0.734h-0.247v-0.833c0-0.461 0.010-1.258 0.023-1.778l0.020-0.942 0.112 0.086c0.184 0.142 0.352 0.412 0.553 0.882 0.313 0.737 0.52 0.902 1.175 0.932 0.191 0.007 0.418 0.003 0.504-0.007 0.204-0.033 0.165-0.076-0.237-0.267-0.714-0.342-0.863-0.681-0.866-1.975 0-0.296-0.023-0.626-0.053-0.823-0.040-0.244-0.053-0.53-0.049-1.086 0.003-0.856-0.013-0.955-0.217-1.294-0.069-0.115-0.217-0.309-0.333-0.435-0.112-0.125-0.204-0.234-0.204-0.244 0-0.030 0.362 0.105 0.491 0.184 0.207 0.125 0.392 0.29 0.57 0.507 0.092 0.115 0.174 0.204 0.184 0.198 0.033-0.036-0.151-0.543-0.26-0.714-0.197-0.306-0.415-0.438-1.129-0.688-0.198-0.072-0.372-0.142-0.385-0.155-0.016-0.016 0.138-0.102 0.342-0.191 0.365-0.161 0.369-0.165 0.234-0.175-0.076-0.007-0.26 0.023-0.411 0.063s-0.405 0.079-0.563 0.086c-0.283 0.020-0.286 0.020-0.385-0.082-0.056-0.056-0.102-0.128-0.102-0.165 0-0.092 0.227-0.165 0.639-0.207 0.178-0.016 0.395-0.059 0.484-0.095 0.168-0.063 0.471-0.227 0.451-0.247-0.007-0.003-0.165 0.003-0.352 0.023-0.543 0.049-0.553 0.040-0.188-0.168 0.711-0.405 0.849-0.672 0.563-1.077-0.063-0.089-0.115-0.155-0.119-0.145 0 0.010-0.007 0.079-0.016 0.158-0.033 0.323-0.224 0.556-0.576 0.705-0.158 0.066-0.23 0.076-0.688 0.076s-0.543-0.010-0.836-0.092c-0.589-0.165-1.040-0.388-1.587-0.8-0.372-0.277-0.402-0.29-0.793-0.392-0.402-0.105-0.665-0.23-0.899-0.425-0.277-0.23-0.428-0.293-0.757-0.303-0.155-0.007-0.369 0.010-0.477 0.033zM23.378 7.764c0.109 0.056 0.244 0.161 0.303 0.23 0.132 0.151 0.24 0.464 0.27 0.774l0.020 0.224-0.181-0.267c-0.303-0.444-0.672-1.067-0.632-1.067 0.013 0 0.112 0.046 0.221 0.105zM21.791 9.67c0 0.020-0.099 0.132-0.217 0.247l-0.221 0.207 0.036 0.125c0.016 0.069 0.109 0.375 0.201 0.678 0.217 0.721 0.323 1.241 0.365 1.85 0.049 0.734 0.086 0.915 0.25 1.267 0.165 0.362 0.204 0.527 0.234 1.044 0.020 0.352 0.016 0.372-0.043 0.372-0.033 0-0.537-0.023-1.116-0.049s-1.126-0.049-1.218-0.053l-0.165-0.003 0.145-0.066c0.23-0.105 0.55-0.138 0.899-0.095 0.26 0.033 0.741 0.132 0.928 0.188 0.056 0.020 0.053 0.010-0.016-0.118-0.043-0.072-0.151-0.207-0.247-0.296-0.527-0.5-1.267-0.553-2.647-0.194-1.136 0.293-1.472 0.448-1.584 0.714-0.115 0.277-0.342 0.382-0.948 0.438-0.405 0.040-1.36-0.007-1.379-0.066-0.003-0.013-0.056-0.105-0.115-0.201-0.086-0.142-0.145-0.194-0.319-0.283-0.471-0.24-1.462-0.514-2.255-0.626-0.477-0.063-1.073-0.049-1.307 0.033-0.158 0.059-0.451 0.333-0.57 0.537-0.036 0.059-0.109 0.128-0.165 0.155-0.109 0.053-0.573 0.125-0.616 0.099-0.046-0.030 0.003-0.737 0.069-1.017 0.224-0.951 0.207-0.813 0.217-1.893 0.007-1.077 0.036-1.363 0.197-1.85l0.076-0.237-0.112-0.138c-0.066-0.079-0.184-0.194-0.263-0.26-0.082-0.069-0.142-0.128-0.135-0.135 0.016-0.016 0.747 0.198 1.593 0.464 1.119 0.359 1.742 0.504 2.792 0.658 1.478 0.217 1.814 0.198 3.539-0.201 0.54-0.125 0.681-0.148 0.892-0.138 0.411 0.023 0.849 0.27 1.244 0.704 0.174 0.191 0.293 0.408 0.438 0.8 0.043 0.119 0.099 0.221 0.122 0.227 0.039 0.013 0.043-0.082 0.026-0.616-0.023-0.599-0.026-0.639-0.102-0.737-0.043-0.059-0.125-0.201-0.184-0.316-0.056-0.115-0.171-0.28-0.253-0.369s-0.145-0.161-0.135-0.161c0.049 0 0.461 0.151 0.593 0.217 0.165 0.082 0.375 0.28 0.405 0.379 0.046 0.142 0.122 0.023 0.122-0.188 0-0.072-0.053-0.207-0.151-0.379-0.082-0.148-0.151-0.28-0.151-0.293s0.158-0.082 0.355-0.151c0.194-0.069 0.464-0.165 0.599-0.214 0.286-0.105 0.296-0.109 0.296-0.059zM9.034 15.214c0.072 0.069 0.082 0.109 0.082 0.296 0 0.118-0.013 0.214-0.030 0.214s-0.092-0.023-0.168-0.049c-0.079-0.026-0.148-0.043-0.155-0.036s0.053 0.158 0.132 0.336c0.138 0.309 0.221 0.632 0.221 0.863 0 0.069 0.023 0.115 0.063 0.138 0.089 0.046 0.148 0.461 0.283 2.051 0.069 0.807 0.072 0.757-0.056 0.731-0.211-0.043-0.23-0.056-0.309-0.234-0.155-0.349-0.372-1.383-0.51-2.433-0.076-0.563-0.109-1.768-0.056-1.903 0.020-0.043 0.066-0.056 0.224-0.056 0.168 0 0.214 0.013 0.28 0.082zM23.585 15.27c0.039 0.036 0.082 0.418 0.082 0.701 0 0.375-0.072 1.001-0.184 1.567-0.171 0.899-0.408 1.906-0.471 2.031-0.036 0.069-0.119 0.168-0.181 0.217-0.102 0.076-0.122 0.082-0.138 0.040-0.010-0.030 0.040-0.695 0.115-1.478 0.148-1.557 0.178-1.718 0.415-2.222 0.079-0.165 0.128-0.303 0.112-0.303-0.089 0-0.257 0.102-0.28 0.171-0.023 0.072-0.023 0.072-0.049 0.010-0.013-0.036-0.026-0.161-0.026-0.273-0.003-0.237 0.059-0.405 0.171-0.464 0.069-0.033 0.398-0.033 0.435 0.003zM20.978 15.837c0.691 0.132 0.994 0.448 1.080 1.113 0.086 0.672-0.198 1.686-0.563 2.011-0.645 0.579-2.133 0.76-3.164 0.385-0.51-0.184-0.797-0.441-1.014-0.902-0.204-0.425-0.306-0.787-0.326-1.126-0.016-0.352 0.020-0.5 0.161-0.629 0.056-0.053 0.135-0.161 0.181-0.25 0.069-0.132 0.112-0.171 0.27-0.24 0.379-0.171 1.159-0.336 1.916-0.408 0.408-0.036 1.136-0.013 1.458 0.046zM13.067 15.985c0.527 0.082 1.086 0.217 1.261 0.306 0.069 0.033 0.151 0.109 0.181 0.165s0.086 0.125 0.119 0.155c0.253 0.211 0.316 0.415 0.26 0.859-0.043 0.339-0.224 0.902-0.395 1.225-0.247 0.474-0.701 0.797-1.261 0.902-0.415 0.079-1.251 0.046-1.682-0.063-0.681-0.178-1.119-0.504-1.383-1.027-0.309-0.625-0.306-1.425 0.010-2.058 0.191-0.379 0.247-0.412 0.915-0.54 0.211-0.040 1.547 0.010 1.975 0.076zM16.626 17.74c0.214 0.678 0.402 1.083 0.632 1.376 0.115 0.145 0.201 0.211 0.421 0.319 0.352 0.178 0.603 0.263 0.948 0.323 0.355 0.063 1.057 0.063 1.6 0 0.836-0.099 1.284-0.267 1.514-0.57 0.072-0.096 0.178-0.204 0.237-0.24 0.089-0.056 0.122-0.119 0.214-0.395 0.086-0.26 0.112-0.313 0.128-0.25 0.056 0.211-0.119 1.985-0.227 2.311-0.099 0.293-0.27 0.533-0.672 0.961-0.464 0.491-0.639 0.724-0.82 1.116-0.418 0.895-0.504 1.060-0.681 1.327-0.26 0.389-0.411 0.593-0.441 0.596-0.033 0-0.036-0.135-0.040-0.955-0.003-0.721-0.010-0.751-0.25-0.968-0.184-0.168-0.253-0.188-0.714-0.221-0.566-0.036-0.751-0.148-0.928-0.556-0.043-0.099-0.086-0.201-0.099-0.227s-0.174-0.092-0.359-0.148c-0.184-0.056-0.333-0.115-0.326-0.135 0.016-0.056 0.23-0.148 0.339-0.148 0.056 0 0.171 0.020 0.257 0.046 0.155 0.046 0.158 0.046 0.263-0.049 0.168-0.148 0.204-0.26 0.155-0.504-0.063-0.306-0.082-0.313-0.151-0.036l-0.063 0.254-0.573-0.046-0.096 0.109c-0.237 0.28-0.632 0.635-0.764 0.691l-0.142 0.063-0.306-0.188c-0.29-0.178-0.306-0.194-0.362-0.362-0.086-0.254-0.178-0.339-0.352-0.339-0.079 0-0.224 0.023-0.323 0.049-0.277 0.076-0.263 0.089-0.267-0.29l-0.003-0.336-0.092 0.197c-0.053 0.109-0.105 0.263-0.115 0.346-0.020 0.142-0.016 0.155 0.128 0.293l0.145 0.145 0.349-0.030c0.191-0.016 0.349-0.023 0.349-0.013 0 0.049-0.102 0.145-0.293 0.27-0.158 0.105-0.237 0.184-0.3 0.303-0.105 0.198-0.336 0.389-0.655 0.54-0.227 0.109-0.263 0.119-0.523 0.112l-0.28-0.007-0.122 0.128c-0.201 0.207-0.263 0.385-0.3 0.84-0.016 0.217-0.046 0.471-0.066 0.56-0.036 0.181-0.227 0.563-0.26 0.523-0.013-0.013-0.072-0.161-0.132-0.323-0.165-0.451-0.5-1.136-0.734-1.491-0.115-0.174-0.369-0.52-0.566-0.764-0.586-0.731-0.757-1.027-0.902-1.547-0.138-0.5-0.263-1.712-0.175-1.712 0.049 0 0.152 0.138 0.237 0.316 0.046 0.089 0.112 0.168 0.178 0.201 0.056 0.026 0.161 0.105 0.237 0.174 0.402 0.369 1.007 0.53 1.989 0.53 0.912 0 1.429-0.125 1.886-0.458 0.148-0.105 0.303-0.211 0.346-0.234 0.040-0.020 0.072-0.053 0.072-0.069s0.082-0.211 0.184-0.435c0.102-0.224 0.273-0.675 0.382-1.007l0.194-0.599h0.882l0.204 0.632zM17.742 23.395c0.988 0.063 1.284 0.267 1.284 0.886 0 0.984-0.609 1.83-1.468 2.031-0.649 0.151-1.129-0.138-1.133-0.688 0-0.277 0.059-0.388 0.296-0.55 0.112-0.076 0.198-0.142 0.191-0.148s-0.122 0.016-0.257 0.053c-0.497 0.132-1.149 0.109-1.537-0.053-0.059-0.026-0.109-0.040-0.109-0.030s0.066 0.082 0.145 0.161c0.201 0.194 0.263 0.326 0.263 0.543-0.007 0.619-0.705 0.882-1.426 0.533-0.227-0.109-0.583-0.454-0.718-0.698-0.145-0.254-0.273-0.655-0.273-0.853 0-0.096 0.043-0.303 0.102-0.487 0.115-0.356 0.217-0.491 0.395-0.517 0.063-0.007 0.425-0.053 0.803-0.102 0.382-0.049 0.714-0.092 0.741-0.099 0.122-0.023 2.268-0.013 2.7 0.016zM21.268 25.394c0.135 0.879 0.119 1.482-0.043 1.804-0.263 0.514-2.788 2.384-4.145 3.065-0.336 0.168-0.833 0.342-0.974 0.342-0.649 0-3.009-1.419-4.504-2.706-0.777-0.668-0.876-0.909-0.76-1.87 0.026-0.244 0.059-0.553 0.072-0.685 0.016-0.191 0.033-0.237 0.076-0.237 0.079 0 0.224 0.161 0.494 0.56 0.128 0.191 0.29 0.385 0.359 0.438 0.211 0.155 0.658 0.616 0.988 1.011 0.596 0.711 1.001 1.073 1.472 1.307 0.586 0.293 1.35 0.415 2.156 0.339 1.281-0.115 1.949-0.523 2.953-1.794 0.382-0.481 0.688-0.797 0.925-0.955 0.102-0.066 0.165-0.145 0.237-0.293 0.089-0.184 0.583-0.797 0.616-0.764 0.007 0.007 0.043 0.204 0.079 0.438z"></path>
      </symbol>


        <!-- User icon -->
      <symbol id="icon-cam"   viewBox="0 0 752 648">
<path d="M376 648H752V324V-1.30832e-05H376H-1.88053e-05V324V648H376ZM20.2733 574.01C24.5166 569.533 47.1473 568.826 54.4552 572.596C58.4627 574.717 58.9342 577.78 58.9342 596.867C58.9342 610.769 57.9912 619.724 56.1053 621.609C52.3335 625.379 23.1022 625.379 19.3304 621.609C14.8514 617.132 15.5586 578.487 20.2733 574.01ZM20.9805 21.2073C23.5736 20.0291 31.1172 18.8509 37.7179 18.8509C57.7555 18.8509 58.9342 20.2647 58.9342 45.4778C58.9342 59.3804 57.9912 68.3345 56.1053 70.2196C54.4552 71.8691 46.6758 73.0473 37.7179 73.0473C28.7599 73.0473 20.9805 71.8691 19.3304 70.2196C17.4445 68.3345 16.5015 59.3804 16.5015 45.4778C16.5015 26.3913 16.973 23.328 20.9805 21.2073ZM379.536 89.5418H730.784V321.644V553.745H379.536H28.2884V321.644V89.5418H379.536ZM105.139 574.01C109.382 569.533 132.013 568.826 139.32 572.596C143.328 574.717 143.799 577.78 143.799 596.867C143.799 610.769 142.856 619.724 140.971 621.609C137.199 625.379 107.967 625.379 104.196 621.609C99.7166 617.132 100.424 578.487 105.139 574.01ZM105.139 22.6211C109.618 18.144 136.727 17.4371 140.971 21.6785C142.856 23.5636 143.799 32.5178 143.799 45.9491C143.799 59.3804 142.856 68.3345 140.971 70.2196C139.32 71.8691 131.777 73.0473 123.526 73.0473C103.253 73.0473 101.367 70.6909 101.367 45.9491C101.367 31.104 102.31 25.2131 105.139 22.6211ZM190.004 575.424C193.068 570.947 195.661 570.24 208.391 570.24C216.642 570.24 224.186 571.418 225.836 573.068C227.722 574.953 228.665 584.143 228.665 598.752C228.665 625.143 229.136 624.436 206.27 624.436C194.483 624.436 190.711 623.494 188.825 620.195C184.818 613.597 185.76 581.551 190.004 575.424ZM190.004 22.6211C194.483 18.144 221.592 17.4371 225.836 21.6785C227.722 23.5636 228.665 32.5178 228.665 45.9491C228.665 59.3804 227.722 68.3345 225.836 70.2196C224.186 71.8691 216.642 73.0473 208.391 73.0473C188.118 73.0473 186.232 70.6909 186.232 45.9491C186.232 31.104 187.175 25.2131 190.004 22.6211ZM275.576 572.596C282.884 568.826 305.515 569.533 309.758 574.01C314.473 578.487 315.18 617.132 310.701 621.609C306.929 625.379 277.698 625.379 273.926 621.609C272.04 619.724 271.097 610.769 271.097 596.867C271.097 577.78 271.569 574.717 275.576 572.596ZM273.926 21.6785C278.169 17.4371 305.279 18.144 309.758 22.6211C314.473 27.0982 315.18 65.7425 310.701 70.2196C306.929 73.9898 277.698 73.9898 273.926 70.2196C272.04 68.3345 271.097 59.3804 271.097 45.9491C271.097 32.5178 272.04 23.5636 273.926 21.6785ZM359.734 574.01C363.977 569.533 386.608 568.826 393.916 572.596C397.924 574.717 398.395 577.78 398.395 596.867C398.395 610.769 397.452 619.724 395.566 621.609C391.794 625.379 362.563 625.379 358.791 621.609C354.312 617.132 355.019 578.487 359.734 574.01ZM360.441 21.2073C363.034 20.0291 370.578 18.8509 377.179 18.8509C397.216 18.8509 398.395 20.2647 398.395 45.4778C398.395 59.3804 397.452 68.3345 395.566 70.2196C393.916 71.8691 386.137 73.0473 377.179 73.0473C368.221 73.0473 360.441 71.8691 358.791 70.2196C356.905 68.3345 355.962 59.3804 355.962 45.4778C355.962 26.3913 356.434 23.328 360.441 21.2073ZM444.599 574.01C448.843 569.533 471.473 568.826 478.781 572.596C482.789 574.717 483.26 577.78 483.26 596.867C483.26 610.769 482.317 619.724 480.431 621.609C478.781 623.258 471.002 624.436 462.044 624.436C453.086 624.436 445.307 623.258 443.656 621.609C439.177 617.132 439.885 578.487 444.599 574.01ZM444.599 22.6211C449.078 18.144 476.188 17.4371 480.431 21.6785C482.317 23.5636 483.26 32.5178 483.26 45.9491C483.26 59.3804 482.317 68.3345 480.431 70.2196C478.781 71.8691 471.002 73.0473 461.572 73.0473C442.006 73.0473 441.063 71.6334 440.828 45.4778C440.828 31.104 441.771 25.2131 444.599 22.6211ZM529.7 574.481C532.529 571.418 536.772 570.24 546.202 570.24C567.182 570.24 568.125 571.418 568.125 596.867C568.125 610.769 567.182 619.724 565.297 621.609C563.646 623.258 555.867 624.436 546.438 624.436C526.871 624.436 525.929 623.023 525.693 597.574C525.693 583.436 526.636 577.78 529.7 574.481ZM529.465 22.6211C533.944 18.144 561.053 17.4371 565.297 21.6785C569.068 25.4487 569.068 66.4494 565.297 70.2196C563.646 71.8691 556.103 73.0473 547.852 73.0473C527.579 73.0473 525.693 70.6909 525.693 45.9491C525.693 31.104 526.636 25.2131 529.465 22.6211ZM615.037 572.596C622.345 568.826 644.976 569.533 649.219 574.01C653.934 578.487 654.641 617.132 650.162 621.609C646.39 625.379 617.159 625.379 613.387 621.609C611.501 619.724 610.558 610.769 610.558 596.867C610.558 577.78 611.029 574.717 615.037 572.596ZM613.387 21.6785C617.63 17.4371 644.74 18.144 649.219 22.6211C653.934 27.0982 654.641 65.7425 650.162 70.2196C646.626 73.7542 621.402 73.9898 615.037 70.6909C611.029 68.5702 610.558 65.5069 610.558 46.4204C610.558 32.5178 611.501 23.5636 613.387 21.6785ZM699.195 574.01C701.552 571.418 707.21 570.24 716.639 570.24C735.97 570.24 737.856 572.596 737.856 598.281C737.856 611.005 736.913 619.724 735.027 621.609C731.255 625.379 702.024 625.379 698.252 621.609C693.773 617.132 694.48 578.487 699.195 574.01ZM699.902 21.2073C702.495 20.0291 710.039 18.8509 716.639 18.8509C736.677 18.8509 737.856 20.2647 737.856 45.4778C737.856 59.3804 736.913 68.3345 735.027 70.2196C733.377 71.8691 725.597 73.0473 716.639 73.0473C707.682 73.0473 699.902 71.8691 698.252 70.2196C696.366 68.3345 695.423 59.3804 695.423 45.4778C695.423 26.3913 695.895 23.328 699.902 21.2073Z" />
<path d="M428.084 118.231C425.784 119.831 422.384 127.931 420.684 135.831C419.684 140.331 419.084 141.131 411.184 146.931C406.084 150.731 402.784 153.831 402.784 154.931C402.784 157.331 401.684 157.231 395.784 153.931L390.884 151.231L385.584 154.031C380.384 156.831 380.084 156.931 372.284 155.831C365.384 154.831 363.684 154.931 359.484 156.431C354.184 158.331 348.784 163.531 348.784 166.731C348.784 168.331 348.084 168.731 345.484 168.731C340.284 168.731 338.584 171.231 339.384 177.931L339.984 183.431L336.784 184.131C331.384 185.131 330.084 184.831 325.784 181.231C320.984 177.231 316.384 175.731 308.784 175.731C303.884 175.731 302.984 175.331 299.584 172.031C294.384 166.931 290.184 165.731 276.784 165.731C266.784 165.731 228.884 168.531 227.884 169.331C227.784 169.431 228.284 170.931 229.084 172.631C230.584 175.631 230.584 175.631 227.384 176.231C225.684 176.631 222.984 177.531 221.284 178.231C219.684 178.931 212.884 179.831 206.284 180.131C199.684 180.431 193.284 180.931 191.984 181.331C190.384 181.731 188.584 184.231 186.084 189.431C182.684 196.331 182.484 197.531 181.984 208.731C181.584 219.331 181.784 221.531 183.784 227.931C186.884 237.231 193.084 246.531 198.284 249.431C207.884 254.831 239.784 259.531 254.184 257.731C258.584 257.231 263.184 255.831 266.784 253.931C272.484 250.931 279.484 249.331 307.784 244.731C318.884 242.931 340.084 238.631 345.184 237.031C346.984 236.531 347.084 236.931 346.484 241.731C345.884 246.831 345.984 247.031 355.284 263.331L364.684 279.731L360.984 281.331C358.984 282.131 351.084 285.031 343.484 287.831C333.084 291.531 328.384 292.731 323.984 292.731C318.784 292.731 304.284 295.931 284.284 301.631C280.484 302.731 276.784 304.331 276.184 305.231C274.584 307.431 260.184 309.231 256.284 307.731C254.884 307.131 248.584 306.731 242.484 306.731C236.284 306.731 228.384 306.231 224.784 305.631C216.284 304.131 196.384 304.131 186.284 305.631C180.384 306.431 176.484 306.531 170.784 305.631C163.984 304.631 162.184 304.731 150.984 307.131C144.284 308.531 138.584 309.731 138.384 309.731C138.184 309.731 136.184 313.831 133.884 318.831C129.984 327.231 129.684 328.331 130.184 334.031C134.684 382.831 136.484 398.931 139.984 425.931L142.184 442.631L148.784 454.931L155.484 467.231L166.884 473.531C195.684 489.431 245.084 513.031 272.284 524.031C288.984 530.731 292.084 531.731 295.784 531.731C300.184 531.731 315.884 523.131 320.184 518.431C321.784 516.631 325.284 512.831 327.884 509.931C330.584 507.031 337.784 500.531 343.984 495.531C350.184 490.531 355.884 485.931 356.584 485.231C357.684 484.331 361.784 458.231 361.784 452.231C361.784 449.631 371.284 440.931 378.084 437.331L383.584 434.431L390.984 436.531C394.984 437.731 399.084 438.731 400.084 438.731C401.084 438.731 407.684 436.231 414.684 433.131L427.484 427.531L435.384 430.031C444.984 433.031 457.084 435.131 460.184 434.331C461.384 434.031 472.084 428.431 483.884 421.931C495.684 415.331 518.584 402.731 534.784 393.731C580.584 368.331 580.084 368.731 581.384 356.431C582.284 347.831 581.384 343.331 578.584 342.031C576.484 341.131 576.484 340.931 580.684 338.231C591.384 331.131 597.484 307.631 594.884 283.231C593.684 271.731 592.584 269.631 584.984 265.231C582.184 263.531 579.584 261.631 579.284 260.831C578.884 259.731 582.884 247.431 589.984 228.431C590.684 226.531 592.784 224.831 596.184 223.031C609.784 216.231 612.484 214.031 616.184 206.731C623.484 192.131 623.184 179.231 615.284 162.831L610.684 153.331L612.384 143.131C613.984 133.531 613.984 132.631 612.384 130.331C610.084 126.831 606.484 124.631 601.484 123.631C596.584 122.731 562.884 121.331 495.784 119.231C469.684 118.431 444.284 117.531 439.284 117.231C432.184 116.731 429.884 117.031 428.084 118.231ZM453.284 122.631C477.584 123.731 502.984 124.531 552.784 125.731C587.284 126.531 594.784 127.331 594.784 130.031C594.784 132.931 585.584 162.231 573.784 196.731C566.484 217.931 559.684 238.031 558.484 241.531L556.384 247.831L551.784 247.331C549.284 247.031 541.184 246.131 533.784 245.231C526.384 244.331 512.884 242.831 503.784 241.731C494.684 240.631 481.684 239.031 474.784 238.131C417.584 231.231 398.084 228.731 396.584 228.231C395.584 227.831 394.784 227.031 394.784 226.431C394.784 225.731 402.584 201.931 412.084 173.531C424.584 135.831 429.684 121.731 430.784 121.731C431.584 121.731 441.784 122.131 453.284 122.631ZM396.984 156.231C399.484 157.931 402.084 158.731 404.984 158.731H409.284L406.784 160.731C405.284 162.031 403.284 162.631 401.784 162.331C400.384 162.131 397.684 161.631 395.684 161.231L392.084 160.531L390.884 171.431C389.184 186.331 388.684 189.731 387.784 189.731C387.384 189.731 387.384 188.031 387.884 185.931C389.084 180.931 388.984 170.031 387.784 165.831C387.284 163.931 385.884 161.431 384.784 160.231L382.684 157.931L385.484 155.931C389.184 153.131 392.584 153.231 396.984 156.231ZM371.284 158.231C376.284 160.231 377.084 163.231 375.284 172.031C373.084 182.431 372.184 185.331 369.884 188.631C367.984 191.331 361.184 195.431 360.184 194.431C359.984 194.231 361.084 191.431 362.784 188.231C365.284 183.531 365.784 181.331 365.784 175.731C365.784 171.931 365.384 167.731 364.784 166.331C363.484 162.731 359.784 161.231 355.784 162.531C350.984 164.231 352.384 161.731 357.784 158.931C362.884 156.331 366.484 156.131 371.284 158.231ZM270.784 168.731C267.784 169.231 260.584 169.531 254.784 169.431C244.384 169.331 244.284 169.331 251.784 168.731C255.884 168.331 263.084 168.031 267.784 168.031C275.784 168.031 275.884 168.031 270.784 168.731ZM297.984 172.431C298.984 173.331 299.984 174.831 300.284 175.831C300.784 177.431 301.984 177.731 307.084 177.731C315.284 177.731 320.084 179.231 324.384 182.931C329.084 187.131 331.684 192.431 332.484 199.731C332.984 204.731 333.584 206.231 335.984 208.231C339.084 210.831 341.084 211.331 352.684 212.231C359.984 212.731 368.784 215.731 368.784 217.531C368.784 218.131 367.684 218.831 366.384 219.131C365.084 219.431 361.384 222.531 358.084 226.031C351.484 233.131 351.184 233.231 326.284 238.731C318.584 240.431 311.484 242.031 310.584 242.331C309.684 242.631 310.584 241.131 312.684 239.031C318.284 233.431 320.984 225.431 321.484 212.731C322.084 199.931 319.984 192.831 314.084 187.631C306.784 181.231 301.784 180.631 279.784 183.231C272.884 184.031 267.084 184.731 266.884 184.731C266.684 184.731 268.884 186.831 271.684 189.331C283.184 199.631 286.184 212.931 281.784 233.431C280.284 240.531 274.184 247.231 265.184 251.831C258.684 255.031 257.884 255.231 246.384 255.531C239.684 255.631 232.284 255.431 229.784 254.931C226.384 254.331 228.584 254.131 238.284 254.231C250.384 254.231 251.584 254.031 255.784 251.731C265.284 246.331 270.284 235.631 270.284 220.231C270.184 209.731 267.984 203.631 261.984 197.431C255.684 190.931 250.384 189.631 225.784 188.631C201.784 187.631 194.984 187.031 192.784 185.731C190.184 184.131 196.184 182.831 209.584 182.131C219.184 181.631 222.784 181.031 224.184 179.831C225.684 178.531 229.684 178.131 247.184 177.631C258.784 177.331 273.584 176.431 280.084 175.731C291.884 174.331 291.884 174.331 291.284 171.931C290.684 169.631 290.884 169.531 293.484 170.231C294.984 170.531 297.084 171.631 297.984 172.431ZM381.484 199.231C387.484 199.631 393.984 200.231 396.184 200.531L399.984 201.231L398.084 203.531L396.184 205.931L382.784 204.231C364.784 202.031 362.784 201.731 362.784 201.031C362.784 200.731 364.284 198.831 366.084 196.831L369.284 193.231L369.984 195.831C370.784 198.431 370.984 198.531 381.484 199.231ZM400.384 242.131C403.384 243.831 407.484 244.831 414.884 245.631C427.884 247.231 439.084 248.731 439.484 249.031C439.584 249.231 430.784 250.331 419.784 251.731C403.384 253.731 399.684 253.931 398.384 252.831C396.984 251.731 393.784 243.031 393.784 240.531C393.784 239.131 396.184 239.731 400.384 242.131ZM477.084 260.531C484.984 264.431 498.684 276.931 505.384 286.331C515.484 300.431 519.884 315.631 519.884 335.531C519.784 352.831 517.084 367.131 513.684 368.231C510.284 369.331 506.784 377.031 504.784 387.831C500.484 410.631 500.784 409.731 496.884 412.131C494.884 413.431 489.484 416.631 484.784 419.231C480.084 421.831 475.384 424.631 474.184 425.431C472.184 426.731 472.084 426.631 472.584 421.231C472.884 417.531 472.484 413.731 471.284 410.031C468.984 402.931 469.584 393.431 473.284 377.731C475.684 367.331 475.884 364.831 475.484 351.731C475.184 339.831 474.584 335.631 472.384 328.231C468.984 316.631 461.384 300.931 455.284 292.931C446.084 280.731 432.384 271.531 421.084 270.131C414.484 269.331 414.584 267.831 421.384 266.031C424.084 265.331 432.784 262.931 440.784 260.731C459.584 255.631 466.984 255.531 477.084 260.531ZM526.784 260.731C541.684 262.731 541.884 262.431 520.884 268.831C510.184 272.131 500.984 274.731 500.284 274.731C498.784 274.731 493.784 267.731 493.784 265.631C493.784 263.831 512.784 258.631 516.784 259.331C518.184 259.531 522.684 260.131 526.784 260.731ZM561.284 265.531C573.284 267.331 577.884 269.131 579.784 272.831C580.384 273.831 581.684 278.331 582.784 282.931C585.484 294.331 585.484 313.131 582.784 324.331C579.184 339.531 581.184 337.831 550.584 351.331C535.784 357.931 523.284 363.331 522.884 363.531C522.484 363.631 522.784 359.831 523.484 355.031C525.584 340.431 526.184 318.131 524.884 308.731C522.884 295.031 521.084 291.931 510.584 284.231C505.584 280.631 501.884 277.331 502.284 276.931C503.584 275.531 542.384 263.931 545.784 263.831C547.684 263.831 554.684 264.631 561.284 265.531ZM440.184 285.531C450.184 292.831 462.084 312.231 466.784 328.731C469.684 339.231 470.484 355.131 468.384 364.731C464.384 383.631 451.484 400.931 434.984 409.531C430.484 411.931 426.784 413.631 426.784 413.531C426.784 413.331 428.984 410.731 431.784 407.731C437.684 401.331 444.084 389.431 446.484 380.631C447.584 376.231 448.184 370.031 448.184 361.231C448.284 346.831 446.484 338.731 440.784 325.931C436.984 317.631 424.684 299.131 417.884 291.531C415.084 288.431 413.084 285.631 413.484 285.431C413.984 285.231 416.884 284.631 420.084 284.331C426.084 283.531 426.884 282.531 424.284 279.131C423.484 278.131 422.784 276.931 422.784 276.431C422.784 275.331 434.684 281.531 440.184 285.531ZM365.184 286.331C386.984 291.931 406.484 311.231 417.184 337.731C421.984 349.531 423.784 359.431 423.784 373.731C423.784 396.831 418.184 413.031 407.284 421.231C404.184 423.631 380.784 434.131 380.784 433.131C380.784 432.831 382.084 430.031 383.784 426.831C388.784 416.731 390.884 407.631 391.484 393.031C392.184 377.231 390.784 366.731 386.584 354.831C380.084 336.231 371.584 322.331 359.684 310.531C353.584 304.431 350.184 302.031 342.884 298.531L333.884 294.131L345.584 289.531C351.984 286.931 357.684 284.831 358.184 284.831C358.584 284.731 361.784 285.431 365.184 286.331ZM307.184 305.131C328.584 312.831 349.084 333.631 358.684 357.331C364.384 371.331 366.284 381.731 366.284 398.231C366.284 407.831 365.684 415.331 364.784 419.231L363.284 425.231L363.084 421.231C362.584 414.031 359.684 392.531 357.084 376.731C354.884 363.031 353.984 360.131 349.784 351.231C344.184 339.431 342.284 337.331 331.484 331.031C326.984 328.431 320.684 323.931 317.484 321.131C308.084 312.431 295.984 306.831 284.284 305.531C281.384 305.231 281.384 305.131 285.784 303.531C291.384 301.331 298.284 301.831 307.184 305.131ZM180.284 309.831C184.184 310.831 193.184 313.231 200.284 315.131C207.484 317.031 223.184 321.031 235.284 324.231C247.384 327.331 261.984 331.131 267.784 332.731C273.584 334.231 283.884 336.931 290.784 338.731C299.884 341.131 304.084 342.731 306.184 344.631C311.084 349.131 317.784 358.431 320.684 364.931C323.384 370.731 323.684 372.731 324.684 390.231C325.284 400.631 326.484 420.731 327.284 434.731C328.084 448.731 329.284 468.531 329.784 478.731C330.384 488.931 330.984 498.431 331.284 499.831C331.584 501.931 330.084 503.931 321.984 512.131C310.884 523.231 300.884 529.731 294.884 529.731C288.484 529.731 237.984 507.631 195.084 486.031C171.284 474.131 161.584 468.631 174.284 474.231C228.284 498.331 289.384 522.731 295.584 522.731C298.284 522.731 307.884 515.531 309.884 512.031C310.784 510.231 310.784 505.331 309.884 488.531C309.284 476.831 307.984 455.331 307.184 440.731C306.384 426.131 305.484 407.031 305.184 398.231L304.584 382.231L299.484 372.731C291.584 357.831 286.084 349.831 283.084 348.631C278.584 346.931 228.084 333.331 203.784 327.331C179.884 321.431 155.184 316.331 144.984 315.131C134.884 314.031 137.584 311.131 151.184 308.531C161.684 306.531 169.984 306.931 180.284 309.831ZM177.984 324.231C203.184 330.231 232.684 338.231 255.384 345.331C263.584 347.831 272.584 350.631 275.484 351.431C280.184 352.831 281.084 353.531 285.184 359.831C287.784 363.631 289.384 366.731 288.884 366.731C288.384 366.731 277.284 363.731 264.184 360.131C250.984 356.431 238.984 353.131 237.284 352.731C235.684 352.331 227.584 350.031 219.284 347.731C170.284 333.931 150.584 328.631 149.984 329.231C149.484 329.631 150.484 340.231 153.284 363.731C156.084 387.331 158.684 409.231 160.284 424.231C161.184 432.431 162.484 440.231 162.984 441.431C163.784 443.031 168.784 445.631 180.684 450.731C189.784 454.631 221.184 468.331 250.284 481.031C305.884 505.431 305.884 505.431 302.584 510.031C301.084 512.131 306.184 514.231 214.984 473.731C159.584 449.131 155.484 447.131 153.284 443.831C151.484 441.031 150.684 437.331 149.384 426.231C148.484 418.531 147.084 406.631 146.284 399.731C145.384 392.831 143.584 377.331 142.184 365.231C140.784 353.131 139.284 340.531 138.784 337.231C137.984 331.331 138.084 331.131 142.084 324.431L146.084 317.531L150.684 318.231C153.184 318.631 165.484 321.331 177.984 324.231ZM170.784 335.831C174.884 337.031 181.484 338.731 185.284 339.831C189.184 340.831 195.084 342.431 198.584 343.331C201.984 344.231 204.784 345.531 204.784 346.131C204.784 347.331 206.884 375.531 209.284 406.131C210.084 416.531 210.384 425.531 210.084 426.131C207.084 431.131 201.184 436.731 198.384 437.131C191.384 438.131 171.584 439.831 171.184 439.431C170.684 438.931 169.784 431.131 166.784 402.231C164.984 384.131 163.584 370.531 160.784 344.031C159.484 332.131 159.484 332.431 161.484 333.131C162.484 333.531 166.584 334.731 170.784 335.831ZM222.284 350.931C222.484 351.631 223.384 366.431 224.384 383.731C225.384 403.531 226.484 415.631 227.184 416.331C228.584 417.731 248.684 425.131 249.284 424.531C249.584 424.331 248.184 421.131 246.184 417.431C238.084 402.031 233.084 380.331 234.084 364.431C234.384 359.531 235.184 354.931 235.684 354.431C236.484 353.631 236.784 357.431 236.784 367.031C236.784 386.731 240.684 403.331 248.984 418.931C252.584 425.731 253.884 427.031 259.784 429.031C262.284 429.831 267.984 431.931 272.584 433.631C277.084 435.331 280.784 436.531 280.784 436.331C280.784 436.131 278.584 434.531 275.784 432.731C259.684 422.431 249.184 401.531 247.184 375.631C246.484 367.031 247.284 357.731 248.584 357.731C248.984 357.731 249.384 363.031 249.484 369.631C249.884 395.831 259.384 417.431 276.784 431.631C279.784 434.031 282.184 436.531 281.984 437.031C281.884 437.431 282.184 437.631 282.784 437.231C283.384 436.831 285.284 437.431 287.184 438.531C288.984 439.531 292.784 441.231 295.584 442.131C299.384 443.431 300.784 444.431 300.784 445.731C300.784 447.331 298.984 446.931 286.584 442.031C278.684 439.031 268.684 435.231 264.284 433.531C259.884 431.931 253.584 429.531 250.284 428.231C246.984 427.031 239.784 424.331 234.284 422.231C228.784 420.131 223.984 418.231 223.684 417.831C222.984 417.231 219.684 363.531 219.784 354.431C219.784 350.131 221.284 348.031 222.284 350.931ZM276.284 367.031L290.284 371.331L293.984 376.831L297.584 382.331L298.684 401.331C299.284 411.731 300.084 422.631 300.384 425.431C301.084 431.931 300.484 432.031 291.784 426.931C279.184 419.631 267.384 404.931 263.884 392.231C261.984 385.431 260.784 373.731 261.384 368.131C261.784 365.131 262.084 362.731 262.184 362.731C262.184 362.731 268.584 364.731 276.284 367.031Z" />
      </symbol>



  </defs>
</svg>
