<svg xmlns="http://www.w3.org/2000/svg" aria-hidden="true" style="position:absolute;width:0;height:0;overflow:hidden">
  <defs>
        <!-- Кнопка закриття на модалках -->
    <symbol id="close" viewBox="0 0 32 32">
<path d="M5.86 4.040l-1.82 1.82 10.14 10.14-10.2 10.22 1.8 1.8 10.22-10.2 10.2 10.2 1.82-1.82-10.2-10.2 10.14-10.14-1.82-1.82-10.14 10.14z"></path>
</symbol>
        <!-- Сердечко в футтері -->
    <symbol id="favorite" viewBox="0 0 34 32">
      <path d="m17.231 31.704-2.412-2.412C5.859 21.366.001 16.024.001 9.477.001 4.135 4.136 0 9.478 0c2.929 0 5.858 1.378 7.754 3.618C19.127 1.378 22.057 0 24.986 0c5.342 0 9.477 4.135 9.477 9.477 0 6.548-5.858 11.889-14.818 19.815l-2.412 2.412z"/>
    </symbol>
        <!-- Значок фільм -->
    <symbol id="film" viewBox="0 0 32 32">
      <path stroke-linecap="round" stroke-linejoin="round" stroke-width="2" d="M26.427 2.667H5.574a2.907 2.907 0 0 0-2.907 2.907v20.853a2.907 2.907 0 0 0 2.907 2.907h20.853a2.907 2.907 0 0 0 2.907-2.907V5.574a2.907 2.907 0 0 0-2.907-2.907zM9.333 2.667v26.667M22.667 2.667v26.667M2.667 16h26.667M2.667 9.334h6.667M2.667 22.666h6.667M22.667 22.666h6.667M22.667 9.334h6.667"/>
    </symbol>
        <!-- Значок пошук -->
    <symbol id="search" viewBox="0 0 32 32">
      <path stroke-linecap="round" stroke-linejoin="round" stroke-width="2.286" d="M14.667 25.333c5.891 0 10.667-4.776 10.667-10.667S20.558 3.999 14.667 3.999 4 8.775 4 14.666s4.776 10.667 10.667 10.667zM27.999 28l-5.8-5.8"/>
    </symbol>
        <!-- Logo Linkedin -->
    <symbol id="linkedin" viewBox="0 0 32 32">
     <path d="M7.449 10.295h-6.424c-0.285 0-0.516 0.231-0.516 0.516v20.638c0 0.285 0.231 0.516 0.516 0.516h6.424c0.285 0 0.516-0.231 0.516-0.516v-20.638c0-0.285-0.231-0.516-0.516-0.516z"></path>
     <path d="M4.239 0.035c-2.337 0-4.239 1.9-4.239 4.234 0 2.336 1.902 4.236 4.239 4.236 2.336 0 4.236-1.9 4.236-4.236s-1.9-4.234-4.236-4.234z"></path>
     <path d="M23.789 9.782c-2.58 0-4.487 1.109-5.644 2.369v-1.34c0-0.285-0.231-0.516-0.516-0.516h-6.152c-0.285 0-0.516 0.231-0.516 0.516v20.638c0 0.285 0.231 0.516 0.516 0.516h6.41c0.285 0 0.516-0.231 0.516-0.516v-10.211c0-3.441 0.935-4.781 3.333-4.781 2.612 0 2.82 2.149 2.82 4.958v10.034c0 0.285 0.231 0.516 0.516 0.516h6.412c0.285 0 0.516-0.231 0.516-0.516v-11.32c0-5.116-0.976-10.347-8.211-10.347z"></path>
     </symbol>
        <!-- Logo GitHub -->
     <symbol id="github" viewBox="0 0 32 32">
     <path d="M16 0c-8.84 0-16 7.16-16 16 0 7.080 4.58 13.060 10.94 15.18 0.8 0.14 1.1-0.34 1.1-0.76 0-0.38-0.020-1.64-0.020-2.98-4.020 0.74-5.060-0.98-5.38-1.88-0.18-0.46-0.96-1.88-1.64-2.26-0.56-0.3-1.36-1.040-0.020-1.060 1.26-0.020 2.16 1.16 2.46 1.64 1.44 2.42 3.74 1.74 4.66 1.32 0.14-1.040 0.56-1.74 1.020-2.14-3.56-0.4-7.28-1.78-7.28-7.9 0-1.74 0.62-3.18 1.64-4.3-0.16-0.4-0.72-2.040 0.16-4.24 0 0 1.34-0.42 4.4 1.64 1.28-0.36 2.64-0.54 4-0.54s2.72 0.18 4 0.54c3.060-2.080 4.4-1.64 4.4-1.64 0.88 2.2 0.32 3.84 0.16 4.24 1.020 1.12 1.64 2.54 1.64 4.3 0 6.14-3.74 7.5-7.3 7.9 0.58 0.5 1.080 1.46 1.080 2.96 0 2.14-0.020 3.86-0.020 4.4 0 0.42 0.3 0.92 1.1 0.76 6.32-2.12 10.9-8.12 10.9-15.18 0-8.84-7.16-16-16-16z"></path>
     </symbol>
        <!-- Trailer Logo -->
      <symbol id="youtube" viewBox="0 0 32 32">
      <path d="M31.331 8.248c-0.377-1.389-1.444-2.462-2.801-2.841l-0.028-0.007c-2.495-0.673-12.501-0.673-12.501-0.673s-10.007 0-12.503 0.673c-1.384 0.387-2.451 1.46-2.821 2.82l-0.007 0.028c-0.669 2.512-0.669 7.752-0.669 7.752s0 5.24 0.669 7.752c0.377 1.389 1.444 2.462 2.801 2.841l0.028 0.007c2.495 0.673 12.501 0.673 12.501 0.673s10.007 0 12.503-0.673c1.385-0.386 2.452-1.459 2.823-2.82l0.007-0.028c0.668-2.512 0.668-7.752 0.668-7.752s0-5.24-0.669-7.752zM12.727 20.757v-9.515l8.364 4.757-8.364 4.757z"></path>
      </symbol>
      <symbol id="youtube-logo" viewBox="0 0 48 32">
      <path fill="#f00" style="fill: var(--color1, #f00)" d="M41.69 7.055c-0.425-1.599-1.676-2.858-3.265-3.285-2.879-0.777-14.425-0.777-14.425-0.777s-11.546 0-14.425 0.777c-1.589 0.427-2.84 1.687-3.265 3.285-0.771 2.898-0.771 8.945-0.771 8.945s0 6.047 0.771 8.945c0.424 1.599 1.676 2.858 3.264 3.286 2.879 0.776 14.425 0.776 14.425 0.776s11.546 0 14.425-0.776c1.589-0.428 2.84-1.687 3.265-3.286 0.772-2.898 0.772-8.945 0.772-8.945s0-6.047-0.772-8.945z"></path>
      <path fill="#fff" style="fill: var(--color2, #fff)" d="M20.224 21.49l9.65-5.49-9.65-5.49z"></path>
      </symbol>
        <!-- Lens icon -->
     <symbol id="icon-lens" viewBox="0 0 32 32">
<path stroke-linejoin="round" stroke-linecap="round" stroke-miterlimit="4" stroke-width="2.2857" d="M14.667 25.333c5.891 0 10.667-4.776 10.667-10.667s-4.776-10.667-10.667-10.667c-5.891 0-10.667 4.776-10.667 10.667s4.776 10.667 10.667 10.667z"></path>
<path stroke-linejoin="round" stroke-linecap="round" stroke-miterlimit="4" stroke-width="2.2857" d="M27.999 28l-5.8-5.8"></path>
</symbol>
        <!-- User icon -->
      <symbol id="icon-user" viewBox="0 0 32 32">
      <path d="M16.837 3.030c-0.109 0.023-0.375 0.095-0.593 0.158-0.471 0.142-0.744 0.178-1.597 0.224-1.244 0.066-1.719 0.151-2.235 0.398-0.385 0.184-0.737 0.54-1.159 1.165-0.375 0.556-0.705 0.905-1.248 1.327-0.76 0.593-0.839 0.797-0.79 2.031 0.013 0.336 0.010 0.382-0.079 0.639-0.092 0.263-0.095 0.283-0.059 0.504 0.023 0.125 0.063 0.27 0.089 0.323 0.066 0.128 0.063 0.329-0.016 0.823-0.036 0.227-0.082 0.658-0.105 0.961-0.040 0.566-0.033 0.784 0.079 2.568 0.020 0.339 0.026 0.629 0.013 0.642-0.013 0.016-0.201 0.033-0.415 0.043-0.217 0.010-0.402 0.030-0.415 0.043-0.118 0.115-0.181 1.119-0.115 1.824 0.105 1.1 0.458 2.706 0.681 3.095 0.069 0.119 0.112 0.151 0.375 0.26 0.165 0.066 0.306 0.132 0.313 0.145 0.010 0.013 0.059 0.415 0.115 0.892 0.191 1.672 0.313 2.166 0.751 3.042 0.23 0.458 0.24 0.566 0.135 1.449-0.046 0.375-0.079 0.843-0.079 1.086 0 0.411 0.003 0.435 0.096 0.602 0.122 0.214 0.724 0.807 1.258 1.235 1.287 1.024 2.983 2.067 3.822 2.347 0.451 0.151 0.836 0.076 1.607-0.316 0.876-0.445 1.962-1.185 3.276-2.235 0.681-0.543 1.024-0.892 1.113-1.133 0.092-0.24 0.092-0.346-0.013-1.225-0.151-1.31-0.155-1.261 0.109-1.89 0.352-0.846 0.533-1.686 0.691-3.177l0.056-0.556 0.119-0.069c0.063-0.040 0.221-0.115 0.346-0.168 0.375-0.161 0.405-0.247 0.803-2.324 0.257-1.343 0.309-1.771 0.267-2.127-0.066-0.52-0.3-0.734-0.807-0.734h-0.247v-0.833c0-0.461 0.010-1.258 0.023-1.778l0.020-0.942 0.112 0.086c0.184 0.142 0.352 0.412 0.553 0.882 0.313 0.737 0.52 0.902 1.175 0.932 0.191 0.007 0.418 0.003 0.504-0.007 0.204-0.033 0.165-0.076-0.237-0.267-0.714-0.342-0.863-0.681-0.866-1.975 0-0.296-0.023-0.626-0.053-0.823-0.040-0.244-0.053-0.53-0.049-1.086 0.003-0.856-0.013-0.955-0.217-1.294-0.069-0.115-0.217-0.309-0.333-0.435-0.112-0.125-0.204-0.234-0.204-0.244 0-0.030 0.362 0.105 0.491 0.184 0.207 0.125 0.392 0.29 0.57 0.507 0.092 0.115 0.174 0.204 0.184 0.198 0.033-0.036-0.151-0.543-0.26-0.714-0.197-0.306-0.415-0.438-1.129-0.688-0.198-0.072-0.372-0.142-0.385-0.155-0.016-0.016 0.138-0.102 0.342-0.191 0.365-0.161 0.369-0.165 0.234-0.175-0.076-0.007-0.26 0.023-0.411 0.063s-0.405 0.079-0.563 0.086c-0.283 0.020-0.286 0.020-0.385-0.082-0.056-0.056-0.102-0.128-0.102-0.165 0-0.092 0.227-0.165 0.639-0.207 0.178-0.016 0.395-0.059 0.484-0.095 0.168-0.063 0.471-0.227 0.451-0.247-0.007-0.003-0.165 0.003-0.352 0.023-0.543 0.049-0.553 0.040-0.188-0.168 0.711-0.405 0.849-0.672 0.563-1.077-0.063-0.089-0.115-0.155-0.119-0.145 0 0.010-0.007 0.079-0.016 0.158-0.033 0.323-0.224 0.556-0.576 0.705-0.158 0.066-0.23 0.076-0.688 0.076s-0.543-0.010-0.836-0.092c-0.589-0.165-1.040-0.388-1.587-0.8-0.372-0.277-0.402-0.29-0.793-0.392-0.402-0.105-0.665-0.23-0.899-0.425-0.277-0.23-0.428-0.293-0.757-0.303-0.155-0.007-0.369 0.010-0.477 0.033zM23.378 7.764c0.109 0.056 0.244 0.161 0.303 0.23 0.132 0.151 0.24 0.464 0.27 0.774l0.020 0.224-0.181-0.267c-0.303-0.444-0.672-1.067-0.632-1.067 0.013 0 0.112 0.046 0.221 0.105zM21.791 9.67c0 0.020-0.099 0.132-0.217 0.247l-0.221 0.207 0.036 0.125c0.016 0.069 0.109 0.375 0.201 0.678 0.217 0.721 0.323 1.241 0.365 1.85 0.049 0.734 0.086 0.915 0.25 1.267 0.165 0.362 0.204 0.527 0.234 1.044 0.020 0.352 0.016 0.372-0.043 0.372-0.033 0-0.537-0.023-1.116-0.049s-1.126-0.049-1.218-0.053l-0.165-0.003 0.145-0.066c0.23-0.105 0.55-0.138 0.899-0.095 0.26 0.033 0.741 0.132 0.928 0.188 0.056 0.020 0.053 0.010-0.016-0.118-0.043-0.072-0.151-0.207-0.247-0.296-0.527-0.5-1.267-0.553-2.647-0.194-1.136 0.293-1.472 0.448-1.584 0.714-0.115 0.277-0.342 0.382-0.948 0.438-0.405 0.040-1.36-0.007-1.379-0.066-0.003-0.013-0.056-0.105-0.115-0.201-0.086-0.142-0.145-0.194-0.319-0.283-0.471-0.24-1.462-0.514-2.255-0.626-0.477-0.063-1.073-0.049-1.307 0.033-0.158 0.059-0.451 0.333-0.57 0.537-0.036 0.059-0.109 0.128-0.165 0.155-0.109 0.053-0.573 0.125-0.616 0.099-0.046-0.030 0.003-0.737 0.069-1.017 0.224-0.951 0.207-0.813 0.217-1.893 0.007-1.077 0.036-1.363 0.197-1.85l0.076-0.237-0.112-0.138c-0.066-0.079-0.184-0.194-0.263-0.26-0.082-0.069-0.142-0.128-0.135-0.135 0.016-0.016 0.747 0.198 1.593 0.464 1.119 0.359 1.742 0.504 2.792 0.658 1.478 0.217 1.814 0.198 3.539-0.201 0.54-0.125 0.681-0.148 0.892-0.138 0.411 0.023 0.849 0.27 1.244 0.704 0.174 0.191 0.293 0.408 0.438 0.8 0.043 0.119 0.099 0.221 0.122 0.227 0.039 0.013 0.043-0.082 0.026-0.616-0.023-0.599-0.026-0.639-0.102-0.737-0.043-0.059-0.125-0.201-0.184-0.316-0.056-0.115-0.171-0.28-0.253-0.369s-0.145-0.161-0.135-0.161c0.049 0 0.461 0.151 0.593 0.217 0.165 0.082 0.375 0.28 0.405 0.379 0.046 0.142 0.122 0.023 0.122-0.188 0-0.072-0.053-0.207-0.151-0.379-0.082-0.148-0.151-0.28-0.151-0.293s0.158-0.082 0.355-0.151c0.194-0.069 0.464-0.165 0.599-0.214 0.286-0.105 0.296-0.109 0.296-0.059zM9.034 15.214c0.072 0.069 0.082 0.109 0.082 0.296 0 0.118-0.013 0.214-0.030 0.214s-0.092-0.023-0.168-0.049c-0.079-0.026-0.148-0.043-0.155-0.036s0.053 0.158 0.132 0.336c0.138 0.309 0.221 0.632 0.221 0.863 0 0.069 0.023 0.115 0.063 0.138 0.089 0.046 0.148 0.461 0.283 2.051 0.069 0.807 0.072 0.757-0.056 0.731-0.211-0.043-0.23-0.056-0.309-0.234-0.155-0.349-0.372-1.383-0.51-2.433-0.076-0.563-0.109-1.768-0.056-1.903 0.020-0.043 0.066-0.056 0.224-0.056 0.168 0 0.214 0.013 0.28 0.082zM23.585 15.27c0.039 0.036 0.082 0.418 0.082 0.701 0 0.375-0.072 1.001-0.184 1.567-0.171 0.899-0.408 1.906-0.471 2.031-0.036 0.069-0.119 0.168-0.181 0.217-0.102 0.076-0.122 0.082-0.138 0.040-0.010-0.030 0.040-0.695 0.115-1.478 0.148-1.557 0.178-1.718 0.415-2.222 0.079-0.165 0.128-0.303 0.112-0.303-0.089 0-0.257 0.102-0.28 0.171-0.023 0.072-0.023 0.072-0.049 0.010-0.013-0.036-0.026-0.161-0.026-0.273-0.003-0.237 0.059-0.405 0.171-0.464 0.069-0.033 0.398-0.033 0.435 0.003zM20.978 15.837c0.691 0.132 0.994 0.448 1.080 1.113 0.086 0.672-0.198 1.686-0.563 2.011-0.645 0.579-2.133 0.76-3.164 0.385-0.51-0.184-0.797-0.441-1.014-0.902-0.204-0.425-0.306-0.787-0.326-1.126-0.016-0.352 0.020-0.5 0.161-0.629 0.056-0.053 0.135-0.161 0.181-0.25 0.069-0.132 0.112-0.171 0.27-0.24 0.379-0.171 1.159-0.336 1.916-0.408 0.408-0.036 1.136-0.013 1.458 0.046zM13.067 15.985c0.527 0.082 1.086 0.217 1.261 0.306 0.069 0.033 0.151 0.109 0.181 0.165s0.086 0.125 0.119 0.155c0.253 0.211 0.316 0.415 0.26 0.859-0.043 0.339-0.224 0.902-0.395 1.225-0.247 0.474-0.701 0.797-1.261 0.902-0.415 0.079-1.251 0.046-1.682-0.063-0.681-0.178-1.119-0.504-1.383-1.027-0.309-0.625-0.306-1.425 0.010-2.058 0.191-0.379 0.247-0.412 0.915-0.54 0.211-0.040 1.547 0.010 1.975 0.076zM16.626 17.74c0.214 0.678 0.402 1.083 0.632 1.376 0.115 0.145 0.201 0.211 0.421 0.319 0.352 0.178 0.603 0.263 0.948 0.323 0.355 0.063 1.057 0.063 1.6 0 0.836-0.099 1.284-0.267 1.514-0.57 0.072-0.096 0.178-0.204 0.237-0.24 0.089-0.056 0.122-0.119 0.214-0.395 0.086-0.26 0.112-0.313 0.128-0.25 0.056 0.211-0.119 1.985-0.227 2.311-0.099 0.293-0.27 0.533-0.672 0.961-0.464 0.491-0.639 0.724-0.82 1.116-0.418 0.895-0.504 1.060-0.681 1.327-0.26 0.389-0.411 0.593-0.441 0.596-0.033 0-0.036-0.135-0.040-0.955-0.003-0.721-0.010-0.751-0.25-0.968-0.184-0.168-0.253-0.188-0.714-0.221-0.566-0.036-0.751-0.148-0.928-0.556-0.043-0.099-0.086-0.201-0.099-0.227s-0.174-0.092-0.359-0.148c-0.184-0.056-0.333-0.115-0.326-0.135 0.016-0.056 0.23-0.148 0.339-0.148 0.056 0 0.171 0.020 0.257 0.046 0.155 0.046 0.158 0.046 0.263-0.049 0.168-0.148 0.204-0.26 0.155-0.504-0.063-0.306-0.082-0.313-0.151-0.036l-0.063 0.254-0.573-0.046-0.096 0.109c-0.237 0.28-0.632 0.635-0.764 0.691l-0.142 0.063-0.306-0.188c-0.29-0.178-0.306-0.194-0.362-0.362-0.086-0.254-0.178-0.339-0.352-0.339-0.079 0-0.224 0.023-0.323 0.049-0.277 0.076-0.263 0.089-0.267-0.29l-0.003-0.336-0.092 0.197c-0.053 0.109-0.105 0.263-0.115 0.346-0.020 0.142-0.016 0.155 0.128 0.293l0.145 0.145 0.349-0.030c0.191-0.016 0.349-0.023 0.349-0.013 0 0.049-0.102 0.145-0.293 0.27-0.158 0.105-0.237 0.184-0.3 0.303-0.105 0.198-0.336 0.389-0.655 0.54-0.227 0.109-0.263 0.119-0.523 0.112l-0.28-0.007-0.122 0.128c-0.201 0.207-0.263 0.385-0.3 0.84-0.016 0.217-0.046 0.471-0.066 0.56-0.036 0.181-0.227 0.563-0.26 0.523-0.013-0.013-0.072-0.161-0.132-0.323-0.165-0.451-0.5-1.136-0.734-1.491-0.115-0.174-0.369-0.52-0.566-0.764-0.586-0.731-0.757-1.027-0.902-1.547-0.138-0.5-0.263-1.712-0.175-1.712 0.049 0 0.152 0.138 0.237 0.316 0.046 0.089 0.112 0.168 0.178 0.201 0.056 0.026 0.161 0.105 0.237 0.174 0.402 0.369 1.007 0.53 1.989 0.53 0.912 0 1.429-0.125 1.886-0.458 0.148-0.105 0.303-0.211 0.346-0.234 0.040-0.020 0.072-0.053 0.072-0.069s0.082-0.211 0.184-0.435c0.102-0.224 0.273-0.675 0.382-1.007l0.194-0.599h0.882l0.204 0.632zM17.742 23.395c0.988 0.063 1.284 0.267 1.284 0.886 0 0.984-0.609 1.83-1.468 2.031-0.649 0.151-1.129-0.138-1.133-0.688 0-0.277 0.059-0.388 0.296-0.55 0.112-0.076 0.198-0.142 0.191-0.148s-0.122 0.016-0.257 0.053c-0.497 0.132-1.149 0.109-1.537-0.053-0.059-0.026-0.109-0.040-0.109-0.030s0.066 0.082 0.145 0.161c0.201 0.194 0.263 0.326 0.263 0.543-0.007 0.619-0.705 0.882-1.426 0.533-0.227-0.109-0.583-0.454-0.718-0.698-0.145-0.254-0.273-0.655-0.273-0.853 0-0.096 0.043-0.303 0.102-0.487 0.115-0.356 0.217-0.491 0.395-0.517 0.063-0.007 0.425-0.053 0.803-0.102 0.382-0.049 0.714-0.092 0.741-0.099 0.122-0.023 2.268-0.013 2.7 0.016zM21.268 25.394c0.135 0.879 0.119 1.482-0.043 1.804-0.263 0.514-2.788 2.384-4.145 3.065-0.336 0.168-0.833 0.342-0.974 0.342-0.649 0-3.009-1.419-4.504-2.706-0.777-0.668-0.876-0.909-0.76-1.87 0.026-0.244 0.059-0.553 0.072-0.685 0.016-0.191 0.033-0.237 0.076-0.237 0.079 0 0.224 0.161 0.494 0.56 0.128 0.191 0.29 0.385 0.359 0.438 0.211 0.155 0.658 0.616 0.988 1.011 0.596 0.711 1.001 1.073 1.472 1.307 0.586 0.293 1.35 0.415 2.156 0.339 1.281-0.115 1.949-0.523 2.953-1.794 0.382-0.481 0.688-0.797 0.925-0.955 0.102-0.066 0.165-0.145 0.237-0.293 0.089-0.184 0.583-0.797 0.616-0.764 0.007 0.007 0.043 0.204 0.079 0.438z"></path>
      </symbol>

  </defs>
</svg>
