<svg aria-hidden="true" style="position: absolute; width: 0; height: 0; overflow: hidden;" version="1.1" xmlns="http://www.w3.org/2000/svg" xmlns:xlink="http://www.w3.org/1999/xlink">
<defs>
<symbol id="icon-fingerUp" viewBox="0 0 18 32">
<path d="M11.867 0.57c-0.824 0.788-0.921 1.2-1.394 6.279-0.109 1.2-0.242 2.218-0.279 2.267s-0.533 0.121-1.103 0.17c-0.618 0.049-1.115 0.145-1.236 0.255-0.109 0.097-0.436 0.582-0.727 1.079l-0.521 0.897h-1.952l-0.255 0.509c-0.145 0.291-0.315 0.752-0.4 1.030-0.097 0.388-0.194 0.521-0.364 0.521-0.121 0-0.485 0.061-0.812 0.133-0.521 0.121-0.655 0.23-1.224 0.97-1.261 1.624-1.6 2.776-1.6 5.406 0 1.794 0.073 2.17 1.285 6.533 0.085 0.339 0.364 0.873 0.618 1.2 0.606 0.8 1.127 2.109 1.139 2.897 0.012 0.752 0.121 1.188 0.315 1.248 0.255 0.085 0.036-1.636-0.339-2.667-0.194-0.521-0.352-0.982-0.352-1.018s0.182-0.036 0.4 0c0.436 0.073 2.024-0.242 2.024-0.4 0-0.17-0.376-0.194-1.212-0.085-1.297 0.17-1.758-0.024-2.206-0.945-0.109-0.206-0.473-1.503-0.836-2.909-0.606-2.424-0.642-2.618-0.642-4.121-0.012-1.224 0.036-1.661 0.182-1.939 0.109-0.206 0.23-0.606 0.279-0.885 0.097-0.667 0.376-1.224 1.103-2.17 0.594-0.8 0.982-1.006 1.903-1.006 0.449 0 0.449 0 0.824 0.97 0.206 0.533 0.485 1.467 0.618 2.061 0.291 1.285 0.206 1.624-0.533 1.988-0.388 0.182-0.509 0.194-0.824 0.073-0.473-0.206-0.921-0.752-1.333-1.648-0.376-0.824-0.497-0.958-1.018-1.067-0.351-0.073-0.351-0.073 0.073 0.158 0.23 0.133 0.485 0.376 0.57 0.545 0.121 0.279 0.109 0.315-0.17 0.388-0.158 0.049-0.473 0.036-0.691 0-0.291-0.061-0.351-0.049-0.23 0.073 0.073 0.073 0.412 0.133 0.739 0.133 0.521-0.012 0.606 0.036 0.727 0.291 0.194 0.424 0.085 0.521-0.63 0.533-1.176 0.012-1.188 0.218-0.012 0.218 0.945 0.012 1.139 0.049 1.321 0.255 0.267 0.303 1.042 0.521 1.455 0.412 0.17-0.036 0.449-0.23 0.63-0.412 0.291-0.315 0.339-0.327 0.57-0.17 0.133 0.097 0.388 0.17 0.558 0.17 0.327 0 1.43-0.521 1.782-0.836 0.158-0.145 0.461-0.194 1.103-0.194 0.8 0 0.848 0.012 0.642 0.182-0.436 0.352-1.721 1.867-2 2.352-0.485 0.824-0.497 1.151-0.012 0.376 0.63-1.055 2.739-3.127 3.636-3.6l0.739-0.376 0.473 0.303c0.824 0.509 2.485 0.788 2.485 0.412 0-0.109-0.242-0.182-0.8-0.242-0.994-0.097-1.455-0.291-1.927-0.8-0.364-0.388-0.364-0.388-0.061-0.303 0.994 0.315 1.491 0.364 1.43 0.145-0.036-0.073-0.351-0.182-0.727-0.218-0.424-0.049-0.812-0.17-1.018-0.339-0.4-0.315-0.497-0.255-0.23 0.158 0.279 0.412 0.194 0.582-0.473 0.958l-0.545 0.303 0.073-0.376c0.036-0.218 0.17-0.485 0.291-0.606 0.133-0.121 0.23-0.315 0.23-0.448 0-0.255 0.012-0.255 1.37-0.545 0.63-0.133 0.933-0.255 0.933-0.376 0-0.218-0.158-0.218-0.897 0.012-1.164 0.351-2.049 0.206-3.188-0.533-0.885-0.57-1.248-1.115-1.248-1.879 0-0.303 0.061-0.558 0.121-0.558 0.073 0 0.121 0.097 0.121 0.218 0 0.364 0.364 0.594 1.37 0.824l0.933 0.218 0.364-0.351c0.206-0.194 0.339-0.424 0.315-0.509-0.049-0.109 0.012-0.145 0.206-0.097 0.145 0.036 0.739 0.109 1.333 0.17 1.721 0.17 1.745 0.194 3.176 3.455 1.685 3.806 1.564 4.521-1.127 7.164-0.848 0.824-1.891 1.976-2.327 2.558s-0.994 1.224-1.248 1.43c-0.412 0.327-0.558 0.376-1.236 0.376-0.642 0-0.848-0.061-1.394-0.4-0.412-0.255-0.679-0.364-0.764-0.279-0.17 0.17-0.012 0.352 0.642 0.679 1.127 0.57 2.049 0.521 3.030-0.194l0.521-0.376-0.085 0.339c-0.049 0.182-0.194 0.933-0.327 1.673s-0.291 1.503-0.351 1.697c-0.145 0.412 0.012 0.655 0.23 0.4 0.145-0.182 0.255-0.739 0.509-2.448 0.303-2.133 0.848-3.042 3.358-5.588 1.503-1.539 1.964-2.364 1.964-3.564 0-0.933-0.17-1.467-1.139-3.697-1.321-2.994-1.406-3.115-2.315-3.418-0.339-0.109-0.351-0.145-0.327-0.715 0.024-0.327 0.17-1.685 0.339-3.006 0.582-4.788 0.291-7.527-0.861-8.048-0.582-0.267-1.006-0.182-1.527 0.303zM13.333 0.594c0.824 0.57 1.188 2.267 0.982 4.558-0.145 1.551-0.57 5.345-0.715 6.242l-0.085 0.545-1.030-0.036c-0.57-0.024-1.115-0.097-1.224-0.158-0.133-0.061-0.242-0.412-0.339-0.994-0.085-0.497-0.23-1.006-0.327-1.152-0.145-0.206-0.158-0.4-0.061-1.018 0.061-0.424 0.182-1.479 0.255-2.339 0.303-3.539 0.679-5.127 1.358-5.697 0.4-0.339 0.642-0.327 1.188 0.048zM9.903 9.636c0.57 0.242 0.642 0.351 0.642 1.055v0.582h-0.958c-0.921 0-0.97 0.012-1.273 0.376-0.812 0.958-0.036 2.242 1.964 3.224 0.885 0.448 1.006 0.606 0.703 0.921-0.218 0.206-2.351 0.4-2.533 0.218-0.242-0.242-0.703-2.291-0.776-3.442-0.048-0.703-0.109-1.127-0.17-1.030-0.061 0.085-0.109 0.315-0.109 0.509v0.351l-0.303-0.448-0.315-0.461 0.582-0.861c0.449-0.667 0.679-0.909 1.006-1.018 0.582-0.194 1.018-0.194 1.539 0.024zM10.667 11.818c0.073 0.182 0.182 0.279 0.279 0.23 0.23-0.085 0.351 0.267 0.158 0.424-0.23 0.194-0.655 0.194-1.37 0.024-0.667-0.158-0.8-0.267-0.933-0.715-0.085-0.255-0.073-0.267 0.836-0.267 0.861 0 0.921 0.012 1.030 0.303zM6.739 12.061c0.4 0.267 0.545 0.594 0.667 1.552 0.061 0.497 0.182 0.897 0.291 0.982 0.23 0.17 0.485 1.697 0.376 2.267-0.109 0.63-0.485 1.055-1.236 1.394-0.836 0.376-1.261 0.267-1.261-0.352 0-0.521-0.63-2.642-1.103-3.673-0.315-0.727-0.339-0.848-0.218-1.309 0.073-0.267 0.242-0.655 0.388-0.848 0.242-0.339 0.267-0.339 1.030-0.279 0.436 0.049 0.909 0.158 1.067 0.267zM10.545 16.545c0 0.315-0.545 0.764-1.079 0.909-0.764 0.206-0.945 0.097-0.958-0.545l-0.012-0.545h1.018c0.848 0 1.030 0.036 1.030 0.182z"></path>
<path d="M12.23 5.006c0.121 0.121 1.6 0.351 1.685 0.267 0.109-0.109-0.473-0.279-1.103-0.327-0.473-0.036-0.655-0.012-0.582 0.061z"></path>
<path d="M11.636 9.188c0 0.012 0.145 0.085 0.339 0.158 0.291 0.121 0.303 0.145 0.097 0.218-0.218 0.085-0.218 0.097 0.061 0.17 0.448 0.121 1.2 0.097 1.2-0.036 0-0.073-0.182-0.121-0.388-0.121-0.303 0-0.351-0.036-0.218-0.121 0.097-0.061 0.327-0.121 0.521-0.121 0.182 0 0.327-0.036 0.327-0.097 0-0.049-0.436-0.085-0.97-0.085s-0.97 0.012-0.97 0.036z"></path>
<path d="M7.273 17.333c-0.097 0.061-0.485 0.121-0.849 0.133l-0.667 0.012 0.461 0.121c0.485 0.133 1.539-0.061 1.539-0.279 0-0.145-0.255-0.133-0.485 0.012z"></path>
<path d="M12.448 17.164c-0.182 0.303 0.739 2.436 1.261 2.909 0.339 0.303 0.279 0.061-0.145-0.618-0.351-0.558-0.776-1.491-0.945-2.121-0.049-0.158-0.121-0.23-0.17-0.17z"></path>

</symbol>

<symbol id="icon-loader" viewBox="0 0 48 32">
<path d="M24 0.613c-2.267 1.667-4.52 4.653-5.907 7.853-1.387 3.173-2.533 7.493-2.827 10.613l-0.093 1.013-1.093 0.080c-1.213 0.067-2.147 0.387-3.053 1.013l-0.613 0.427-0.040-1.507c-0.027-0.827-0.027-5.24 0-9.813l0.027-8.293h0.533c0.587 0 0.8-0.24 0.8-0.893 0-0.747-0.253-0.907-1.573-0.947-1.96-0.080-1.76-1.16-1.76 9.747 0 5.067 0 10.8 0 12.72v3.507h-3.987c-2.2 0-4.080 0.040-4.2 0.080-0.24 0.093-0.293 0.52-0.080 0.653 0.067 0.040 2.027 0.32 4.36 0.613 2.32 0.293 4.24 0.547 4.253 0.56 0 0.013 0.213 0.4 0.453 0.867 1.12 2.133 3.667 3.387 6.067 2.987 2.573-0.427 4.64-2.547 4.96-5.093l0.107-0.867 0.28 0.48c0.347 0.573 1.067 1.147 1.747 1.4 0.387 0.133 1.693 0.173 5.627 0.187 4.613 0 5.107-0.027 5.027-0.213-0.040-0.12-0.12-0.613-0.16-1.107-0.32-3.373 1.893-6.533 5.267-7.533 0.92-0.267 2.653-0.28 3.68-0.013 2.373 0.627 4.333 2.56 5.053 5 0.227 0.76 0.307 2.72 0.133 3.4-0.080 0.333-0.067 0.347 0.187 0.213 0.52-0.28 0.56-0.76 0.56-6.667 0-5.147-0.027-5.72-0.24-6.133-0.48-0.96-0.453-0.96-4.827-0.987l-3.933-0.027-0.093-0.6c-0.053-0.333-0.347-2.653-0.64-5.147-0.293-2.507-0.627-4.867-0.733-5.24-0.413-1.373-1.72-2.467-3.36-2.8-0.467-0.093-2.373-0.147-4.92-0.147h-4.16l-0.827 0.613zM33.427 1.133c0.773 0.293 1.707 1.36 1.973 2.24 0.107 0.387 0.52 3.147 0.907 6.133l0.707 5.44-0.533 0.493c-2.147 1.96-7.48 5.64-10.093 6.96-2.573 1.28-3.773 1.373-4.867 0.373-0.32-0.293-0.72-0.787-0.907-1.107-0.187-0.307-0.733-0.933-1.213-1.36l-0.867-0.8 0.533-0.707c0.293-0.4 0.533-0.747 0.533-0.8 0-0.040 0.107-0.2 0.253-0.347 0.133-0.147 0.507-0.653 0.827-1.133 0.32-0.467 0.773-1.107 1.027-1.413l0.453-0.56 0.467 0.347 0.467 0.36 0.24-0.32c0.133-0.187 0.267-0.373 0.293-0.427 0.013-0.053-0.587-0.547-1.36-1.093l-1.4-1-0.587 0.72 0.493 0.427 0.493 0.413-0.307 0.427c-0.44 0.587-2.413 3.373-2.893 4.080-0.213 0.32-0.44 0.587-0.48 0.587-0.053 0-0.36-0.12-0.707-0.267-0.6-0.267-0.613-0.293-0.613-0.88 0-0.32 0.12-1.173 0.28-1.867 0.147-0.707 0.293-1.387 0.32-1.507 0.52-2.64 2.187-6.627 3.773-9.013 1.32-1.987 3.173-3.973 4.2-4.507 0.227-0.12 1.36-0.147 4.16-0.133 3.173 0.027 3.973 0.067 4.427 0.24zM15.294 23.747c0.453 0.173 1.067 0.733 1.32 1.213 0.267 0.507 0.24 1.68-0.053 2.227-0.12 0.253-0.453 0.64-0.733 0.867-0.413 0.333-0.653 0.413-1.333 0.453-0.733 0.040-0.893 0-1.44-0.347-2.080-1.333-1.213-4.533 1.24-4.56 0.347 0 0.787 0.067 1 0.147z"></path>
<path d="M32.2 10.693l-0.347 0.307-0.027 2.36-0.027 2.373h-2.573c-2.893 0-3.307 0.093-3.76 0.827-0.147 0.24-0.267 0.667-0.267 0.933 0 0.373-0.067 0.507-0.28 0.573-0.147 0.053-0.387 0.28-0.533 0.507-0.213 0.36-0.253 0.68-0.253 2.187v1.76l1.107-0.467c1.613-0.693 4.36-2.413 7.8-4.88l0.96-0.693v-5.533l-0.347-0.267c-0.467-0.36-1.013-0.36-1.453 0.013z"></path>
<path d="M38.627 20.28c-2.907 0.68-4.96 3.693-4.507 6.627 0.507 3.24 3.573 5.52 6.747 4.987 1.96-0.32 3.52-1.493 4.427-3.32 0.493-1 0.507-1.067 0.507-2.493s-0.013-1.52-0.493-2.52c-1.213-2.533-4.013-3.907-6.68-3.28zM40.894 23.747c0.907 0.333 1.547 1.293 1.547 2.32 0 2.013-2.2 3.147-3.907 2.027-1.947-1.293-0.987-4.467 1.36-4.493 0.347 0 0.787 0.067 1 0.147z"></path>

</symbol>

</defs>
</svg>
