<svg aria-hidden="true" style="position: absolute; width: 0; height: 0; overflow: hidden;" version="1.1" xmlns="http://www.w3.org/2000/svg" xmlns:xlink="http://www.w3.org/1999/xlink">
<defs>
<symbol id="icon-fingerUp" viewBox="0 0 18 32">
<path d="M11.867 0.57c-0.824 0.788-0.921 1.2-1.394 6.279-0.109 1.2-0.242 2.218-0.279 2.267s-0.533 0.121-1.103 0.17c-0.618 0.049-1.115 0.145-1.236 0.255-0.109 0.097-0.436 0.582-0.727 1.079l-0.521 0.897h-1.952l-0.255 0.509c-0.145 0.291-0.315 0.752-0.4 1.030-0.097 0.388-0.194 0.521-0.364 0.521-0.121 0-0.485 0.061-0.812 0.133-0.521 0.121-0.655 0.23-1.224 0.97-1.261 1.624-1.6 2.776-1.6 5.406 0 1.794 0.073 2.17 1.285 6.533 0.085 0.339 0.364 0.873 0.618 1.2 0.606 0.8 1.127 2.109 1.139 2.897 0.012 0.752 0.121 1.188 0.315 1.248 0.255 0.085 0.036-1.636-0.339-2.667-0.194-0.521-0.352-0.982-0.352-1.018s0.182-0.036 0.4 0c0.436 0.073 2.024-0.242 2.024-0.4 0-0.17-0.376-0.194-1.212-0.085-1.297 0.17-1.758-0.024-2.206-0.945-0.109-0.206-0.473-1.503-0.836-2.909-0.606-2.424-0.642-2.618-0.642-4.121-0.012-1.224 0.036-1.661 0.182-1.939 0.109-0.206 0.23-0.606 0.279-0.885 0.097-0.667 0.376-1.224 1.103-2.17 0.594-0.8 0.982-1.006 1.903-1.006 0.449 0 0.449 0 0.824 0.97 0.206 0.533 0.485 1.467 0.618 2.061 0.291 1.285 0.206 1.624-0.533 1.988-0.388 0.182-0.509 0.194-0.824 0.073-0.473-0.206-0.921-0.752-1.333-1.648-0.376-0.824-0.497-0.958-1.018-1.067-0.351-0.073-0.351-0.073 0.073 0.158 0.23 0.133 0.485 0.376 0.57 0.545 0.121 0.279 0.109 0.315-0.17 0.388-0.158 0.049-0.473 0.036-0.691 0-0.291-0.061-0.351-0.049-0.23 0.073 0.073 0.073 0.412 0.133 0.739 0.133 0.521-0.012 0.606 0.036 0.727 0.291 0.194 0.424 0.085 0.521-0.63 0.533-1.176 0.012-1.188 0.218-0.012 0.218 0.945 0.012 1.139 0.049 1.321 0.255 0.267 0.303 1.042 0.521 1.455 0.412 0.17-0.036 0.449-0.23 0.63-0.412 0.291-0.315 0.339-0.327 0.57-0.17 0.133 0.097 0.388 0.17 0.558 0.17 0.327 0 1.43-0.521 1.782-0.836 0.158-0.145 0.461-0.194 1.103-0.194 0.8 0 0.848 0.012 0.642 0.182-0.436 0.352-1.721 1.867-2 2.352-0.485 0.824-0.497 1.151-0.012 0.376 0.63-1.055 2.739-3.127 3.636-3.6l0.739-0.376 0.473 0.303c0.824 0.509 2.485 0.788 2.485 0.412 0-0.109-0.242-0.182-0.8-0.242-0.994-0.097-1.455-0.291-1.927-0.8-0.364-0.388-0.364-0.388-0.061-0.303 0.994 0.315 1.491 0.364 1.43 0.145-0.036-0.073-0.351-0.182-0.727-0.218-0.424-0.049-0.812-0.17-1.018-0.339-0.4-0.315-0.497-0.255-0.23 0.158 0.279 0.412 0.194 0.582-0.473 0.958l-0.545 0.303 0.073-0.376c0.036-0.218 0.17-0.485 0.291-0.606 0.133-0.121 0.23-0.315 0.23-0.448 0-0.255 0.012-0.255 1.37-0.545 0.63-0.133 0.933-0.255 0.933-0.376 0-0.218-0.158-0.218-0.897 0.012-1.164 0.351-2.049 0.206-3.188-0.533-0.885-0.57-1.248-1.115-1.248-1.879 0-0.303 0.061-0.558 0.121-0.558 0.073 0 0.121 0.097 0.121 0.218 0 0.364 0.364 0.594 1.37 0.824l0.933 0.218 0.364-0.351c0.206-0.194 0.339-0.424 0.315-0.509-0.049-0.109 0.012-0.145 0.206-0.097 0.145 0.036 0.739 0.109 1.333 0.17 1.721 0.17 1.745 0.194 3.176 3.455 1.685 3.806 1.564 4.521-1.127 7.164-0.848 0.824-1.891 1.976-2.327 2.558s-0.994 1.224-1.248 1.43c-0.412 0.327-0.558 0.376-1.236 0.376-0.642 0-0.848-0.061-1.394-0.4-0.412-0.255-0.679-0.364-0.764-0.279-0.17 0.17-0.012 0.352 0.642 0.679 1.127 0.57 2.049 0.521 3.030-0.194l0.521-0.376-0.085 0.339c-0.049 0.182-0.194 0.933-0.327 1.673s-0.291 1.503-0.351 1.697c-0.145 0.412 0.012 0.655 0.23 0.4 0.145-0.182 0.255-0.739 0.509-2.448 0.303-2.133 0.848-3.042 3.358-5.588 1.503-1.539 1.964-2.364 1.964-3.564 0-0.933-0.17-1.467-1.139-3.697-1.321-2.994-1.406-3.115-2.315-3.418-0.339-0.109-0.351-0.145-0.327-0.715 0.024-0.327 0.17-1.685 0.339-3.006 0.582-4.788 0.291-7.527-0.861-8.048-0.582-0.267-1.006-0.182-1.527 0.303zM13.333 0.594c0.824 0.57 1.188 2.267 0.982 4.558-0.145 1.551-0.57 5.345-0.715 6.242l-0.085 0.545-1.030-0.036c-0.57-0.024-1.115-0.097-1.224-0.158-0.133-0.061-0.242-0.412-0.339-0.994-0.085-0.497-0.23-1.006-0.327-1.152-0.145-0.206-0.158-0.4-0.061-1.018 0.061-0.424 0.182-1.479 0.255-2.339 0.303-3.539 0.679-5.127 1.358-5.697 0.4-0.339 0.642-0.327 1.188 0.048zM9.903 9.636c0.57 0.242 0.642 0.351 0.642 1.055v0.582h-0.958c-0.921 0-0.97 0.012-1.273 0.376-0.812 0.958-0.036 2.242 1.964 3.224 0.885 0.448 1.006 0.606 0.703 0.921-0.218 0.206-2.351 0.4-2.533 0.218-0.242-0.242-0.703-2.291-0.776-3.442-0.048-0.703-0.109-1.127-0.17-1.030-0.061 0.085-0.109 0.315-0.109 0.509v0.351l-0.303-0.448-0.315-0.461 0.582-0.861c0.449-0.667 0.679-0.909 1.006-1.018 0.582-0.194 1.018-0.194 1.539 0.024zM10.667 11.818c0.073 0.182 0.182 0.279 0.279 0.23 0.23-0.085 0.351 0.267 0.158 0.424-0.23 0.194-0.655 0.194-1.37 0.024-0.667-0.158-0.8-0.267-0.933-0.715-0.085-0.255-0.073-0.267 0.836-0.267 0.861 0 0.921 0.012 1.030 0.303zM6.739 12.061c0.4 0.267 0.545 0.594 0.667 1.552 0.061 0.497 0.182 0.897 0.291 0.982 0.23 0.17 0.485 1.697 0.376 2.267-0.109 0.63-0.485 1.055-1.236 1.394-0.836 0.376-1.261 0.267-1.261-0.352 0-0.521-0.63-2.642-1.103-3.673-0.315-0.727-0.339-0.848-0.218-1.309 0.073-0.267 0.242-0.655 0.388-0.848 0.242-0.339 0.267-0.339 1.030-0.279 0.436 0.049 0.909 0.158 1.067 0.267zM10.545 16.545c0 0.315-0.545 0.764-1.079 0.909-0.764 0.206-0.945 0.097-0.958-0.545l-0.012-0.545h1.018c0.848 0 1.030 0.036 1.030 0.182z"></path>
<path d="M12.23 5.006c0.121 0.121 1.6 0.351 1.685 0.267 0.109-0.109-0.473-0.279-1.103-0.327-0.473-0.036-0.655-0.012-0.582 0.061z"></path>
<path d="M11.636 9.188c0 0.012 0.145 0.085 0.339 0.158 0.291 0.121 0.303 0.145 0.097 0.218-0.218 0.085-0.218 0.097 0.061 0.17 0.448 0.121 1.2 0.097 1.2-0.036 0-0.073-0.182-0.121-0.388-0.121-0.303 0-0.351-0.036-0.218-0.121 0.097-0.061 0.327-0.121 0.521-0.121 0.182 0 0.327-0.036 0.327-0.097 0-0.049-0.436-0.085-0.97-0.085s-0.97 0.012-0.97 0.036z"></path>
<path d="M7.273 17.333c-0.097 0.061-0.485 0.121-0.849 0.133l-0.667 0.012 0.461 0.121c0.485 0.133 1.539-0.061 1.539-0.279 0-0.145-0.255-0.133-0.485 0.012z"></path>
<path d="M12.448 17.164c-0.182 0.303 0.739 2.436 1.261 2.909 0.339 0.303 0.279 0.061-0.145-0.618-0.351-0.558-0.776-1.491-0.945-2.121-0.049-0.158-0.121-0.23-0.17-0.17z"></path>

</symbol>

<symbol id="icon-loader" viewBox="0 0 48 32">
<path d="M24 0.613c-2.267 1.667-4.52 4.653-5.907 7.853-1.387 3.173-2.533 7.493-2.827 10.613l-0.093 1.013-1.093 0.080c-1.213 0.067-2.147 0.387-3.053 1.013l-0.613 0.427-0.040-1.507c-0.027-0.827-0.027-5.24 0-9.813l0.027-8.293h0.533c0.587 0 0.8-0.24 0.8-0.893 0-0.747-0.253-0.907-1.573-0.947-1.96-0.080-1.76-1.16-1.76 9.747 0 5.067 0 10.8 0 12.72v3.507h-3.987c-2.2 0-4.080 0.040-4.2 0.080-0.24 0.093-0.293 0.52-0.080 0.653 0.067 0.040 2.027 0.32 4.36 0.613 2.32 0.293 4.24 0.547 4.253 0.56 0 0.013 0.213 0.4 0.453 0.867 1.12 2.133 3.667 3.387 6.067 2.987 2.573-0.427 4.64-2.547 4.96-5.093l0.107-0.867 0.28 0.48c0.347 0.573 1.067 1.147 1.747 1.4 0.387 0.133 1.693 0.173 5.627 0.187 4.613 0 5.107-0.027 5.027-0.213-0.040-0.12-0.12-0.613-0.16-1.107-0.32-3.373 1.893-6.533 5.267-7.533 0.92-0.267 2.653-0.28 3.68-0.013 2.373 0.627 4.333 2.56 5.053 5 0.227 0.76 0.307 2.72 0.133 3.4-0.080 0.333-0.067 0.347 0.187 0.213 0.52-0.28 0.56-0.76 0.56-6.667 0-5.147-0.027-5.72-0.24-6.133-0.48-0.96-0.453-0.96-4.827-0.987l-3.933-0.027-0.093-0.6c-0.053-0.333-0.347-2.653-0.64-5.147-0.293-2.507-0.627-4.867-0.733-5.24-0.413-1.373-1.72-2.467-3.36-2.8-0.467-0.093-2.373-0.147-4.92-0.147h-4.16l-0.827 0.613zM33.427 1.133c0.773 0.293 1.707 1.36 1.973 2.24 0.107 0.387 0.52 3.147 0.907 6.133l0.707 5.44-0.533 0.493c-2.147 1.96-7.48 5.64-10.093 6.96-2.573 1.28-3.773 1.373-4.867 0.373-0.32-0.293-0.72-0.787-0.907-1.107-0.187-0.307-0.733-0.933-1.213-1.36l-0.867-0.8 0.533-0.707c0.293-0.4 0.533-0.747 0.533-0.8 0-0.040 0.107-0.2 0.253-0.347 0.133-0.147 0.507-0.653 0.827-1.133 0.32-0.467 0.773-1.107 1.027-1.413l0.453-0.56 0.467 0.347 0.467 0.36 0.24-0.32c0.133-0.187 0.267-0.373 0.293-0.427 0.013-0.053-0.587-0.547-1.36-1.093l-1.4-1-0.587 0.72 0.493 0.427 0.493 0.413-0.307 0.427c-0.44 0.587-2.413 3.373-2.893 4.080-0.213 0.32-0.44 0.587-0.48 0.587-0.053 0-0.36-0.12-0.707-0.267-0.6-0.267-0.613-0.293-0.613-0.88 0-0.32 0.12-1.173 0.28-1.867 0.147-0.707 0.293-1.387 0.32-1.507 0.52-2.64 2.187-6.627 3.773-9.013 1.32-1.987 3.173-3.973 4.2-4.507 0.227-0.12 1.36-0.147 4.16-0.133 3.173 0.027 3.973 0.067 4.427 0.24zM15.294 23.747c0.453 0.173 1.067 0.733 1.32 1.213 0.267 0.507 0.24 1.68-0.053 2.227-0.12 0.253-0.453 0.64-0.733 0.867-0.413 0.333-0.653 0.413-1.333 0.453-0.733 0.040-0.893 0-1.44-0.347-2.080-1.333-1.213-4.533 1.24-4.56 0.347 0 0.787 0.067 1 0.147z"></path>
<path d="M32.2 10.693l-0.347 0.307-0.027 2.36-0.027 2.373h-2.573c-2.893 0-3.307 0.093-3.76 0.827-0.147 0.24-0.267 0.667-0.267 0.933 0 0.373-0.067 0.507-0.28 0.573-0.147 0.053-0.387 0.28-0.533 0.507-0.213 0.36-0.253 0.68-0.253 2.187v1.76l1.107-0.467c1.613-0.693 4.36-2.413 7.8-4.88l0.96-0.693v-5.533l-0.347-0.267c-0.467-0.36-1.013-0.36-1.453 0.013z"></path>
<path d="M38.627 20.28c-2.907 0.68-4.96 3.693-4.507 6.627 0.507 3.24 3.573 5.52 6.747 4.987 1.96-0.32 3.52-1.493 4.427-3.32 0.493-1 0.507-1.067 0.507-2.493s-0.013-1.52-0.493-2.52c-1.213-2.533-4.013-3.907-6.68-3.28zM40.894 23.747c0.907 0.333 1.547 1.293 1.547 2.32 0 2.013-2.2 3.147-3.907 2.027-1.947-1.293-0.987-4.467 1.36-4.493 0.347 0 0.787 0.067 1 0.147z"></path>
</symbol>

<symbol id="icon-fingerUpTwo" viewBox="0 0 15 32">
<path d="M2.951 0.373c-0.569 0.444-1.084 2.098-1.333 4.338-0.107 0.871-0.356 4.284-0.551 7.591-0.284 4.747-0.427 6.187-0.711 6.969-0.302 0.907-0.32 1.084-0.089 1.92 0.32 1.244 0.604 2.027 1.511 4.124 0.8 1.867 0.818 2.133 0.427 4.729-0.071 0.498-0.053 0.551 0.107 0.32 0.107-0.178 0.284-0.924 0.391-1.689 0.213-1.529 0.213-1.493-1.191-4.889-0.338-0.836-0.764-2.044-0.907-2.684l-0.284-1.156 0.889-1.298c1.564-2.329 2.524-3.431 3.52-4.107 1.12-0.747 1.316-0.818 1.316-0.373 0 0.391 0.871 1.298 1.244 1.298 0.409 0 1.049-0.498 1.44-1.138 0.48-0.764 0.427-0.196-0.089 0.871-0.391 0.836-1.849 2.4-2.24 2.4-0.089 0-0.32 0.302-0.516 0.658-0.178 0.373-0.498 0.836-0.711 1.013-0.213 0.196-0.373 0.498-0.373 0.693s-0.249 0.8-0.551 1.333c-0.302 0.533-0.498 0.996-0.444 1.049 0.036 0.053 0.391-0.48 0.764-1.191 0.978-1.831 1.156-2.044 1.582-1.796 0.178 0.107 0.551 0.267 0.818 0.373 0.604 0.213 1.618 1.564 2.116 2.844 0.462 1.191 0.516 2.72 0.107 3.502-0.338 0.658-0.373 0.764-0.142 0.764 0.302 0 0.729-1.44 0.729-2.453-0.018-0.551-0.124-1.333-0.267-1.724-0.356-0.96-0.338-1.333 0.053-1.333 0.178 0 0.516-0.196 0.729-0.427 0.409-0.444 0.427-0.444 0.889-0.107 0.284 0.196 0.889 0.356 1.529 0.409 0.587 0.036 0.96 0.036 0.853 0-0.391-0.142-0.249-0.498 0.444-1.173 1.067-1.049 1.173-0.942 1.049 1.156-0.089 1.973-0.551 3.556-1.582 5.511-0.889 1.689-1.138 1.796-3.431 1.511-0.64-0.071-0.924-0.053-0.711 0.036 0.658 0.284 2.169 0.409 2.844 0.213l0.658-0.178-0.107 1.191c-0.071 0.658-0.16 1.493-0.213 1.849-0.071 0.409-0.036 0.676 0.071 0.676s0.231-0.462 0.284-1.031c0.267-2.489 0.462-3.307 1.262-5.031 0.462-0.996 0.942-2.347 1.084-2.987 0.267-1.333 0.32-5.244 0.071-6.329-0.196-0.889-0.996-1.636-1.902-1.796-0.462-0.089-0.836-0.32-1.191-0.747-0.551-0.658-1.422-1.102-2.116-1.102-0.391 0-0.444-0.107-0.533-0.924-0.16-1.28-0.818-1.938-2.080-2.062-0.818-0.071-0.978-0.036-1.6 0.48l-0.693 0.551-0.107-10.347-0.427-0.338c-0.533-0.444-1.102-0.427-1.689 0.036zM4.604 0.693c0.089 0.16 0.196 3.218 0.267 6.791l0.107 6.489-0.782 0.551c-0.427 0.302-1.227 1.156-1.778 1.902s-1.084 1.351-1.191 1.351c-0.124 0-0.142-0.409-0.089-1.209 0.053-0.658 0.178-2.667 0.284-4.48 0.569-9.92 1.084-12.16 2.72-11.769 0.178 0.053 0.373 0.213 0.462 0.373zM8.693 10.862c0.444 0.444 0.551 0.693 0.551 1.333v0.8l-0.462-0.356c-0.64-0.498-0.836-0.48-2.027 0.249-0.569 0.338-1.12 0.622-1.227 0.622-0.142 0-0.196-0.373-0.16-1.191 0.053-1.138 0.089-1.209 0.658-1.6 0.907-0.622 1.973-0.569 2.667 0.142zM8.533 13.209c0.231 0.427 0.231 0.533 0 0.96-0.142 0.249-0.48 0.622-0.729 0.818-0.533 0.391-1.067 0.231-1.404-0.427-0.249-0.462 0.124-1.084 0.942-1.582 0.676-0.427 0.836-0.391 1.191 0.231zM11.093 13.582c0.711 0.302 1.173 0.907 1.173 1.529 0 0.533-1.28 4.302-1.671 4.889-0.267 0.409-0.302 0.409-0.889 0.178-0.338-0.142-0.853-0.284-1.156-0.302s-0.551-0.053-0.551-0.071c0-0.089 1.44-6.027 1.511-6.258 0.107-0.284 0.853-0.267 1.582 0.036zM14.044 15.378c0.533 0.284 1.067 1.084 1.067 1.618 0 0.427-1.191 2.631-1.671 3.076l-0.409 0.391-0.924-0.48c-0.676-0.356-0.889-0.551-0.818-0.764 0.071-0.16 0.391-1.067 0.729-2.027 0.338-0.978 0.64-1.831 0.711-1.92 0.142-0.249 0.729-0.196 1.316 0.107zM8.373 16.996c-0.124 0.427-0.178 0.462-0.284 0.196-0.071-0.178-0.036-0.427 0.089-0.569 0.32-0.373 0.373-0.249 0.196 0.373zM8 18.044c0 0.907-1.084 1.511-1.6 0.889-0.32-0.391-0.036-0.942 0.676-1.316 0.711-0.356 0.924-0.267 0.924 0.427zM12.036 20.124c0.658 0.231 0.693 0.551 0.071 0.64-0.444 0.071-0.907-0.249-0.907-0.604 0-0.302 0.089-0.302 0.836-0.036zM9.831 20.391c0.249 0.142 0.124 0.427-0.32 0.622-0.48 0.213-0.836 0.036-1.173-0.622-0.178-0.32-0.142-0.338 0.587-0.213 0.409 0.071 0.818 0.16 0.907 0.213z"></path>
</symbol>

<symbol id="icon-user" viewBox="0 0 32 32">
<path d="M13.505 0.114c-6.725 1.085-11.941 6.111-13.297 12.809-0.181 0.895-0.208 1.275-0.208 3.146 0.009 1.862 0.036 2.242 0.208 3.073 1.401 6.463 6.255 11.281 12.692 12.583 0.895 0.181 1.275 0.208 3.146 0.208 1.862-0.009 2.242-0.036 3.073-0.208 6.463-1.401 11.281-6.255 12.583-12.692 0.181-0.895 0.208-1.275 0.208-3.146-0.009-1.862-0.036-2.242-0.208-3.073-1.392-6.445-6.246-11.272-12.637-12.574-1.256-0.253-4.33-0.325-5.559-0.127zM18.215 2.691c0.235 0.127 0.389 0.759 0.325 1.284-0.036 0.271-0.027 0.434 0.027 0.434s0.371 0.262 0.714 0.579c0.56 0.533 0.624 0.569 0.786 0.452 0.244-0.181 0.452-0.163 1.049 0.108 0.434 0.199 0.56 0.307 0.714 0.615 0.099 0.217 0.181 0.569 0.181 0.795 0 0.343 0.045 0.443 0.316 0.687 0.407 0.38 0.56 0.678 0.732 1.483 0.163 0.795 0.117 1.121-0.289 1.862-0.172 0.325-0.38 0.895-0.47 1.329l-0.172 0.759 0.298 0.289c0.416 0.398 0.533 0.958 0.416 1.916-0.054 0.407-0.117 0.922-0.145 1.148-0.090 0.759-0.325 1.347-0.759 1.88-0.362 0.443-0.425 0.588-0.488 1.085-0.036 0.316-0.163 0.786-0.28 1.040-0.551 1.184-0.56 1.266-0.443 3.046 0.063 0.904 0.081 1.69 0.045 1.754-0.045 0.072-0.687 0.669-1.437 1.329-3.299 2.938-3.272 2.92-3.607 2.793-0.099-0.045-0.832-0.651-1.627-1.365-0.795-0.705-1.844-1.627-2.323-2.043s-0.904-0.841-0.931-0.94c-0.036-0.090 0.009-0.985 0.090-1.971 0.145-1.844 0.136-2.079-0.145-2.631-0.081-0.172-0.208-0.606-0.262-0.949-0.108-0.579-0.154-0.669-0.551-1.049-0.533-0.515-0.841-1.13-1.076-2.088-0.325-1.347-0.217-2.179 0.362-2.739l0.334-0.325-0.181-0.696c-0.136-0.551-0.181-1.040-0.19-2.278-0.009-1.473 0.009-1.618 0.208-2.115 0.117-0.298 0.398-0.732 0.615-0.967l0.398-0.425-0.154-0.298c-0.081-0.163-0.208-0.353-0.271-0.425-0.226-0.226-0.090-0.832 0.19-0.832 0.072 0 0.262-0.081 0.425-0.181 0.172-0.099 0.371-0.154 0.488-0.127 0.127 0.036 0.307-0.018 0.479-0.154 0.235-0.172 0.434-0.217 1.302-0.262 0.687-0.036 1.103-0.108 1.302-0.208 0.226-0.127 0.325-0.136 0.506-0.054 0.19 0.081 0.253 0.063 0.461-0.145 0.479-0.479 1.139-0.615 1.745-0.362 0.398 0.172 0.479 0.090 0.479-0.47 0-0.533 0.38-0.795 0.814-0.57z"></path>
<path d="M17.898 3.757c-0.090 0.425-0.488 0.732-1.067 0.832-0.28 0.045-0.597 0.127-0.705 0.181-0.154 0.090-0.181 0.081-0.154-0.009 0.018-0.063 0.217-0.208 0.425-0.325 0.38-0.199 0.38-0.199 0.154-0.262-0.389-0.090-0.687 0.036-1.22 0.551-0.66 0.624-0.877 0.705-1.727 0.633-0.642-0.054-0.705-0.045-1.211 0.217-0.298 0.163-0.479 0.217-0.416 0.136 0.226-0.271 0.832-0.497 1.51-0.579 0.371-0.036 0.723-0.117 0.777-0.172 0.072-0.072 0.009-0.072-0.217-0.009-0.163 0.054-0.651 0.090-1.076 0.090-0.886 0-1.247 0.154-1.446 0.633l-0.117 0.289-0.181-0.208c-0.145-0.19-0.163-0.19-0.108-0.036 0.090 0.253 0.172 0.949 0.108 0.949-0.027 0-0.154-0.19-0.289-0.416s-0.262-0.389-0.289-0.362c-0.027 0.027-0.009 0.108 0.054 0.172 0.054 0.072 0.163 0.325 0.235 0.569 0.136 0.434 0.127 0.443-0.072 0.579-0.461 0.307-0.786 0.741-0.967 1.32-0.217 0.723-0.235 0.994-0.036 0.669 0.072-0.127 0.117-0.154 0.090-0.063-0.154 0.479-0.244 1.446-0.19 2.007 0.072 0.786 0.298 1.898 0.452 2.278 0.117 0.28 0.117 0.28-0.199 0.362-0.19 0.045-0.407 0.181-0.515 0.325-0.398 0.533-0.163 2.45 0.407 3.381 0.154 0.244 0.443 0.524 0.949 0.922 0.054 0.045 0.127 0.334 0.163 0.642 0.081 0.705 0.145 0.877 0.244 0.705 0.054-0.081 0.081-0.054 0.081 0.099 0 0.127 0.063 0.488 0.145 0.805 0.127 0.506 0.136 0.75 0.045 1.907-0.063 0.723-0.127 1.528-0.154 1.781l-0.054 0.461 2.26 2.007c1.247 1.094 2.287 1.998 2.323 1.998 0.081 0 4.384-3.815 4.384-3.878-0.009-0.027-0.063-0.759-0.127-1.627-0.117-1.573-0.117-1.582 0.090-2.088 0.117-0.289 0.262-0.714 0.316-0.958 0.063-0.244 0.163-0.488 0.217-0.551 0.063-0.054 0.136-0.371 0.163-0.696 0.054-0.542 0.081-0.615 0.407-0.913 0.199-0.172 0.443-0.515 0.542-0.75 0.253-0.588 0.506-2.712 0.38-3.182-0.099-0.371-0.371-0.633-0.66-0.633-0.136 0-0.163-0.045-0.117-0.208 0.036-0.108 0.136-0.569 0.235-1.012 0.199-0.976 0.271-1.175 0.579-1.627 0.127-0.19 0.235-0.407 0.235-0.488-0.009-0.099-0.045-0.072-0.136 0.081-0.154 0.262-0.181 0.081-0.036-0.199 0.127-0.235 0.117-1.139-0.009-1.483-0.054-0.145-0.307-0.452-0.551-0.678-0.434-0.398-0.443-0.416-0.389-0.823 0.036-0.244 0.018-0.479-0.045-0.579-0.081-0.154-0.090-0.154-0.099 0.054-0.009 0.199-0.027 0.19-0.127-0.081-0.063-0.172-0.208-0.371-0.325-0.452l-0.217-0.145 0.154 0.235c0.208 0.307 0.117 0.533-0.208 0.533-0.289 0-0.56-0.199-1.546-1.148-0.66-0.624-0.823-0.714-1.284-0.678-0.154 0.018-0.154 0 0.018-0.217 0.099-0.127 0.208-0.416 0.244-0.633 0.063-0.461-0.009-0.642-0.099-0.235zM13.008 10.076c0.081 0.090 0.208 0.244 0.28 0.344 0.127 0.181 0.127 0.181 0.136-0.027 0-0.307 0.154-0.163 0.235 0.226l0.063 0.344 0.117-0.452 0.108-0.452 0.009 0.533c0.009 0.497 0.018 0.524 0.145 0.362 0.117-0.163 0.127-0.163 0.072 0.054l-0.054 0.226 0.271-0.253c0.307-0.28 0.497-0.334 0.253-0.063-0.226 0.253-0.054 0.226 0.316-0.045 0.172-0.127 0.316-0.226 0.334-0.226s-0.081 0.154-0.217 0.334c-0.244 0.325-0.244 0.334-0.027 0.181 0.28-0.199 0.425-0.199 0.262-0.009-0.081 0.108 0.036 0.072 0.371-0.090l0.497-0.244-0.316 0.271c-0.353 0.307-0.353 0.316 0.090 0.181 0.334-0.108 2.585-0.172 2.414-0.063-0.054 0.027 0.063 0.090 0.262 0.127 0.497 0.090 1.22 0.434 0.994 0.47-0.136 0.027-0.117 0.063 0.117 0.208 0.145 0.090 0.389 0.334 0.524 0.542 0.235 0.353 0.253 0.461 0.289 1.455l0.027 1.067h-0.28c-0.181 0-0.28-0.045-0.28-0.127 0-0.244-0.551-0.371-1.528-0.344-0.515 0.009-0.976 0.045-1.040 0.081-0.054 0.036-0.117 0.072-0.145 0.081-0.208 0.036-0.362 0.172-0.362 0.307 0 0.235-0.434 0.38-1.040 0.344-0.47-0.027-0.533-0.054-0.542-0.217-0.009-0.108-0.081-0.262-0.154-0.344-0.181-0.181-1.094-0.325-2.070-0.325-0.651 0-0.823 0.027-0.994 0.181-0.208 0.163-0.208 0.172-0.036 0.181s0.172 0.018-0.009 0.090c-0.099 0.036-0.344 0.090-0.542 0.099l-0.353 0.036 0.018-1.311c0.018-0.795 0.081-1.573 0.172-1.962 0.081-0.362 0.127-0.705 0.099-0.768-0.054-0.154 0.172-0.597 0.461-0.913 0.28-0.289 0.795-0.334 1.049-0.090zM21.894 14.044c0.136 0.217 0.145 0.344 0.045 1.437-0.063 0.66-0.154 1.338-0.217 1.501-0.136 0.407-0.506 0.985-0.615 0.985-0.136 0-0.072-3.589 0.072-3.914s0.497-0.334 0.714-0.009zM10.477 14.135c0.172 0.063 0.226 0.362 0.271 1.573 0.027 0.524 0.072 1.247 0.108 1.6 0.072 0.741 0.009 0.814-0.371 0.407-0.506-0.524-0.868-1.546-0.886-2.531-0.027-0.904 0.289-1.275 0.877-1.049zM14.843 15.463c0.38 0.199 0.452 0.506 0.253 1.012-0.244 0.651-0.47 0.768-1.437 0.759-1.157-0.009-1.419-0.117-1.609-0.678-0.217-0.615-0.181-1.040 0.108-1.193 0.344-0.181 2.305-0.108 2.685 0.099zM19.95 15.527c0.145 0.172 0.163 0.298 0.117 0.588-0.136 0.877-0.515 1.121-1.772 1.121-0.886 0.009-1.175-0.136-1.401-0.678-0.154-0.362-0.163-0.904-0.027-0.994 0.316-0.19 1.030-0.298 1.916-0.28 0.922 0.018 0.994 0.027 1.166 0.244zM11.553 16.114c0.226 0.768 0.398 1.094 0.642 1.202 0.289 0.145 1.862 0.253 2.341 0.163 0.398-0.072 0.814-0.488 0.967-0.967 0.127-0.38 0.461-0.687 0.633-0.579 0.054 0.036 0.208 0.316 0.353 0.624 0.371 0.823 0.651 0.994 1.582 0.985 1.003-0.009 1.781-0.163 1.971-0.389 0.081-0.099 0.199-0.407 0.253-0.678 0.127-0.606 0.235-0.696 0.307-0.253 0.108 0.624-0.163 1.564-0.669 2.377-0.145 0.226-0.307 0.588-0.371 0.814-0.136 0.497-0.163 0.524-0.262 0.362-0.072-0.108-0.090-0.099-0.090 0.054 0 0.307-0.271 0.868-0.389 0.823-0.063-0.018-0.154-0.127-0.208-0.235-0.117-0.235-0.488-0.642-0.57-0.624-0.027 0.009-0.117-0.009-0.19-0.045-0.38-0.145-1.049-0.145-1.419-0.009-0.271 0.108-0.479 0.127-0.723 0.081-0.425-0.090-0.651-0.063-0.904 0.099-0.108 0.072-0.262 0.127-0.334 0.127s-0.253 0.099-0.398 0.226c-0.154 0.127-0.307 0.226-0.353 0.226-0.054 0-0.136 0.108-0.19 0.235-0.063 0.127-0.145 0.208-0.19 0.181-0.036-0.027-0.208-0.353-0.371-0.723s-0.325-0.669-0.371-0.66c-0.045 0.009-0.145-0.108-0.235-0.271-0.090-0.154-0.334-0.497-0.542-0.75-0.524-0.633-0.714-1.347-0.669-2.513 0.009-0.307 0.298-0.217 0.398 0.118zM16.579 20.715c0.136 0.072 0.47 0.145 0.75 0.154 0.913 0.036 1.076 0.208 0.66 0.696-0.127 0.154-0.226 0.307-0.226 0.353 0 0.117-0.063 0.127-1.103 0.154-0.624 0.018-0.94 0.063-1.103 0.172-0.127 0.090-0.344 0.154-0.488 0.154-0.136 0-0.307 0.054-0.371 0.108-0.099 0.099-0.117 0.090-0.072-0.036 0.036-0.108-0.036-0.235-0.253-0.398-0.244-0.181-0.316-0.307-0.316-0.524 0-0.506 0.271-0.687 1.058-0.687 0.289-0.009 0.624-0.063 0.75-0.136 0.289-0.163 0.407-0.163 0.714-0.009zM12.547 23.156c0.072 0.054 0.253 0.316 0.416 0.57 0.325 0.515 0.75 0.931 1.211 1.175 0.434 0.226 2.504 0.271 3.191 0.072 0.633-0.181 1.175-0.705 1.546-1.492 0.154-0.307 0.289-0.515 0.307-0.461s0.136-0.063 0.262-0.262c0.127-0.199 0.253-0.362 0.289-0.362 0.045 0 0.072 0.172 0.072 0.38 0 0.217 0.027 0.777 0.054 1.247l0.063 0.859-1.826 1.618c-0.994 0.886-1.907 1.681-2.025 1.772l-0.208 0.163-4.203-3.643 0.054-1.22c0.081-1.727 0.099-1.781 0.416-1.085 0.145 0.316 0.316 0.615 0.38 0.669z"></path>
<path d="M21.568 14.342c-0.090 0.054-0.081 0.090 0.036 0.136 0.127 0.045 0.145 0.136 0.108 0.443-0.027 0.208-0.018 0.461 0.027 0.56 0.054 0.127 0.081-0.018 0.081-0.47 0.009-0.66-0.045-0.795-0.253-0.669z"></path>
<path d="M21.478 15.68c0 0.117-0.090 0.289-0.19 0.389s-0.145 0.181-0.108 0.181c0.172 0 0.389-0.353 0.353-0.56s-0.036-0.208-0.054-0.009z"></path>
<path d="M21.568 16.268c-0.108 0.199-0.163 0.334-0.108 0.307 0.108-0.072 0.398-0.597 0.353-0.642-0.018-0.018-0.127 0.136-0.244 0.334z"></path>
<path d="M9.916 14.641c-0.108 0.145-0.136 0.353-0.108 0.886 0.018 0.371 0.027 0.389 0.090 0.136 0.036-0.154 0.045-0.38 0.027-0.506-0.054-0.316 0.163-0.488 0.443-0.353l0.208 0.099-0.217-0.181c-0.244-0.217-0.316-0.235-0.443-0.081z"></path>
<path d="M10.179 15.952c-0.009 0.217 0.271 0.57 0.452 0.57 0.063 0 0-0.081-0.127-0.181s-0.253-0.271-0.271-0.389l-0.036-0.199-0.018 0.199z"></path>
<path d="M9.989 16.386c0 0.036 0.081 0.163 0.181 0.289s0.181 0.199 0.181 0.163c0-0.036-0.081-0.163-0.181-0.289s-0.181-0.199-0.181-0.163z"></path>
<path d="M17.401 18.844c0 0.217-1.103 0.786-1.492 0.777-0.289-0.009-1.021-0.334-1.157-0.515-0.054-0.063-0.063-0.054-0.045 0.036 0.045 0.163 0.94 0.624 1.238 0.624 0.117 0.009 0.398-0.090 0.633-0.217 0.226-0.117 0.524-0.262 0.669-0.307 0.181-0.072 0.244-0.154 0.244-0.325 0-0.127-0.018-0.226-0.045-0.226s-0.045 0.072-0.045 0.154z"></path>
<path d="M15.186 21.131c0.253 0.045 0.551 0.099 0.678 0.136 0.136 0.036 0.353 0 0.542-0.090 0.298-0.136 0.298-0.145 0.045-0.081-0.145 0.036-0.353 0.063-0.452 0.054s-0.425-0.036-0.723-0.054l-0.542-0.036 0.452 0.072z"></path>
</symbol>


<symbol id="icon-Nick" viewBox="0 0 24 32">
<path d="M9.284 0.095c-0.128 0.139-0.118 0.637 0.021 1.161 0.225 0.872 0.781 2.124 1.252 2.836l0.198 0.3-0.193 0.294c-0.107 0.161-0.289 0.359-0.407 0.439-0.209 0.144-0.278 0.278-0.139 0.278 0.053 0 0.064 0.064 0.043 0.268-0.016 0.161-0.005 0.268 0.032 0.268 0.027 0 0.064 0.048 0.080 0.107 0.027 0.107 0.198 0.155 0.198 0.053 0-0.080 0.359-0.064 0.524 0.021 0.332 0.177 0.583 0.573 0.637 1.001 0.032 0.257 0.027 0.273-0.193 0.476-0.123 0.118-0.209 0.241-0.193 0.268 0.021 0.032 0.059 0.043 0.086 0.021 0.032-0.016 0.037 0.021 0.016 0.107-0.037 0.161 0.048 0.187 0.187 0.064 0.070-0.064 0.134-0.064 0.342-0.021 0.246 0.059 0.252 0.064 0.252 0.262v0.209l-0.235-0.032c-0.193-0.027-0.268-0.011-0.401 0.086-0.316 0.219-0.407 0.503-0.808 2.472-0.203 1.006-0.433 1.894-0.53 2.066-0.037 0.064-0.102-0.005-0.289-0.289-0.235-0.375-0.375-0.503-0.626-0.583-0.075-0.021-0.219-0.139-0.321-0.257-0.171-0.193-0.219-0.214-0.519-0.246-0.241-0.021-0.369-0.064-0.482-0.166-0.337-0.3-0.466-0.375-0.642-0.375-0.487 0-0.738 0.385-0.524 0.803 0.107 0.209 0.337 0.321 0.642 0.321h0.241v0.225c0 0.321-0.139 0.519-0.599 0.856-0.669 0.498-0.856 0.792-0.771 1.241 0.086 0.455 0.61 0.514 1.001 0.118 0.123-0.128 0.198-0.171 0.241-0.134 0.235 0.193 0.706 0.15 0.926-0.080 0.096-0.107 0.161-0.123 0.3-0.102 0.219 0.037 0.503-0.123 0.658-0.369 0.128-0.198 0.080-0.262 0.546 0.787 0.182 0.412 0.38 0.829 0.439 0.92 0.059 0.102 0.091 0.219 0.070 0.278-0.021 0.070 0.005 0.128 0.075 0.177 0.059 0.043 0.102 0.123 0.096 0.177-0.016 0.166 0.316 0.171 0.551 0.016s0.375-0.433 0.45-0.904c0.048-0.337 0.064-0.364 0.166-0.337 0.059 0.021 0.118 0.043 0.128 0.053 0.059 0.053 0.064 0.717 0.011 1.236-0.059 0.551-0.128 0.915-0.567 2.986-0.107 0.498-0.214 1.161-0.241 1.472-0.032 0.444-0.091 0.701-0.268 1.215l-0.23 0.648-0.3 0.139c-0.385 0.171-0.744 0.252-1.188 0.257-0.888 0.016-1.728-0.744-2.585-2.322-0.273-0.514-0.348-0.589-0.391-0.423-0.027 0.102-0.048 0.086-0.268-0.134-0.401-0.396-0.985-0.68-1.043-0.503-0.011 0.037-0.134 0.027-0.353-0.027-0.342-0.091-0.466-0.070-0.417 0.059 0.021 0.059-0.064 0.075-0.471 0.075-0.899 0-1.691 0.209-2.654 0.701-0.888 0.455-1.118 0.76-0.487 0.637 0.353-0.064 0.428-0.064 0.326 0-0.128 0.080-0.011 0.144 0.396 0.209 0.482 0.086 0.712 0.209 1.011 0.54 0.401 0.444 0.701 1.011 1.472 2.799 0.246 0.562 0.3 0.733 0.23 0.722-0.203-0.037 0.086 0.53 0.583 1.124 0.557 0.664 1.29 1.124 2.312 1.461 1.22 0.396 2.247 0.407 3.157 0.027 0.075-0.037 0.080-0.016 0.037 0.166-0.118 0.487-0.118 0.466 0.053 0.567 0.091 0.053 0.166 0.128 0.166 0.166s-0.096 0.214-0.209 0.396c-0.252 0.38-0.321 0.412-1.156 0.46-1.53 0.091-2.274 0.471-2.274 1.172 0 0.316 0.203 0.562 0.594 0.728 0.771 0.332 1.637 0.225 2.542-0.321 0.578-0.348 0.856-0.653 1.14-1.231 0.144-0.289 0.3-0.68 0.353-0.862 0.086-0.294 0.128-0.359 0.316-0.476 0.193-0.123 0.235-0.187 0.369-0.562 0.198-0.583 0.744-1.648 1.156-2.269 0.364-0.546 0.813-1.124 0.872-1.124 0.016 0 0.118 0.096 0.225 0.219 0.214 0.252 0.433 0.824 0.514 1.332 0.096 0.621 0.059 1.723-0.080 2.253-0.032 0.118-0.011 0.15 0.139 0.209l0.166 0.070-0.021 0.364c-0.021 0.252-0.005 0.396 0.043 0.466 0.139 0.198 1.231 0.455 2.36 0.557 1.306 0.112 2.547-0.096 2.975-0.503 0.187-0.177 0.209-0.219 0.182-0.391-0.048-0.284-0.219-0.487-0.557-0.653-0.423-0.203-0.813-0.193-1.942 0.064-0.862 0.193-1.819 0.305-1.819 0.209 0-0.027 0.118-0.112 0.262-0.193 0.252-0.139 0.268-0.161 0.326-0.455 0.037-0.171 0.214-0.733 0.401-1.252 0.182-0.514 0.375-1.097 0.423-1.284 0.15-0.605 0.096-1.991-0.134-3.516l-0.107-0.717 0.235-0.46 0.235-0.466-0.070-0.348c-0.187-0.936-0.364-3.944-0.332-5.672 0.011-0.776 0.027-0.936 0.096-0.936 0.043 0 0.091 0.075 0.112 0.177 0.091 0.439 0.332 0.974 0.508 1.129 0.187 0.166 0.487 0.257 0.648 0.193 0.091-0.032 0.091-0.037-0.005-0.107-0.096-0.075-0.096-0.080 0.043-0.139 0.144-0.064 0.187-0.182 0.080-0.219-0.037-0.011 0.005-0.123 0.102-0.273 0.091-0.144 0.31-0.599 0.492-1.017 0.466-1.060 0.792-1.696 0.888-1.734 0.043-0.016 0.326 0.075 0.626 0.198 0.974 0.401 1.391 0.54 1.563 0.508 0.166-0.032 0.455-0.273 0.455-0.38 0-0.037 0.091-0.139 0.198-0.23 0.161-0.128 0.252-0.166 0.444-0.166 0.476-0.005 0.91-0.342 0.91-0.706 0-0.321-0.391-0.546-0.765-0.433-0.139 0.037-0.187 0.027-0.252-0.043-0.155-0.177-0.53-0.15-0.765 0.059-0.182 0.161-0.187 0.161-0.407 0.080-0.337-0.118-0.359-0.139-0.171-0.219 0.342-0.144 0.396-0.605 0.102-0.915-0.15-0.161-0.305-0.155-0.53 0.011-0.102 0.070-0.241 0.171-0.316 0.225-0.096 0.075-0.23 0.096-0.567 0.096-0.364 0-0.471 0.021-0.589 0.112-0.096 0.070-0.316 0.433-0.605 1.017-0.38 0.744-0.904 1.573-1.006 1.573-0.011 0-0.011-0.021 0.005-0.048 0.016-0.021-0.064-0.278-0.182-0.567-0.118-0.284-0.407-1.134-0.637-1.889-0.359-1.15-0.45-1.391-0.589-1.525-0.123-0.128-0.209-0.166-0.364-0.166-0.112 0-0.241 0.016-0.284 0.037-0.059 0.027-0.112-0.005-0.177-0.118-0.123-0.214-0.118-0.23 0.096-0.187 0.198 0.037 0.246-0.027 0.107-0.139-0.043-0.037-0.080-0.112-0.080-0.166 0-0.284 0.797-0.407 1.113-0.171l0.161 0.118 0.059-0.161c0.048-0.134 0.075-0.155 0.171-0.128 0.123 0.043 0.123 0 0.016-0.268-0.043-0.102-0.037-0.102 0.053-0.011 0.15 0.15 0.203 0.048 0.086-0.177-0.139-0.273-0.139-0.348 0.011-0.246 0.273 0.193 0.268 0.059-0.011-0.294s-0.407-0.792-0.482-1.616c-0.059-0.626-0.053-0.68 0.043-0.872 0.139-0.278 0.364-0.99 0.439-1.407 0.107-0.61 0-0.744-0.514-0.621-0.171 0.043-0.551 0.171-0.84 0.294l-0.519 0.219-0.391-0.134c-0.209-0.075-0.342-0.134-0.289-0.134 0.198-0.011 0.053-0.139-0.166-0.155-0.203-0.016-0.219-0.027-0.171-0.118 0.091-0.177-0.043-0.177-0.31-0.011-0.139 0.086-0.3 0.171-0.359 0.193-0.139 0.037-0.985 0.15-1.118 0.15-0.128-0.005-0.519-0.268-1.423-0.947-0.91-0.685-1.482-1.070-1.835-1.236-0.342-0.155-0.728-0.171-0.856-0.032zM10.258 0.298c0.193 0.102 0.583 0.359 0.862 0.562 0.444 0.321 0.487 0.369 0.353 0.369-0.144 0-0.15 0.011-0.118 0.171l0.032 0.177-0.15-0.177c-0.273-0.326-0.31-0.161-0.059 0.284 0.091 0.161 0.187 0.31 0.214 0.326s-0.037-0.118-0.139-0.294c-0.187-0.321-0.257-0.557-0.102-0.353 0.187 0.252 0.369 0.455 0.412 0.455 0.021 0-0.011-0.096-0.070-0.214-0.15-0.3-0.139-0.342 0.080-0.305 0.118 0.021 0.396 0.182 0.738 0.428 0.3 0.219 0.637 0.444 0.749 0.498 0.107 0.054 0.198 0.112 0.198 0.128 0 0.021-0.102 0.080-0.225 0.128-0.128 0.048-0.289 0.139-0.364 0.198l-0.134 0.107 0.214-0.102c0.316-0.155 0.899-0.31 1.402-0.375 0.417-0.059 0.567-0.112 0.872-0.316 0.118-0.080 0.118-0.070-0.027 0.086l-0.161 0.171 0.15-0.054c0.086-0.032 0.241-0.059 0.348-0.054l0.198 0.005-0.198 0.064c-0.107 0.032-0.214 0.080-0.241 0.107-0.021 0.027-0.016 0.037 0.016 0.016 0.187-0.107 1.247 0.326 1.616 0.664 0.225 0.203 0.203 0.241-0.043 0.091-0.262-0.166-0.321-0.166-0.321 0.005 0 0.123 0.037 0.155 0.262 0.241 0.364 0.128 0.642 0.385 0.712 0.647 0.032 0.118 0.053 0.444 0.053 0.722 0 0.471 0.005 0.482 0.037 0.161l0.032-0.348 0.043 0.519c0.048 0.653 0.198 1.145 0.45 1.472 0.177 0.23 0.182 0.246 0.053 0.161-0.144-0.091-0.144-0.091-0.144 0.027 0 0.070 0.037 0.187 0.075 0.268 0.091 0.166 0.053 0.198-0.059 0.053-0.070-0.080-0.075-0.075-0.053 0.070 0.011 0.086 0.037 0.209 0.064 0.268 0.032 0.086 0.016 0.086-0.070-0.021-0.096-0.118-0.107-0.118-0.102-0.027 0 0.053-0.005 0.166-0.011 0.246l-0.005 0.15-0.214-0.112c-0.171-0.091-0.284-0.107-0.535-0.091-0.503 0.037-0.771 0.294-0.551 0.535 0.096 0.112 0.096 0.112-0.016 0.053-0.102-0.053-0.144-0.032-0.342 0.15-0.273 0.252-0.337 0.268-0.289 0.064 0.118-0.482 0.396-0.765 0.904-0.92 0.503-0.155 0.664-0.219 0.701-0.273 0.016-0.027-0.053-0.016-0.15 0.027s-0.348 0.128-0.557 0.187c-0.209 0.059-0.444 0.161-0.524 0.225-0.166 0.128-0.38 0.53-0.433 0.808-0.021 0.107-0.096 0.246-0.166 0.316-0.144 0.134-0.161 0.257-0.059 0.364 0.053 0.059 0.043 0.070-0.059 0.043s-0.118-0.011-0.086 0.080c0.021 0.070 0.011 0.096-0.021 0.075-0.032-0.016-0.080 0.043-0.112 0.134-0.053 0.155-0.070 0.166-0.257 0.134-0.166-0.027-0.284-0.118-0.605-0.46-0.289-0.31-0.471-0.45-0.653-0.519-0.23-0.091-0.3-0.161-0.824-0.899-0.69-0.979-0.985-1.546-0.985-1.91 0-0.289 0.107-0.546 0.262-0.631 0.118-0.059 0.519-0.064 0.653-0.011 0.053 0.021 0.214 0.225 0.369 0.455 0.546 0.819 1.113 1.124 2.349 1.268 0.45 0.053 0.701 0.118 0.701 0.187 0 0.016-0.096 0.091-0.214 0.166-0.118 0.080-0.203 0.155-0.193 0.171 0.027 0.027 0.391-0.187 0.417-0.246 0.011-0.021 0.091-0.075 0.177-0.118 0.091-0.048 0.209-0.177 0.268-0.294s0.112-0.225 0.118-0.235c0.021-0.037 0.471 0.321 0.54 0.439 0.059 0.102 0.064 0.107 0.053 0.016-0.011-0.059-0.15-0.214-0.31-0.342s-0.316-0.3-0.342-0.38c-0.096-0.289-0.155-0.375-0.289-0.407-0.075-0.016-0.182-0.091-0.235-0.166-0.059-0.070-0.128-0.128-0.161-0.128s-0.016 0.043 0.032 0.102c0.086 0.096 0.080 0.102-0.171 0.102-0.45 0-0.648 0.182-0.535 0.492 0.032 0.107 0.144 0.225 0.284 0.316 0.123 0.075 0.214 0.171 0.198 0.209-0.027 0.086-0.219 0.080-0.792-0.016-0.535-0.096-1.011-0.305-1.348-0.589-0.23-0.198-0.738-0.867-0.696-0.915 0.016-0.011 0.155 0 0.316 0.032 0.305 0.059 0.535 0.166 1.151 0.53 0.209 0.123 0.471 0.235 0.589 0.246 0.182 0.021 0.187 0.021 0.048-0.021-0.209-0.053-0.535-0.225-0.942-0.487-0.359-0.23-0.423-0.252-1.199-0.428-0.498-0.112-0.551-0.112-0.733-0.037-0.278 0.118-0.417 0.364-0.417 0.744 0 0.412 0.284 0.958 0.985 1.905 0.289 0.391 0.514 0.722 0.503 0.733-0.011 0.016-0.214-0.037-0.45-0.112-0.23-0.070-0.631-0.182-0.888-0.246-0.401-0.091-0.482-0.096-0.562-0.037-0.080 0.070-0.080 0.064-0.021-0.048 0.032-0.064 0.086-0.118 0.112-0.118 0.032 0 0.053-0.027 0.053-0.053 0-0.037-0.032-0.037-0.102 0-0.161 0.080-0.203 0.064-0.070-0.032 0.38-0.268 0.348-0.829-0.080-1.402-0.15-0.198-0.482-0.385-0.69-0.385-0.123 0-0.134-0.011-0.075-0.080s0.053-0.075-0.021-0.048c-0.048 0.016-0.112 0.086-0.144 0.144-0.053 0.096-0.064 0.102-0.112 0.016-0.027-0.048-0.037-0.166-0.021-0.262l0.032-0.171-0.086 0.161-0.080 0.161 0.032-0.214c0.021-0.118 0.075-0.257 0.123-0.316 0.086-0.096 0.086-0.096-0.037-0.059-0.096 0.027-0.075-0.011 0.102-0.166 0.187-0.166 0.68-0.856 0.936-1.306 0.091-0.155-0.193 0.128-0.3 0.305-0.059 0.096-0.128 0.177-0.144 0.177-0.053 0-0.294-0.396-0.578-0.963-0.23-0.455-0.257-0.557-0.278-0.953-0.027-0.53 0.027-0.562 0.262-0.144 0.091 0.161 0.177 0.294 0.193 0.294 0.011 0-0.043-0.123-0.123-0.268-0.268-0.492-0.396-0.487-0.401 0.016v0.332l-0.193-0.482c-0.225-0.578-0.444-1.407-0.444-1.691 0-0.433 0.359-0.476 1.011-0.123zM18.001 2.112c0.021 0.048 0.016 0.214-0.005 0.375-0.027 0.225-0.053 0.284-0.112 0.257-0.043-0.016-0.118 0.016-0.161 0.070-0.075 0.096-0.080 0.096-0.043-0.032 0.037-0.155 0.011-0.139-0.086 0.048-0.043 0.080-0.043 0.112-0.005 0.091 0.070-0.043 0.080 0.027 0.021 0.107-0.027 0.027 0.021-0.021 0.107-0.107l0.144-0.161v0.182c0 0.102-0.075 0.417-0.171 0.696l-0.166 0.503-0.091-0.278c-0.15-0.46-0.498-0.883-0.953-1.151-0.219-0.128-0.166-0.198 0.177-0.241 0.139-0.011 0.225-0.043 0.187-0.064-0.075-0.048 0.771-0.364 0.979-0.369 0.086-0.005 0.161 0.027 0.177 0.075zM15.967 5.778c-0.235 0.043-0.407 0.214-0.401 0.396 0.005 0.091 0.011 0.080 0.048-0.037 0.064-0.219 0.203-0.3 0.492-0.305 0.396 0 0.508 0.075 0.546 0.38 0.037 0.284-0.032 0.476-0.225 0.653-0.102 0.091-0.118 0.091-0.273 0.016-0.086-0.048-0.203-0.086-0.252-0.086-0.070 0-0.075-0.016-0.021-0.080 0.037-0.043 0.112-0.080 0.171-0.080 0.139 0 0.369-0.123 0.498-0.273 0.091-0.107 0.080-0.102-0.086 0.021-0.112 0.086-0.262 0.144-0.359 0.144-0.187 0-0.439-0.102-0.439-0.171 0-0.027-0.021-0.037-0.048-0.021-0.053 0.037-0.198-0.118-0.241-0.262-0.059-0.214 0.144-0.348 0.53-0.342l0.268 0.005-0.209 0.043zM13.126 8.427l0.749 0.235 0.401 0.407c0.219 0.219 0.369 0.401 0.332 0.401-0.123 0-0.926-0.428-0.958-0.514-0.016-0.043 0.016-0.128 0.070-0.187 0.080-0.086 0.080-0.102 0.011-0.075-0.048 0.021-0.112 0.096-0.144 0.177-0.070 0.177-0.161 0.845-0.177 1.252-0.005 0.171-0.027 0.31-0.048 0.31-0.053 0-0.669-0.835-1.006-1.365-0.23-0.364-0.273-0.466-0.273-0.69 0-0.305-0.096-0.31 1.043 0.048zM16.278 8.459c0.091 0.225 0.086 0.3-0.032 0.926l-0.059 0.31-0.23-0.487c-0.128-0.268-0.257-0.487-0.294-0.487-0.043 0-0.032 0.032 0.021 0.096 0.053 0.053 0.091 0.123 0.091 0.15 0 0.080-0.294 0.348-0.337 0.305-0.064-0.059-0.043-0.123 0.037-0.091 0.118 0.048 0.161-0.080 0.059-0.193-0.059-0.064-0.075-0.128-0.043-0.177 0.048-0.086 0.61-0.567 0.664-0.573 0.021 0 0.075 0.096 0.123 0.219zM11.852 8.539c0.080 0.021 0.235 0.214 0.439 0.551 0.348 0.562 1.017 1.456 1.108 1.488 0.037 0.011 0.070-0.193 0.096-0.605 0.016-0.348 0.043-0.637 0.053-0.648 0.005-0.011 0.15 0.043 0.31 0.118 0.235 0.107 0.305 0.166 0.326 0.284 0.016 0.086 0.144 0.305 0.284 0.492 0.203 0.278 0.235 0.359 0.187 0.423-0.305 0.423-0.278 0.257-0.401 2.708-0.193 3.783-0.214 4.581-0.118 4.805 0.048 0.112 0.123 0.214 0.166 0.235 0.053 0.016 0.080 0.107 0.080 0.278 0 0.289 0.187 0.599 0.738 1.22 0.23 0.262 0.31 0.321 0.369 0.278 0.059-0.048 0.070 0.011 0.070 0.342 0 0.3-0.048 0.573-0.187 1.065-0.332 1.151-0.514 1.648-0.621 1.648-0.171 0-1.043-0.626-1.552-1.108-0.519-0.498-1.001-1.113-1.258-1.611-0.080-0.15-0.161-0.278-0.187-0.278-0.064 0-0.305 0.332-0.508 0.706-0.161 0.3-0.182 0.321-0.182 0.177 0-0.273 0.139-1.011 0.45-2.408 0.337-1.52 0.482-2.547 0.428-3.098-0.027-0.252-0.016-0.375 0.027-0.401 0.032-0.021 0.107-0.316 0.161-0.653 0.059-0.337 0.155-0.845 0.214-1.134 0.102-0.498 0.123-0.546 0.359-0.776 0.219-0.225 0.46-0.535 0.583-0.76 0.075-0.134-0.048 0-0.407 0.455-0.182 0.23-0.342 0.401-0.353 0.369s0.043-0.235 0.112-0.45c0.075-0.219 0.128-0.401 0.118-0.412-0.112-0.112-0.706 2.21-0.803 3.136-0.016 0.161-0.096 0.193-0.241 0.112-0.118-0.059-0.144-0.252-0.064-0.455 0.037-0.096 0.053-0.091 0.134 0.070 0.053 0.102 0.107 0.166 0.123 0.15 0.059-0.053-0.31-0.551-0.642-0.872-0.353-0.342-0.963-0.765-1.097-0.765-0.048 0-0.064-0.032-0.037-0.096 0.23-0.562 0.348-1.022 0.701-2.756 0.252-1.252 0.396-1.632 0.653-1.771 0.166-0.091 0.203-0.096 0.369-0.053zM17.027 8.619c0.107 0.086 0.187 0.268 0.348 0.787 0.118 0.375 0.31 0.995 0.428 1.386 0.123 0.391 0.316 0.942 0.433 1.225l0.214 0.519-0.107 0.177c-0.123 0.193-1.049 1.092-1.129 1.092-0.027 0-0.048-0.428-0.048-1.060v-1.054l0.161-0.316c0.091-0.171 0.161-0.364 0.161-0.428-0.005-0.064-0.070 0.043-0.15 0.235l-0.139 0.348-0.064-0.241c-0.048-0.182-0.064-0.209-0.070-0.096-0.005 0.139-0.016 0.139-0.455 0.177l-0.45 0.037-0.037 0.241c-0.021 0.134-0.016 0.589 0.005 1.011l0.037 0.771 0.177 0.032c0.102 0.016 0.316 0.016 0.476-0.005l0.294-0.032v1.22c0 2.467 0.134 4.436 0.407 5.967 0.027 0.166 0 0.257-0.166 0.562-0.278 0.498-0.728 1.172-0.985 1.461-0.203 0.235-0.209 0.241-0.241 0.107-0.016-0.075-0.123-0.53-0.241-1.017-0.15-0.615-0.214-1.022-0.225-1.338-0.011-0.45-0.005-0.46 0.246-0.931l0.257-0.471-0.037-0.706c-0.070-1.37-0.353-5.34-0.46-6.496-0.037-0.401-0.091-0.647-0.209-0.926-0.128-0.305-0.15-0.407-0.107-0.546 0.027-0.091 0.048-0.268 0.048-0.385 0-0.187 0.032-0.241 0.262-0.439l0.262-0.225 0.268 0.717 0.053-0.214c0.032-0.118 0.091-0.433 0.128-0.696 0.032-0.268 0.091-0.498 0.123-0.519 0.107-0.080 0.391-0.043 0.53 0.070zM14.351 9.54c-0.096 0.053-0.738-0.278-0.76-0.396-0.011-0.064 0.091-0.032 0.412 0.134 0.305 0.155 0.407 0.23 0.348 0.262zM15.63 9.417c-0.257 0.235-0.273 0.262-0.305 0.594-0.048 0.433-0.075 0.476-0.332 0.508-0.198 0.021-0.219 0.011-0.401-0.23-0.273-0.364-0.396-0.594-0.348-0.642 0.021-0.021 0.273-0.043 0.557-0.043h0.514l0.235-0.252c0.134-0.139 0.262-0.241 0.294-0.219s-0.059 0.139-0.214 0.284zM15.363 9.347c0.043 0.037-0.059 0.177-0.123 0.177-0.027 0-0.032-0.048-0.016-0.107 0.027-0.107 0.080-0.134 0.139-0.070zM22.137 9.732c0.134 0.182 0.144 0.417 0.032 0.578-0.096 0.139-0.412 0.252-0.589 0.209-0.070-0.016-0.144-0.011-0.161 0.021-0.021 0.032 0.043 0.053 0.15 0.053 0.246 0 0.262 0.032 0.091 0.214-0.102 0.112-0.203 0.161-0.31 0.161-0.091 0-0.177 0.016-0.187 0.037-0.016 0.027 0.075 0.032 0.203 0.027 0.177-0.016 0.246-0.048 0.294-0.144 0.096-0.182 0.182-0.198 0.508-0.091 0.278 0.086 0.294 0.096 0.294 0.278 0 0.198 0.075 0.369 0.134 0.31 0.021-0.016 0.011-0.080-0.021-0.139-0.032-0.064-0.059-0.155-0.059-0.209 0-0.128 0.123-0.364 0.187-0.369 0.032 0 0.123-0.037 0.203-0.075 0.134-0.064 0.177-0.064 0.294 0 0.177 0.102 0.235 0.326 0.166 0.642-0.075 0.364-0.476 0.883-0.476 0.621 0-0.128-0.209-0.342-0.375-0.38-0.118-0.027-0.144-0.053-0.123-0.123 0.032-0.080 0.021-0.080-0.053-0.021-0.161 0.134-0.487 0.278-0.626 0.278-0.086 0-0.193-0.059-0.273-0.139-0.273-0.3-0.722-0.412-1.038-0.262-0.107 0.053-0.123 0.070-0.037 0.048 0.225-0.053 0.583-0.032 0.738 0.048 0.086 0.043 0.316 0.225 0.508 0.407l0.353 0.321 0.171-0.209c0.096-0.118 0.144-0.214 0.118-0.214s-0.096 0.070-0.15 0.161c-0.102 0.177-0.177 0.209-0.177 0.075 0-0.214 0.102-0.289 0.385-0.278 0.444 0.005 0.599 0.289 0.364 0.669-0.166 0.278-0.359 0.278-1.049 0.016-1.525-0.589-1.456-0.578-1.664-0.257-0.166 0.262-0.669 1.322-0.926 1.926-0.091 0.23-0.262 0.557-0.375 0.733-0.177 0.273-0.193 0.321-0.118 0.342 0.059 0.016 0.032 0.037-0.080 0.064-0.171 0.037-0.241 0.128-0.107 0.139 0.048 0 0.048 0.011 0 0.027-0.123 0.053-0.391-0.144-0.503-0.369-0.171-0.326-0.428-1.124-0.385-1.161 0.027-0.016 0.219-0.198 0.439-0.407l0.396-0.369-0.171 0.3c-0.091 0.166-0.166 0.332-0.166 0.375 0.005 0.043 0.048-0.005 0.096-0.102 0.053-0.096 0.112-0.161 0.134-0.139s0.037 0.011 0.037-0.021c0-0.075 0.316-0.439 0.38-0.439 0.027 0 0 0.096-0.059 0.214-0.059 0.112-0.107 0.23-0.107 0.252 0.005 0.048 0.262-0.417 0.268-0.482 0.005-0.080-0.134-0.032-0.289 0.107l-0.161 0.15 0.144-0.187c0.738-0.958 0.878-1.161 1.241-1.91 0.466-0.953 0.557-1.043 1.043-1.027 0.482 0.011 0.514 0.005 0.808-0.219 0.342-0.257 0.482-0.268 0.631-0.059zM15.341 10.744c0.053 0.107 0.128 0.294 0.161 0.417 0.032 0.118 0.166 1.728 0.3 3.585 0.134 1.851 0.257 3.548 0.273 3.767 0.037 0.45 0.005 0.54-0.423 1.225l-0.219 0.348-0.31-0.348c-0.171-0.187-0.396-0.466-0.498-0.61l-0.182-0.268-0.032-1.873c-0.016-1.033-0.011-2.788 0.011-3.912l0.043-2.039 0.15-0.219c0.193-0.294 0.359-0.31 0.359-0.037 0 0.209 0.112 0.53 0.214 0.589 0.037 0.021 0.032-0.027-0.021-0.123-0.128-0.246-0.171-0.599-0.080-0.658 0.118-0.075 0.15-0.059 0.257 0.155zM24.149 10.835c0.321 0.321 0 0.765-0.626 0.856l-0.252 0.037 0.128-0.31c0.080-0.203 0.118-0.364 0.096-0.466-0.037-0.187 0.037-0.252 0.321-0.252 0.144 0 0.241 0.037 0.332 0.134zM7.635 11.536c0.252 0.23 0.31 0.252 0.631 0.289 0.31 0.032 0.369 0.053 0.514 0.214 0.091 0.102 0.278 0.235 0.412 0.3 0.203 0.096 0.294 0.182 0.455 0.455 0.262 0.439 0.524 0.765 0.835 1.049 0.187 0.171 0.246 0.268 0.252 0.391 0.005 0.139-0.011 0.155-0.070 0.107-0.198-0.166-0.246 0.15-0.075 0.487 0.144 0.289 0.187 0.235 0.048-0.064-0.059-0.128-0.107-0.278-0.107-0.337 0-0.086 0.021-0.086 0.182 0.043l0.187 0.139-0.053-0.171c-0.096-0.342-0.021-0.326 0.225 0.053 0.102 0.161 0.15 0.203 0.123 0.118-0.053-0.187-0.177-0.353-0.578-0.749-0.342-0.337-0.428-0.482-0.278-0.482 0.096 0 0.701 0.471 1.011 0.792l0.257 0.262-0.053 0.316c-0.182 0.985-0.219 1.156-0.305 1.338-0.107 0.225-0.519 0.455-0.626 0.348-0.043-0.043-0.021-0.059 0.075-0.059 0.112-0.005 0.107-0.016-0.070-0.112-0.225-0.112-0.268-0.182-0.091-0.128 0.112 0.037 0.112 0.032-0.016-0.139-0.203-0.273-0.316-0.519-0.423-0.915-0.112-0.45-0.037-0.417 0.198 0.086 0.15 0.321 0.177 0.353 0.182 0.219 0-0.091-0.021-0.241-0.053-0.342l-0.053-0.182 0.15 0.134c0.080 0.075 0.198 0.166 0.268 0.203 0.118 0.059 0.123 0.053 0.064-0.053-0.032-0.059-0.080-0.096-0.102-0.080-0.027 0.011-0.134-0.075-0.246-0.193-0.214-0.241-0.273-0.246-0.187-0.027 0.102 0.268 0.053 0.278-0.091 0.016-0.144-0.252-0.284-0.332-0.284-0.161-0.005 0.053-0.112-0.118-0.241-0.385l-0.241-0.482 0.112-0.326c0.064-0.182 0.102-0.375 0.091-0.428-0.016-0.064-0.043-0.021-0.070 0.112-0.102 0.519-0.578 1.151-0.872 1.151-0.391 0-0.642-0.551-0.391-0.862 0.139-0.171 0.471-0.171 0.712 0l0.177 0.123-0.177-0.166c-0.225-0.214-0.519-0.23-0.744-0.037-0.139 0.118-0.155 0.123-0.316 0.043-0.23-0.107-0.498-0.048-0.637 0.139-0.086 0.118-0.107 0.23-0.107 0.599v0.45l-0.182 0.123c-0.466 0.316-0.808 0.182-0.808-0.316 0-0.235 0.219-0.583 0.482-0.765 0.219-0.155 0.23-0.155 0.3-0.053 0.134 0.182-0.016 0.615-0.321 0.91-0.134 0.128-0.139 0.139-0.032 0.075 0.177-0.112 0.364-0.391 0.433-0.647 0.043-0.177 0.037-0.235-0.032-0.348-0.086-0.128-0.086-0.139 0.021-0.214 0.369-0.257 0.546-0.594 0.524-0.99l-0.011-0.198-0.273 0.005c-0.417 0.016-0.69-0.209-0.653-0.535 0.016-0.123 0.043-0.144 0.203-0.161 0.144-0.011 0.246 0.027 0.428 0.155 0.171 0.123 0.209 0.139 0.134 0.053-0.144-0.161-0.364-0.273-0.546-0.273-0.144-0.005-0.144-0.005-0.048-0.080 0.059-0.043 0.193-0.080 0.305-0.080 0.161 0 0.252 0.048 0.471 0.246zM17.102 12.408l0.021 0.974-0.894-0.032-0.016-0.947-0.011-0.947 0.385-0.016c0.214-0.011 0.417-0.016 0.444-0.016 0.032 0.005 0.059 0.385 0.070 0.985zM21.875 11.771c0 0.059-0.011 0.107-0.016 0.107-0.011 0-0.064-0.048-0.118-0.107-0.096-0.102-0.091-0.107 0.016-0.107 0.080 0 0.118 0.032 0.118 0.107zM8.021 13.537c0.070 0.037 0.102 0.112 0.102 0.235 0 0.102 0.059 0.262 0.134 0.38 0.128 0.187 0.134 0.209 0.053 0.294-0.225 0.252-0.658 0.268-0.878 0.032-0.182-0.193-0.161-0.674 0.037-0.904 0.091-0.102 0.385-0.123 0.551-0.037zM14.319 16.373c0.005 1.060 0 1.926-0.016 1.926s-0.064-0.091-0.107-0.203c-0.075-0.177-0.080-0.353-0.027-1.536 0.059-1.348 0.107-2.114 0.128-2.114 0.005 0 0.016 0.867 0.021 1.926zM5.019 20.098l0.294 0.134-0.155-0.161c-0.177-0.187-0.155-0.209 0.064-0.075 0.294 0.182 0.615 0.466 0.765 0.68l0.161 0.214-0.037-0.225c-0.021-0.123-0.021-0.225 0-0.225 0.016 0 0.144 0.225 0.278 0.492 0.332 0.669 0.658 1.156 1.038 1.536 0.278 0.284 0.294 0.31 0.144 0.246-0.316-0.123-0.396 0-0.166 0.268l0.139 0.161-0.118-0.177c-0.070-0.102-0.102-0.198-0.075-0.225s0.316 0.080 0.664 0.241c0.557 0.268 0.648 0.294 0.985 0.294 0.396 0 0.894-0.112 1.231-0.273 0.118-0.053 0.219-0.091 0.235-0.080 0.011 0.016-0.027 0.252-0.091 0.524-0.144 0.669-0.209 1.247-0.273 2.585-0.053 1.081-0.075 1.375-0.139 1.803-0.027 0.187-0.043 0.203-0.385 0.321-0.503 0.171-1.696 0.171-2.344 0-1.429-0.38-2.317-0.936-3.040-1.905-0.112-0.144-0.246-0.359-0.31-0.482l-0.107-0.219 0.166 0.155c0.091 0.091 0.166 0.144 0.166 0.123 0-0.032-0.102-0.268-0.332-0.76-0.054-0.118-0.257-0.589-0.45-1.043-0.476-1.14-0.835-1.771-1.225-2.167-0.273-0.278-0.375-0.342-0.647-0.417-0.177-0.048-0.391-0.091-0.476-0.091-0.112 0-0.139-0.016-0.096-0.059 0.032-0.032 0.161-0.053 0.278-0.037 0.144 0.011 0.198 0 0.161-0.037-0.027-0.027-0.305-0.053-0.61-0.053-0.535 0-0.551-0.005-0.466-0.102 0.144-0.155 1.332-0.712 1.841-0.856 0.771-0.219 1.589-0.278 2.317-0.166l0.161 0.027-0.171-0.080c-0.091-0.043-0.182-0.102-0.203-0.128-0.043-0.070 0.46 0.075 0.829 0.241zM11.991 20.708c0.235 0.471 0.23 0.487-0.112 0.867-0.235 0.262-0.53 0.417-0.792 0.417-0.182 0-0.193-0.005-0.155-0.15 0.086-0.348 0.733-1.573 0.829-1.557 0.016 0 0.118 0.193 0.23 0.423zM15.716 21.393c0.005 0.246-0.23 1.295-0.412 1.83-0.193 0.557-0.407 0.99-0.53 1.070-0.086 0.053-0.086 0.059 0.011 0.027 0.171-0.053 0.985-0.508 1.022-0.567 0.016-0.032-0.032-0.016-0.118 0.037l-0.155 0.102 0.118-0.166c0.064-0.091 0.177-0.337 0.246-0.551 0.107-0.321 0.139-0.369 0.171-0.273 0.037 0.112 0.043 0.112 0.252-0.086 0.118-0.118 0.3-0.326 0.407-0.471l0.193-0.262 0.139 0.155c0.123 0.144 0.144 0.235 0.214 0.904 0.043 0.412 0.080 1.193 0.080 1.739v0.99l-0.412 1.231c-0.225 0.674-0.428 1.322-0.444 1.434-0.032 0.187-0.059 0.219-0.337 0.342-0.423 0.198-0.953 0.225-1.354 0.075l-0.305-0.118 0.086-0.305c0.128-0.444 0.123-1.942-0.011-2.413-0.123-0.45-0.353-0.904-0.562-1.097-0.091-0.086-0.15-0.177-0.128-0.209 0.016-0.027-0.048 0.005-0.144 0.075s-0.342 0.359-0.557 0.637c-0.621 0.824-1.172 1.857-1.477 2.756-0.128 0.391-0.161 0.439-0.369 0.557-0.353 0.193-1.113 0.166-1.413-0.059-0.080-0.064-0.080-0.091-0.011-0.321 0.118-0.396 0.187-0.985 0.268-2.371 0.118-1.905 0.209-2.504 0.54-3.601l0.134-0.439h0.252c0.332 0 0.685-0.219 0.953-0.589l0.198-0.278 0.139 0.182c0.551 0.706 1.279 1.37 1.959 1.777 0.471 0.284 0.519 0.268 0.685-0.198 0.134-0.375 0.316-0.958 0.498-1.616 0.075-0.257 0.102-0.3 0.134-0.214 0.021 0.059 0.043 0.187 0.043 0.284zM15.855 23.105c-0.171 0.503-0.369 0.76-0.583 0.76-0.118 0-0.134-0.016-0.096-0.096 0.107-0.209 0.337-0.92 0.439-1.375 0.059-0.268 0.123-0.54 0.144-0.615 0.021-0.102 0.059-0.005 0.139 0.375l0.107 0.503-0.15 0.45zM17.134 22.040c0.027 0.155 0.021 0.171-0.048 0.112-0.086-0.070-0.107-0.225-0.043-0.284 0.043-0.048 0.048-0.043 0.091 0.171zM15.266 24.025c-0.144 0.086-0.273 0.144-0.284 0.134-0.059-0.053 0.144-0.241 0.284-0.257 0.086-0.011 0.187-0.021 0.214-0.027 0.032-0.005-0.064 0.064-0.214 0.15zM19.515 28.874c0.359 0.107 0.69 0.401 0.733 0.664l0.037 0.187-0.214-0.225c-0.252-0.273-0.605-0.444-0.899-0.439l-0.214 0.005 0.235 0.048c0.46 0.091 0.969 0.439 0.969 0.664 0 0.096-0.599 0.391-0.626 0.31-0.139-0.417-0.749-0.771-1.129-0.658-0.128 0.037-0.112 0.043 0.096 0.048 0.316 0.005 0.69 0.198 0.84 0.428 0.070 0.102 0.123 0.198 0.123 0.219 0 0.075-0.621 0.166-1.349 0.198-0.664 0.027-0.738 0.021-0.738-0.053 0-0.053-0.043-0.091-0.091-0.091-0.080 0-0.086 0.011-0.016 0.053 0.3 0.193-1.718-0.112-2.274-0.342-0.203-0.086-0.225-0.187-0.155-0.626l0.032-0.187 0.262 0.053c0.177 0.037 0.348 0.037 0.53 0 0.219-0.048 0.268-0.043 0.278 0.021 0.011 0.059 0.107 0.080 0.391 0.080 0.45 0 0.642-0.032 1.579-0.23 1.092-0.235 1.209-0.246 1.6-0.128zM11.103 29.077c0.021 0.021-0.342 0.974-0.444 1.161-0.053 0.102-0.091 0.203-0.086 0.225 0.005 0.027-0.139 0.198-0.321 0.38-0.551 0.551-1.381 0.947-2.114 1.022-0.332 0.032-0.391 0.027-0.391-0.043 0-0.278 0.321-0.755 0.637-0.958 0.294-0.187 0.235-0.198-0.075-0.016-0.252 0.144-0.54 0.546-0.594 0.824-0.037 0.166-0.048 0.177-0.225 0.144-0.102-0.016-0.294-0.080-0.433-0.15-0.209-0.102-0.241-0.144-0.23-0.257 0.048-0.337 0.417-0.76 0.824-0.936 0.096-0.043 0.144-0.075 0.107-0.080-0.086 0-0.433 0.182-0.583 0.31-0.166 0.15-0.391 0.492-0.391 0.605 0 0.198-0.171 0.080-0.23-0.155-0.080-0.342 0.246-0.755 0.749-0.936 0.246-0.086 1.065-0.252 1.258-0.252 0.059 0 0.080 0.027 0.064 0.080-0.027 0.064 0.016 0.080 0.225 0.075l0.262-0.011-0.214-0.032c-0.257-0.037-0.198-0.091 0.161-0.139 0.15-0.021 0.342-0.059 0.439-0.086 0.203-0.064 0.514-0.396 0.605-0.648l0.070-0.182 0.46 0.021c0.252 0.011 0.466 0.027 0.471 0.032z"></path>
<path d="M10.691 1.465c0 0.070 0.037 0.209 0.086 0.305 0.053 0.118 0.070 0.134 0.048 0.048-0.123-0.46-0.102-0.466 0.235-0.016 0.182 0.246 0.348 0.444 0.364 0.444 0.011 0-0.027-0.064-0.086-0.15-0.064-0.080-0.214-0.284-0.332-0.455-0.23-0.332-0.316-0.38-0.316-0.177z"></path>
<path d="M10.316 1.872c0 0.086 0.037 0.268 0.080 0.401 0.048 0.134 0.075 0.262 0.059 0.284-0.032 0.048 0.177 0.412 0.209 0.375 0.016-0.016-0.037-0.177-0.107-0.369-0.15-0.375-0.23-0.797-0.155-0.797 0.027 0 0.112 0.037 0.182 0.086l0.134 0.086-0.128-0.112c-0.177-0.161-0.273-0.144-0.273 0.048z"></path>
<path d="M15.106 2.466c-0.086 0.027-0.476 0.043-0.862 0.043-0.738-0.005-0.84 0.021-1.22 0.289-0.161 0.112-0.621 0.706-0.621 0.803 0 0.032 0.070-0.048 0.15-0.182 0.086-0.128 0.241-0.31 0.342-0.401 0.31-0.273 0.498-0.31 1.439-0.273 0.68 0.027 0.856 0.021 0.936-0.043 0.053-0.043 0.080-0.080 0.053-0.080s-0.011-0.043 0.027-0.091c0.043-0.048 0.048-0.075 0.011-0.054-0.032 0.021-0.070 0.016-0.080-0.005-0.005-0.027-0.086-0.027-0.177-0.005z"></path>
<path d="M13.864 3.316c-0.123 0.027-0.3 0.086-0.401 0.134-0.246 0.128-0.626 0.508-0.594 0.594 0.016 0.043 0.048 0.059 0.075 0.043 0.112-0.070 0.262 0.043 0.262 0.193 0 0.203 0.23 0.466 0.466 0.53 0.219 0.059 0.53-0.037 0.583-0.182 0.037-0.091 0.182-0.070 0.364 0.059 0.096 0.064 0.091 0.075-0.080 0.177-0.102 0.064-0.155 0.112-0.123 0.112 0.027 0 0.134-0.059 0.23-0.128l0.177-0.128-0.235-0.139c-0.273-0.155-0.942-0.423-1.327-0.519-0.144-0.037-0.268-0.096-0.268-0.134 0-0.091 0.289-0.31 0.589-0.444 0.177-0.080 0.353-0.112 0.653-0.112 0.391 0 0.423 0.005 0.508 0.144 0.075 0.112 0.096 0.257 0.096 0.637 0 0.348 0.016 0.471 0.053 0.407 0.091-0.155 0.064-0.771-0.048-1.011-0.080-0.182-0.128-0.225-0.294-0.252-0.235-0.037-0.396-0.032-0.685 0.021zM13.42 4.296c0 0.161 0.144 0.294 0.364 0.337 0.134 0.027 0.171 0.016 0.171-0.053 0-0.053 0.048-0.086 0.134-0.086 0.161 0 0.182 0.134 0.032 0.214-0.161 0.086-0.503 0.064-0.626-0.043-0.214-0.171-0.316-0.492-0.155-0.492 0.048 0 0.080 0.048 0.080 0.123z"></path>
<path d="M15.095 3.926c-0.070 0.573-0.219 0.969-0.407 1.054-0.166 0.075-1.038-0.021-1.279-0.144-0.096-0.048-0.241-0.161-0.326-0.252-0.096-0.107-0.134-0.123-0.112-0.059 0.027 0.075-0.011 0.059-0.134-0.059-0.241-0.219-0.391-0.439-0.433-0.637-0.037-0.144-0.043-0.15-0.048-0.032-0.011 0.3 0.471 0.819 1.006 1.086 0.284 0.139 0.417 0.171 0.803 0.187 0.439 0.021 0.476 0.016 0.626-0.118 0.193-0.161 0.321-0.546 0.375-1.145 0.053-0.557 0-0.476-0.070 0.118z"></path>
<path d="M16.154 3.825c-0.064 0.198-0.112 0.385-0.107 0.423 0 0.032 0.059-0.123 0.128-0.342s0.118-0.407 0.107-0.417c-0.011-0.011-0.070 0.139-0.128 0.337z"></path>
<path d="M16.459 4.178c-0.112 0.053-0.257 0.187-0.332 0.294-0.080 0.118-0.139 0.161-0.15 0.118-0.016-0.037-0.043 0.021-0.064 0.139-0.053 0.278-0.011 0.3 0.107 0.053 0.134-0.284 0.471-0.61 0.631-0.61s0.433 0.305 0.487 0.535c0.021 0.096 0.021 0.305 0 0.466-0.032 0.246-0.048 0.284-0.123 0.252-0.118-0.048-0.856-0.316-1.011-0.364-0.102-0.032-0.123-0.021-0.123 0.075 0 0.091-0.021 0.107-0.091 0.080-0.407-0.171-0.498-0.187-0.936-0.128-0.246 0.032-0.455 0.070-0.46 0.075-0.011 0.011 0.246 0.016 0.567 0.011 0.54-0.011 0.605 0 0.76 0.112 0.214 0.161 0.642 0.214 0.642 0.086 0-0.059 0.027-0.075 0.086-0.053 0.048 0.016 0.107 0.032 0.134 0.032 0.112 0 0.037 0.118-0.123 0.187-0.123 0.053-0.144 0.075-0.075 0.080 0.059 0 0.161-0.053 0.23-0.118 0.112-0.102 0.139-0.107 0.268-0.043 0.086 0.043 0.166 0.075 0.193 0.075 0.107 0.011 0.005 0.118-0.166 0.177l-0.198 0.070 0.187-0.027c0.246-0.037 0.439-0.182 0.492-0.375 0.021-0.086 0.016-0.128-0.005-0.102-0.027 0.027-0.059 0.096-0.070 0.155s-0.053 0.107-0.096 0.107c-0.048 0-0.070-0.032-0.059-0.080 0.048-0.15 0.070-0.701 0.037-0.835-0.032-0.123-0.433-0.562-0.508-0.557-0.016 0.005-0.123 0.053-0.23 0.112z"></path>
<path d="M14.651 7.71l-0.562 0.096 0.407-0.027c0.225-0.011 0.514-0.059 0.642-0.096 0.31-0.096 0.193-0.091-0.487 0.027z"></path>
<path d="M14.555 8.068c-0.209 0.075-0.375 0.144-0.364 0.161 0.037 0.037 0.583-0.139 0.701-0.225 0.134-0.102 0.134-0.102-0.337 0.064z"></path>
<path d="M17.182 2.503c-0.128 0.080-0.23 0.161-0.23 0.182s0.107-0.037 0.241-0.128c0.198-0.139 0.252-0.155 0.321-0.096s0.075 0.054 0.048-0.021c-0.048-0.118-0.118-0.107-0.38 0.064z"></path>
<path d="M17.621 2.567c-0.021 0.032-0.053 0.043-0.080 0.027-0.021-0.016-0.053 0.011-0.075 0.054-0.037 0.102 0.043 0.102 0.128 0 0.037-0.043 0.086-0.064 0.112-0.048s0.048 0 0.048-0.027c0-0.075-0.091-0.075-0.134-0.005z"></path>
<path d="M12.457 17.62c0 0.064 0.337 0.599 0.562 0.888 0.128 0.166 0.396 0.455 0.594 0.648l0.359 0.348-0.423-0.471c-0.23-0.257-0.573-0.69-0.755-0.958-0.187-0.273-0.337-0.476-0.337-0.455z"></path>
<path d="M21.634 9.925c-0.102 0.107-0.187 0.23-0.182 0.284 0 0.075 0.011 0.075 0.048-0.016 0.064-0.161 0.332-0.391 0.482-0.417 0.134-0.021 0.134-0.021-0.011-0.032-0.102-0.005-0.203 0.053-0.337 0.182z"></path>
<path d="M22.694 11.049c0 0.177 0.011 0.241 0.021 0.144s0.011-0.241 0-0.321c-0.011-0.080-0.021 0-0.021 0.177z"></path>
<path d="M18.627 13.361c-0.070 0.144-0.086 0.209-0.043 0.155 0.059-0.075 0.080-0.086 0.080-0.027 0.005 0.053 0.016 0.048 0.059-0.021 0.032-0.053 0.048-0.155 0.037-0.225-0.016-0.118-0.032-0.107-0.134 0.118z"></path>
<path d="M18.857 13.387l-0.096 0.177 0.112-0.134c0.059-0.075 0.112-0.118 0.112-0.096 0 0.070-0.23 0.658-0.31 0.792-0.086 0.134-0.086 0.134 0.075-0.011 0.086-0.080 0.198-0.225 0.252-0.321l0.102-0.177-0.112 0.134c-0.134 0.161-0.139 0.139-0.032-0.161 0.139-0.391 0.075-0.519-0.102-0.203z"></path>
<path d="M24.154 11.006c-0.021 0.021-0.166 0.053-0.316 0.075l-0.278 0.032 0.246 0.011c0.139 0 0.284-0.027 0.348-0.075 0.053-0.043 0.086-0.080 0.070-0.080s-0.048 0.016-0.070 0.037z"></path>
<path d="M8.727 12.815l-0.219 0.187-0.225-0.080c-0.123-0.043-0.278-0.080-0.342-0.075-0.246 0.005 0.444 0.166 0.797 0.182 0.3 0.011 0.321 0.011 0.107-0.016l-0.268-0.037 0.23-0.155c0.123-0.086 0.225-0.161 0.225-0.171 0-0.064-0.112 0-0.305 0.166z"></path>
<path d="M7.587 13.029c-0.070 0.075-0.118 0.139-0.102 0.15 0.011 0.005 0.086-0.053 0.166-0.134s0.123-0.15 0.102-0.15c-0.021 0-0.096 0.059-0.166 0.134z"></path>
<path d="M9.144 13.066c0.011 0.011 0.096 0.075 0.182 0.15l0.161 0.134-0.128-0.15c-0.075-0.080-0.155-0.144-0.182-0.144-0.032 0-0.043 0.005-0.032 0.011z"></path>
<path d="M16.47 11.878l-0.187 0.037 0.171 0.011c0.091 0 0.187-0.021 0.203-0.048 0.016-0.032 0.027-0.048 0.016-0.048-0.011 0.005-0.102 0.027-0.203 0.048z"></path>
<path d="M6.736 22.832c-0.011 0.182 0.31 0.546 0.76 0.856 0.225 0.161 0.412 0.278 0.412 0.262s-0.144-0.128-0.326-0.252c-0.417-0.284-0.733-0.605-0.792-0.819-0.037-0.123-0.048-0.139-0.053-0.048z"></path>
<path d="M6.303 23.442c0 0.032 0.123 0.182 0.278 0.332l0.273 0.278-0.252-0.284c-0.144-0.155-0.246-0.3-0.23-0.316s0.134 0.043 0.262 0.134c0.241 0.161 0.578 0.348 0.578 0.316 0-0.037-0.792-0.519-0.851-0.519-0.032 0-0.059 0.027-0.059 0.059z"></path>
<path d="M5.741 23.603c-0.032 0.048 0.209 0.476 0.273 0.476 0.011 0-0.037-0.091-0.112-0.198-0.246-0.364-0.193-0.369 0.401-0.016 0.252 0.144 0.476 0.268 0.508 0.268 0.027 0-0.177-0.134-0.455-0.294-0.546-0.316-0.567-0.321-0.615-0.235z"></path>
<path d="M5.045 23.849c0.016 0.086 0.107 0.262 0.193 0.396 0.177 0.278 0.813 0.91 1.011 1.006l0.134 0.064-0.134-0.091c-0.46-0.316-1.274-1.332-1.156-1.45 0.016-0.016 0.15 0.043 0.3 0.134 0.332 0.209 0.353 0.182 0.032-0.043-0.31-0.209-0.433-0.214-0.38-0.016z"></path>
<path d="M6.993 24.127c0.070 0.064 0.15 0.112 0.182 0.112 0.064 0 0.059 0-0.15-0.128l-0.161-0.091 0.128 0.107z"></path>
<path d="M3.841 24.502c0 0.032 0.021 0.053 0.054 0.043 0.027-0.005 0.235 0.182 0.455 0.417l0.407 0.428-0.38-0.455c-0.359-0.423-0.535-0.567-0.535-0.433z"></path>
<path d="M4.558 24.587c-0.037 0.091 0.214 0.631 0.342 0.738 0.043 0.032 0.005-0.059-0.086-0.203-0.289-0.476-0.278-0.637 0.027-0.38 0.187 0.161 0.744 0.514 0.803 0.514 0.021 0-0.075-0.075-0.225-0.166-0.144-0.096-0.364-0.246-0.482-0.337-0.305-0.246-0.342-0.262-0.38-0.166z"></path>
<path d="M10.375 24.994c-0.011 0.444 0.498 1.819 0.819 2.215 0.048 0.059-0.032-0.134-0.177-0.428-0.294-0.599-0.455-1.070-0.562-1.611-0.059-0.284-0.075-0.326-0.080-0.177z"></path>
<path d="M16.684 26.765c-0.102 0.15-0.401 0.487-0.669 0.755-0.262 0.268-0.433 0.455-0.369 0.423 0.284-0.15 1.327-1.343 1.247-1.423-0.011-0.011-0.107 0.102-0.209 0.246z"></path>
<path d="M10.236 28.542c0.102 0.053 0.305 0.080 0.562 0.075l0.401-0.005-0.455-0.037c-0.252-0.021-0.503-0.053-0.562-0.075-0.059-0.016-0.032 0 0.053 0.043z"></path>
<path d="M14.822 28.579c0.037 0.027 0.193 0.043 0.337 0.043 0.321-0.005 0.268-0.032-0.123-0.064-0.171-0.011-0.257-0.005-0.214 0.021z"></path>
<path d="M15.764 28.611c0.064 0.011 0.171 0.011 0.241 0 0.064-0.011 0.011-0.021-0.123-0.021s-0.187 0.011-0.118 0.021z"></path>
<path d="M17.086 29.377c0.123 0.048 0.086 0.070-0.268 0.161l-0.214 0.053 0.241-0.032c0.235-0.027 0.375-0.096 0.375-0.187 0-0.027-0.053-0.048-0.118-0.043-0.118 0-0.118 0.005-0.016 0.048z"></path>
<path d="M16.807 29.735c0.171 0.011 0.294 0.043 0.284 0.064-0.016 0.021 0.032 0.032 0.102 0.016 0.284-0.053 0.112-0.118-0.278-0.107-0.375 0.011-0.385 0.011-0.107 0.027z"></path>
<path d="M16.882 29.922c0.011 0.027 0.128 0.043 0.262 0.043 0.128 0 0.235 0.021 0.235 0.053 0 0.027 0.027 0.053 0.059 0.053 0.043 0 0.043-0.021 0-0.075-0.064-0.075-0.605-0.144-0.557-0.075z"></path>
<path d="M9.262 30.056c0.080 0.011 0.198 0.011 0.268 0 0.064-0.011 0-0.021-0.15-0.021-0.144 0-0.203 0.011-0.118 0.021z"></path>
<path d="M9.396 30.286c-0.096 0.086-0.144 0.161-0.107 0.161s0.080-0.037 0.096-0.080c0.021-0.043 0.059-0.064 0.096-0.043 0.032 0.016 0.037 0.011 0.016-0.011-0.021-0.027 0.016-0.080 0.080-0.118 0.070-0.037 0.091-0.064 0.059-0.070-0.037 0-0.144 0.070-0.241 0.161z"></path>
<path d="M9.797 30.356c0.016 0.048 0.011 0.102-0.016 0.118-0.032 0.021-0.053 0-0.053-0.037 0-0.043-0.027-0.037-0.091 0.027-0.134 0.134-0.043 0.171 0.139 0.059 0.139-0.091 0.144-0.107 0.070-0.182-0.075-0.070-0.080-0.064-0.048 0.016z"></path>
<path d="M9.952 30.532c-0.064 0.102-0.107 0.182-0.096 0.182 0.037 0 0.262-0.326 0.235-0.348-0.011-0.011-0.070 0.064-0.139 0.166z"></path>
<path d="M10.102 30.634c-0.102 0.075-0.214 0.134-0.257 0.134-0.037 0-0.053 0.027-0.037 0.053 0.037 0.064 0.134 0.016 0.375-0.187 0.209-0.171 0.155-0.171-0.080 0z"></path>

</symbol>


</defs>
</svg>
