<svg aria-hidden="true" style="position: absolute; width: 0; height: 0; overflow: hidden;" version="1.1" xmlns="http://www.w3.org/2000/svg" xmlns:xlink="http://www.w3.org/1999/xlink">
<defs>
<symbol id="icon-Nick" viewBox="0 0 24 32">
<path d="M9.284 0.095c-0.128 0.139-0.118 0.637 0.021 1.161 0.225 0.872 0.781 2.124 1.252 2.836l0.198 0.3-0.193 0.294c-0.107 0.161-0.289 0.359-0.407 0.439-0.209 0.144-0.278 0.278-0.139 0.278 0.053 0 0.064 0.064 0.043 0.268-0.016 0.161-0.005 0.268 0.032 0.268 0.027 0 0.064 0.048 0.080 0.107 0.027 0.107 0.198 0.155 0.198 0.053 0-0.080 0.359-0.064 0.524 0.021 0.332 0.177 0.583 0.573 0.637 1.001 0.032 0.257 0.027 0.273-0.193 0.476-0.123 0.118-0.209 0.241-0.193 0.268 0.021 0.032 0.059 0.043 0.086 0.021 0.032-0.016 0.037 0.021 0.016 0.107-0.037 0.161 0.048 0.187 0.187 0.064 0.070-0.064 0.134-0.064 0.342-0.021 0.246 0.059 0.252 0.064 0.252 0.262v0.209l-0.235-0.032c-0.193-0.027-0.268-0.011-0.401 0.086-0.316 0.219-0.407 0.503-0.808 2.472-0.203 1.006-0.433 1.894-0.53 2.066-0.037 0.064-0.102-0.005-0.289-0.289-0.235-0.375-0.375-0.503-0.626-0.583-0.075-0.021-0.219-0.139-0.321-0.257-0.171-0.193-0.219-0.214-0.519-0.246-0.241-0.021-0.369-0.064-0.482-0.166-0.337-0.3-0.466-0.375-0.642-0.375-0.487 0-0.738 0.385-0.524 0.803 0.107 0.209 0.337 0.321 0.642 0.321h0.241v0.225c0 0.321-0.139 0.519-0.599 0.856-0.669 0.498-0.856 0.792-0.771 1.241 0.086 0.455 0.61 0.514 1.001 0.118 0.123-0.128 0.198-0.171 0.241-0.134 0.235 0.193 0.706 0.15 0.926-0.080 0.096-0.107 0.161-0.123 0.3-0.102 0.219 0.037 0.503-0.123 0.658-0.369 0.128-0.198 0.080-0.262 0.546 0.787 0.182 0.412 0.38 0.829 0.439 0.92 0.059 0.102 0.091 0.219 0.070 0.278-0.021 0.070 0.005 0.128 0.075 0.177 0.059 0.043 0.102 0.123 0.096 0.177-0.016 0.166 0.316 0.171 0.551 0.016s0.375-0.433 0.45-0.904c0.048-0.337 0.064-0.364 0.166-0.337 0.059 0.021 0.118 0.043 0.128 0.053 0.059 0.053 0.064 0.717 0.011 1.236-0.059 0.551-0.128 0.915-0.567 2.986-0.107 0.498-0.214 1.161-0.241 1.472-0.032 0.444-0.091 0.701-0.268 1.215l-0.23 0.648-0.3 0.139c-0.385 0.171-0.744 0.252-1.188 0.257-0.888 0.016-1.728-0.744-2.585-2.322-0.273-0.514-0.348-0.589-0.391-0.423-0.027 0.102-0.048 0.086-0.268-0.134-0.401-0.396-0.985-0.68-1.043-0.503-0.011 0.037-0.134 0.027-0.353-0.027-0.342-0.091-0.466-0.070-0.417 0.059 0.021 0.059-0.064 0.075-0.471 0.075-0.899 0-1.691 0.209-2.654 0.701-0.888 0.455-1.118 0.76-0.487 0.637 0.353-0.064 0.428-0.064 0.326 0-0.128 0.080-0.011 0.144 0.396 0.209 0.482 0.086 0.712 0.209 1.011 0.54 0.401 0.444 0.701 1.011 1.472 2.799 0.246 0.562 0.3 0.733 0.23 0.722-0.203-0.037 0.086 0.53 0.583 1.124 0.557 0.664 1.29 1.124 2.312 1.461 1.22 0.396 2.247 0.407 3.157 0.027 0.075-0.037 0.080-0.016 0.037 0.166-0.118 0.487-0.118 0.466 0.053 0.567 0.091 0.053 0.166 0.128 0.166 0.166s-0.096 0.214-0.209 0.396c-0.252 0.38-0.321 0.412-1.156 0.46-1.53 0.091-2.274 0.471-2.274 1.172 0 0.316 0.203 0.562 0.594 0.728 0.771 0.332 1.637 0.225 2.542-0.321 0.578-0.348 0.856-0.653 1.14-1.231 0.144-0.289 0.3-0.68 0.353-0.862 0.086-0.294 0.128-0.359 0.316-0.476 0.193-0.123 0.235-0.187 0.369-0.562 0.198-0.583 0.744-1.648 1.156-2.269 0.364-0.546 0.813-1.124 0.872-1.124 0.016 0 0.118 0.096 0.225 0.219 0.214 0.252 0.433 0.824 0.514 1.332 0.096 0.621 0.059 1.723-0.080 2.253-0.032 0.118-0.011 0.15 0.139 0.209l0.166 0.070-0.021 0.364c-0.021 0.252-0.005 0.396 0.043 0.466 0.139 0.198 1.231 0.455 2.36 0.557 1.306 0.112 2.547-0.096 2.975-0.503 0.187-0.177 0.209-0.219 0.182-0.391-0.048-0.284-0.219-0.487-0.557-0.653-0.423-0.203-0.813-0.193-1.942 0.064-0.862 0.193-1.819 0.305-1.819 0.209 0-0.027 0.118-0.112 0.262-0.193 0.252-0.139 0.268-0.161 0.326-0.455 0.037-0.171 0.214-0.733 0.401-1.252 0.182-0.514 0.375-1.097 0.423-1.284 0.15-0.605 0.096-1.991-0.134-3.516l-0.107-0.717 0.235-0.46 0.235-0.466-0.070-0.348c-0.187-0.936-0.364-3.944-0.332-5.672 0.011-0.776 0.027-0.936 0.096-0.936 0.043 0 0.091 0.075 0.112 0.177 0.091 0.439 0.332 0.974 0.508 1.129 0.187 0.166 0.487 0.257 0.648 0.193 0.091-0.032 0.091-0.037-0.005-0.107-0.096-0.075-0.096-0.080 0.043-0.139 0.144-0.064 0.187-0.182 0.080-0.219-0.037-0.011 0.005-0.123 0.102-0.273 0.091-0.144 0.31-0.599 0.492-1.017 0.466-1.060 0.792-1.696 0.888-1.734 0.043-0.016 0.326 0.075 0.626 0.198 0.974 0.401 1.391 0.54 1.563 0.508 0.166-0.032 0.455-0.273 0.455-0.38 0-0.037 0.091-0.139 0.198-0.23 0.161-0.128 0.252-0.166 0.444-0.166 0.476-0.005 0.91-0.342 0.91-0.706 0-0.321-0.391-0.546-0.765-0.433-0.139 0.037-0.187 0.027-0.252-0.043-0.155-0.177-0.53-0.15-0.765 0.059-0.182 0.161-0.187 0.161-0.407 0.080-0.337-0.118-0.359-0.139-0.171-0.219 0.342-0.144 0.396-0.605 0.102-0.915-0.15-0.161-0.305-0.155-0.53 0.011-0.102 0.070-0.241 0.171-0.316 0.225-0.096 0.075-0.23 0.096-0.567 0.096-0.364 0-0.471 0.021-0.589 0.112-0.096 0.070-0.316 0.433-0.605 1.017-0.38 0.744-0.904 1.573-1.006 1.573-0.011 0-0.011-0.021 0.005-0.048 0.016-0.021-0.064-0.278-0.182-0.567-0.118-0.284-0.407-1.134-0.637-1.889-0.359-1.15-0.45-1.391-0.589-1.525-0.123-0.128-0.209-0.166-0.364-0.166-0.112 0-0.241 0.016-0.284 0.037-0.059 0.027-0.112-0.005-0.177-0.118-0.123-0.214-0.118-0.23 0.096-0.187 0.198 0.037 0.246-0.027 0.107-0.139-0.043-0.037-0.080-0.112-0.080-0.166 0-0.284 0.797-0.407 1.113-0.171l0.161 0.118 0.059-0.161c0.048-0.134 0.075-0.155 0.171-0.128 0.123 0.043 0.123 0 0.016-0.268-0.043-0.102-0.037-0.102 0.053-0.011 0.15 0.15 0.203 0.048 0.086-0.177-0.139-0.273-0.139-0.348 0.011-0.246 0.273 0.193 0.268 0.059-0.011-0.294s-0.407-0.792-0.482-1.616c-0.059-0.626-0.053-0.68 0.043-0.872 0.139-0.278 0.364-0.99 0.439-1.407 0.107-0.61 0-0.744-0.514-0.621-0.171 0.043-0.551 0.171-0.84 0.294l-0.519 0.219-0.391-0.134c-0.209-0.075-0.342-0.134-0.289-0.134 0.198-0.011 0.053-0.139-0.166-0.155-0.203-0.016-0.219-0.027-0.171-0.118 0.091-0.177-0.043-0.177-0.31-0.011-0.139 0.086-0.3 0.171-0.359 0.193-0.139 0.037-0.985 0.15-1.118 0.15-0.128-0.005-0.519-0.268-1.423-0.947-0.91-0.685-1.482-1.070-1.835-1.236-0.342-0.155-0.728-0.171-0.856-0.032zM10.258 0.298c0.193 0.102 0.583 0.359 0.862 0.562 0.444 0.321 0.487 0.369 0.353 0.369-0.144 0-0.15 0.011-0.118 0.171l0.032 0.177-0.15-0.177c-0.273-0.326-0.31-0.161-0.059 0.284 0.091 0.161 0.187 0.31 0.214 0.326s-0.037-0.118-0.139-0.294c-0.187-0.321-0.257-0.557-0.102-0.353 0.187 0.252 0.369 0.455 0.412 0.455 0.021 0-0.011-0.096-0.070-0.214-0.15-0.3-0.139-0.342 0.080-0.305 0.118 0.021 0.396 0.182 0.738 0.428 0.3 0.219 0.637 0.444 0.749 0.498 0.107 0.054 0.198 0.112 0.198 0.128 0 0.021-0.102 0.080-0.225 0.128-0.128 0.048-0.289 0.139-0.364 0.198l-0.134 0.107 0.214-0.102c0.316-0.155 0.899-0.31 1.402-0.375 0.417-0.059 0.567-0.112 0.872-0.316 0.118-0.080 0.118-0.070-0.027 0.086l-0.161 0.171 0.15-0.054c0.086-0.032 0.241-0.059 0.348-0.054l0.198 0.005-0.198 0.064c-0.107 0.032-0.214 0.080-0.241 0.107-0.021 0.027-0.016 0.037 0.016 0.016 0.187-0.107 1.247 0.326 1.616 0.664 0.225 0.203 0.203 0.241-0.043 0.091-0.262-0.166-0.321-0.166-0.321 0.005 0 0.123 0.037 0.155 0.262 0.241 0.364 0.128 0.642 0.385 0.712 0.647 0.032 0.118 0.053 0.444 0.053 0.722 0 0.471 0.005 0.482 0.037 0.161l0.032-0.348 0.043 0.519c0.048 0.653 0.198 1.145 0.45 1.472 0.177 0.23 0.182 0.246 0.053 0.161-0.144-0.091-0.144-0.091-0.144 0.027 0 0.070 0.037 0.187 0.075 0.268 0.091 0.166 0.053 0.198-0.059 0.053-0.070-0.080-0.075-0.075-0.053 0.070 0.011 0.086 0.037 0.209 0.064 0.268 0.032 0.086 0.016 0.086-0.070-0.021-0.096-0.118-0.107-0.118-0.102-0.027 0 0.053-0.005 0.166-0.011 0.246l-0.005 0.15-0.214-0.112c-0.171-0.091-0.284-0.107-0.535-0.091-0.503 0.037-0.771 0.294-0.551 0.535 0.096 0.112 0.096 0.112-0.016 0.053-0.102-0.053-0.144-0.032-0.342 0.15-0.273 0.252-0.337 0.268-0.289 0.064 0.118-0.482 0.396-0.765 0.904-0.92 0.503-0.155 0.664-0.219 0.701-0.273 0.016-0.027-0.053-0.016-0.15 0.027s-0.348 0.128-0.557 0.187c-0.209 0.059-0.444 0.161-0.524 0.225-0.166 0.128-0.38 0.53-0.433 0.808-0.021 0.107-0.096 0.246-0.166 0.316-0.144 0.134-0.161 0.257-0.059 0.364 0.053 0.059 0.043 0.070-0.059 0.043s-0.118-0.011-0.086 0.080c0.021 0.070 0.011 0.096-0.021 0.075-0.032-0.016-0.080 0.043-0.112 0.134-0.053 0.155-0.070 0.166-0.257 0.134-0.166-0.027-0.284-0.118-0.605-0.46-0.289-0.31-0.471-0.45-0.653-0.519-0.23-0.091-0.3-0.161-0.824-0.899-0.69-0.979-0.985-1.546-0.985-1.91 0-0.289 0.107-0.546 0.262-0.631 0.118-0.059 0.519-0.064 0.653-0.011 0.053 0.021 0.214 0.225 0.369 0.455 0.546 0.819 1.113 1.124 2.349 1.268 0.45 0.053 0.701 0.118 0.701 0.187 0 0.016-0.096 0.091-0.214 0.166-0.118 0.080-0.203 0.155-0.193 0.171 0.027 0.027 0.391-0.187 0.417-0.246 0.011-0.021 0.091-0.075 0.177-0.118 0.091-0.048 0.209-0.177 0.268-0.294s0.112-0.225 0.118-0.235c0.021-0.037 0.471 0.321 0.54 0.439 0.059 0.102 0.064 0.107 0.053 0.016-0.011-0.059-0.15-0.214-0.31-0.342s-0.316-0.3-0.342-0.38c-0.096-0.289-0.155-0.375-0.289-0.407-0.075-0.016-0.182-0.091-0.235-0.166-0.059-0.070-0.128-0.128-0.161-0.128s-0.016 0.043 0.032 0.102c0.086 0.096 0.080 0.102-0.171 0.102-0.45 0-0.648 0.182-0.535 0.492 0.032 0.107 0.144 0.225 0.284 0.316 0.123 0.075 0.214 0.171 0.198 0.209-0.027 0.086-0.219 0.080-0.792-0.016-0.535-0.096-1.011-0.305-1.348-0.589-0.23-0.198-0.738-0.867-0.696-0.915 0.016-0.011 0.155 0 0.316 0.032 0.305 0.059 0.535 0.166 1.151 0.53 0.209 0.123 0.471 0.235 0.589 0.246 0.182 0.021 0.187 0.021 0.048-0.021-0.209-0.053-0.535-0.225-0.942-0.487-0.359-0.23-0.423-0.252-1.199-0.428-0.498-0.112-0.551-0.112-0.733-0.037-0.278 0.118-0.417 0.364-0.417 0.744 0 0.412 0.284 0.958 0.985 1.905 0.289 0.391 0.514 0.722 0.503 0.733-0.011 0.016-0.214-0.037-0.45-0.112-0.23-0.070-0.631-0.182-0.888-0.246-0.401-0.091-0.482-0.096-0.562-0.037-0.080 0.070-0.080 0.064-0.021-0.048 0.032-0.064 0.086-0.118 0.112-0.118 0.032 0 0.053-0.027 0.053-0.053 0-0.037-0.032-0.037-0.102 0-0.161 0.080-0.203 0.064-0.070-0.032 0.38-0.268 0.348-0.829-0.080-1.402-0.15-0.198-0.482-0.385-0.69-0.385-0.123 0-0.134-0.011-0.075-0.080s0.053-0.075-0.021-0.048c-0.048 0.016-0.112 0.086-0.144 0.144-0.053 0.096-0.064 0.102-0.112 0.016-0.027-0.048-0.037-0.166-0.021-0.262l0.032-0.171-0.086 0.161-0.080 0.161 0.032-0.214c0.021-0.118 0.075-0.257 0.123-0.316 0.086-0.096 0.086-0.096-0.037-0.059-0.096 0.027-0.075-0.011 0.102-0.166 0.187-0.166 0.68-0.856 0.936-1.306 0.091-0.155-0.193 0.128-0.3 0.305-0.059 0.096-0.128 0.177-0.144 0.177-0.053 0-0.294-0.396-0.578-0.963-0.23-0.455-0.257-0.557-0.278-0.953-0.027-0.53 0.027-0.562 0.262-0.144 0.091 0.161 0.177 0.294 0.193 0.294 0.011 0-0.043-0.123-0.123-0.268-0.268-0.492-0.396-0.487-0.401 0.016v0.332l-0.193-0.482c-0.225-0.578-0.444-1.407-0.444-1.691 0-0.433 0.359-0.476 1.011-0.123zM18.001 2.112c0.021 0.048 0.016 0.214-0.005 0.375-0.027 0.225-0.053 0.284-0.112 0.257-0.043-0.016-0.118 0.016-0.161 0.070-0.075 0.096-0.080 0.096-0.043-0.032 0.037-0.155 0.011-0.139-0.086 0.048-0.043 0.080-0.043 0.112-0.005 0.091 0.070-0.043 0.080 0.027 0.021 0.107-0.027 0.027 0.021-0.021 0.107-0.107l0.144-0.161v0.182c0 0.102-0.075 0.417-0.171 0.696l-0.166 0.503-0.091-0.278c-0.15-0.46-0.498-0.883-0.953-1.151-0.219-0.128-0.166-0.198 0.177-0.241 0.139-0.011 0.225-0.043 0.187-0.064-0.075-0.048 0.771-0.364 0.979-0.369 0.086-0.005 0.161 0.027 0.177 0.075zM15.967 5.778c-0.235 0.043-0.407 0.214-0.401 0.396 0.005 0.091 0.011 0.080 0.048-0.037 0.064-0.219 0.203-0.3 0.492-0.305 0.396 0 0.508 0.075 0.546 0.38 0.037 0.284-0.032 0.476-0.225 0.653-0.102 0.091-0.118 0.091-0.273 0.016-0.086-0.048-0.203-0.086-0.252-0.086-0.070 0-0.075-0.016-0.021-0.080 0.037-0.043 0.112-0.080 0.171-0.080 0.139 0 0.369-0.123 0.498-0.273 0.091-0.107 0.080-0.102-0.086 0.021-0.112 0.086-0.262 0.144-0.359 0.144-0.187 0-0.439-0.102-0.439-0.171 0-0.027-0.021-0.037-0.048-0.021-0.053 0.037-0.198-0.118-0.241-0.262-0.059-0.214 0.144-0.348 0.53-0.342l0.268 0.005-0.209 0.043zM13.126 8.427l0.749 0.235 0.401 0.407c0.219 0.219 0.369 0.401 0.332 0.401-0.123 0-0.926-0.428-0.958-0.514-0.016-0.043 0.016-0.128 0.070-0.187 0.080-0.086 0.080-0.102 0.011-0.075-0.048 0.021-0.112 0.096-0.144 0.177-0.070 0.177-0.161 0.845-0.177 1.252-0.005 0.171-0.027 0.31-0.048 0.31-0.053 0-0.669-0.835-1.006-1.365-0.23-0.364-0.273-0.466-0.273-0.69 0-0.305-0.096-0.31 1.043 0.048zM16.278 8.459c0.091 0.225 0.086 0.3-0.032 0.926l-0.059 0.31-0.23-0.487c-0.128-0.268-0.257-0.487-0.294-0.487-0.043 0-0.032 0.032 0.021 0.096 0.053 0.053 0.091 0.123 0.091 0.15 0 0.080-0.294 0.348-0.337 0.305-0.064-0.059-0.043-0.123 0.037-0.091 0.118 0.048 0.161-0.080 0.059-0.193-0.059-0.064-0.075-0.128-0.043-0.177 0.048-0.086 0.61-0.567 0.664-0.573 0.021 0 0.075 0.096 0.123 0.219zM11.852 8.539c0.080 0.021 0.235 0.214 0.439 0.551 0.348 0.562 1.017 1.456 1.108 1.488 0.037 0.011 0.070-0.193 0.096-0.605 0.016-0.348 0.043-0.637 0.053-0.648 0.005-0.011 0.15 0.043 0.31 0.118 0.235 0.107 0.305 0.166 0.326 0.284 0.016 0.086 0.144 0.305 0.284 0.492 0.203 0.278 0.235 0.359 0.187 0.423-0.305 0.423-0.278 0.257-0.401 2.708-0.193 3.783-0.214 4.581-0.118 4.805 0.048 0.112 0.123 0.214 0.166 0.235 0.053 0.016 0.080 0.107 0.080 0.278 0 0.289 0.187 0.599 0.738 1.22 0.23 0.262 0.31 0.321 0.369 0.278 0.059-0.048 0.070 0.011 0.070 0.342 0 0.3-0.048 0.573-0.187 1.065-0.332 1.151-0.514 1.648-0.621 1.648-0.171 0-1.043-0.626-1.552-1.108-0.519-0.498-1.001-1.113-1.258-1.611-0.080-0.15-0.161-0.278-0.187-0.278-0.064 0-0.305 0.332-0.508 0.706-0.161 0.3-0.182 0.321-0.182 0.177 0-0.273 0.139-1.011 0.45-2.408 0.337-1.52 0.482-2.547 0.428-3.098-0.027-0.252-0.016-0.375 0.027-0.401 0.032-0.021 0.107-0.316 0.161-0.653 0.059-0.337 0.155-0.845 0.214-1.134 0.102-0.498 0.123-0.546 0.359-0.776 0.219-0.225 0.46-0.535 0.583-0.76 0.075-0.134-0.048 0-0.407 0.455-0.182 0.23-0.342 0.401-0.353 0.369s0.043-0.235 0.112-0.45c0.075-0.219 0.128-0.401 0.118-0.412-0.112-0.112-0.706 2.21-0.803 3.136-0.016 0.161-0.096 0.193-0.241 0.112-0.118-0.059-0.144-0.252-0.064-0.455 0.037-0.096 0.053-0.091 0.134 0.070 0.053 0.102 0.107 0.166 0.123 0.15 0.059-0.053-0.31-0.551-0.642-0.872-0.353-0.342-0.963-0.765-1.097-0.765-0.048 0-0.064-0.032-0.037-0.096 0.23-0.562 0.348-1.022 0.701-2.756 0.252-1.252 0.396-1.632 0.653-1.771 0.166-0.091 0.203-0.096 0.369-0.053zM17.027 8.619c0.107 0.086 0.187 0.268 0.348 0.787 0.118 0.375 0.31 0.995 0.428 1.386 0.123 0.391 0.316 0.942 0.433 1.225l0.214 0.519-0.107 0.177c-0.123 0.193-1.049 1.092-1.129 1.092-0.027 0-0.048-0.428-0.048-1.060v-1.054l0.161-0.316c0.091-0.171 0.161-0.364 0.161-0.428-0.005-0.064-0.070 0.043-0.15 0.235l-0.139 0.348-0.064-0.241c-0.048-0.182-0.064-0.209-0.070-0.096-0.005 0.139-0.016 0.139-0.455 0.177l-0.45 0.037-0.037 0.241c-0.021 0.134-0.016 0.589 0.005 1.011l0.037 0.771 0.177 0.032c0.102 0.016 0.316 0.016 0.476-0.005l0.294-0.032v1.22c0 2.467 0.134 4.436 0.407 5.967 0.027 0.166 0 0.257-0.166 0.562-0.278 0.498-0.728 1.172-0.985 1.461-0.203 0.235-0.209 0.241-0.241 0.107-0.016-0.075-0.123-0.53-0.241-1.017-0.15-0.615-0.214-1.022-0.225-1.338-0.011-0.45-0.005-0.46 0.246-0.931l0.257-0.471-0.037-0.706c-0.070-1.37-0.353-5.34-0.46-6.496-0.037-0.401-0.091-0.647-0.209-0.926-0.128-0.305-0.15-0.407-0.107-0.546 0.027-0.091 0.048-0.268 0.048-0.385 0-0.187 0.032-0.241 0.262-0.439l0.262-0.225 0.268 0.717 0.053-0.214c0.032-0.118 0.091-0.433 0.128-0.696 0.032-0.268 0.091-0.498 0.123-0.519 0.107-0.080 0.391-0.043 0.53 0.070zM14.351 9.54c-0.096 0.053-0.738-0.278-0.76-0.396-0.011-0.064 0.091-0.032 0.412 0.134 0.305 0.155 0.407 0.23 0.348 0.262zM15.63 9.417c-0.257 0.235-0.273 0.262-0.305 0.594-0.048 0.433-0.075 0.476-0.332 0.508-0.198 0.021-0.219 0.011-0.401-0.23-0.273-0.364-0.396-0.594-0.348-0.642 0.021-0.021 0.273-0.043 0.557-0.043h0.514l0.235-0.252c0.134-0.139 0.262-0.241 0.294-0.219s-0.059 0.139-0.214 0.284zM15.363 9.347c0.043 0.037-0.059 0.177-0.123 0.177-0.027 0-0.032-0.048-0.016-0.107 0.027-0.107 0.080-0.134 0.139-0.070zM22.137 9.732c0.134 0.182 0.144 0.417 0.032 0.578-0.096 0.139-0.412 0.252-0.589 0.209-0.070-0.016-0.144-0.011-0.161 0.021-0.021 0.032 0.043 0.053 0.15 0.053 0.246 0 0.262 0.032 0.091 0.214-0.102 0.112-0.203 0.161-0.31 0.161-0.091 0-0.177 0.016-0.187 0.037-0.016 0.027 0.075 0.032 0.203 0.027 0.177-0.016 0.246-0.048 0.294-0.144 0.096-0.182 0.182-0.198 0.508-0.091 0.278 0.086 0.294 0.096 0.294 0.278 0 0.198 0.075 0.369 0.134 0.31 0.021-0.016 0.011-0.080-0.021-0.139-0.032-0.064-0.059-0.155-0.059-0.209 0-0.128 0.123-0.364 0.187-0.369 0.032 0 0.123-0.037 0.203-0.075 0.134-0.064 0.177-0.064 0.294 0 0.177 0.102 0.235 0.326 0.166 0.642-0.075 0.364-0.476 0.883-0.476 0.621 0-0.128-0.209-0.342-0.375-0.38-0.118-0.027-0.144-0.053-0.123-0.123 0.032-0.080 0.021-0.080-0.053-0.021-0.161 0.134-0.487 0.278-0.626 0.278-0.086 0-0.193-0.059-0.273-0.139-0.273-0.3-0.722-0.412-1.038-0.262-0.107 0.053-0.123 0.070-0.037 0.048 0.225-0.053 0.583-0.032 0.738 0.048 0.086 0.043 0.316 0.225 0.508 0.407l0.353 0.321 0.171-0.209c0.096-0.118 0.144-0.214 0.118-0.214s-0.096 0.070-0.15 0.161c-0.102 0.177-0.177 0.209-0.177 0.075 0-0.214 0.102-0.289 0.385-0.278 0.444 0.005 0.599 0.289 0.364 0.669-0.166 0.278-0.359 0.278-1.049 0.016-1.525-0.589-1.456-0.578-1.664-0.257-0.166 0.262-0.669 1.322-0.926 1.926-0.091 0.23-0.262 0.557-0.375 0.733-0.177 0.273-0.193 0.321-0.118 0.342 0.059 0.016 0.032 0.037-0.080 0.064-0.171 0.037-0.241 0.128-0.107 0.139 0.048 0 0.048 0.011 0 0.027-0.123 0.053-0.391-0.144-0.503-0.369-0.171-0.326-0.428-1.124-0.385-1.161 0.027-0.016 0.219-0.198 0.439-0.407l0.396-0.369-0.171 0.3c-0.091 0.166-0.166 0.332-0.166 0.375 0.005 0.043 0.048-0.005 0.096-0.102 0.053-0.096 0.112-0.161 0.134-0.139s0.037 0.011 0.037-0.021c0-0.075 0.316-0.439 0.38-0.439 0.027 0 0 0.096-0.059 0.214-0.059 0.112-0.107 0.23-0.107 0.252 0.005 0.048 0.262-0.417 0.268-0.482 0.005-0.080-0.134-0.032-0.289 0.107l-0.161 0.15 0.144-0.187c0.738-0.958 0.878-1.161 1.241-1.91 0.466-0.953 0.557-1.043 1.043-1.027 0.482 0.011 0.514 0.005 0.808-0.219 0.342-0.257 0.482-0.268 0.631-0.059zM15.341 10.744c0.053 0.107 0.128 0.294 0.161 0.417 0.032 0.118 0.166 1.728 0.3 3.585 0.134 1.851 0.257 3.548 0.273 3.767 0.037 0.45 0.005 0.54-0.423 1.225l-0.219 0.348-0.31-0.348c-0.171-0.187-0.396-0.466-0.498-0.61l-0.182-0.268-0.032-1.873c-0.016-1.033-0.011-2.788 0.011-3.912l0.043-2.039 0.15-0.219c0.193-0.294 0.359-0.31 0.359-0.037 0 0.209 0.112 0.53 0.214 0.589 0.037 0.021 0.032-0.027-0.021-0.123-0.128-0.246-0.171-0.599-0.080-0.658 0.118-0.075 0.15-0.059 0.257 0.155zM24.149 10.835c0.321 0.321 0 0.765-0.626 0.856l-0.252 0.037 0.128-0.31c0.080-0.203 0.118-0.364 0.096-0.466-0.037-0.187 0.037-0.252 0.321-0.252 0.144 0 0.241 0.037 0.332 0.134zM7.635 11.536c0.252 0.23 0.31 0.252 0.631 0.289 0.31 0.032 0.369 0.053 0.514 0.214 0.091 0.102 0.278 0.235 0.412 0.3 0.203 0.096 0.294 0.182 0.455 0.455 0.262 0.439 0.524 0.765 0.835 1.049 0.187 0.171 0.246 0.268 0.252 0.391 0.005 0.139-0.011 0.155-0.070 0.107-0.198-0.166-0.246 0.15-0.075 0.487 0.144 0.289 0.187 0.235 0.048-0.064-0.059-0.128-0.107-0.278-0.107-0.337 0-0.086 0.021-0.086 0.182 0.043l0.187 0.139-0.053-0.171c-0.096-0.342-0.021-0.326 0.225 0.053 0.102 0.161 0.15 0.203 0.123 0.118-0.053-0.187-0.177-0.353-0.578-0.749-0.342-0.337-0.428-0.482-0.278-0.482 0.096 0 0.701 0.471 1.011 0.792l0.257 0.262-0.053 0.316c-0.182 0.985-0.219 1.156-0.305 1.338-0.107 0.225-0.519 0.455-0.626 0.348-0.043-0.043-0.021-0.059 0.075-0.059 0.112-0.005 0.107-0.016-0.070-0.112-0.225-0.112-0.268-0.182-0.091-0.128 0.112 0.037 0.112 0.032-0.016-0.139-0.203-0.273-0.316-0.519-0.423-0.915-0.112-0.45-0.037-0.417 0.198 0.086 0.15 0.321 0.177 0.353 0.182 0.219 0-0.091-0.021-0.241-0.053-0.342l-0.053-0.182 0.15 0.134c0.080 0.075 0.198 0.166 0.268 0.203 0.118 0.059 0.123 0.053 0.064-0.053-0.032-0.059-0.080-0.096-0.102-0.080-0.027 0.011-0.134-0.075-0.246-0.193-0.214-0.241-0.273-0.246-0.187-0.027 0.102 0.268 0.053 0.278-0.091 0.016-0.144-0.252-0.284-0.332-0.284-0.161-0.005 0.053-0.112-0.118-0.241-0.385l-0.241-0.482 0.112-0.326c0.064-0.182 0.102-0.375 0.091-0.428-0.016-0.064-0.043-0.021-0.070 0.112-0.102 0.519-0.578 1.151-0.872 1.151-0.391 0-0.642-0.551-0.391-0.862 0.139-0.171 0.471-0.171 0.712 0l0.177 0.123-0.177-0.166c-0.225-0.214-0.519-0.23-0.744-0.037-0.139 0.118-0.155 0.123-0.316 0.043-0.23-0.107-0.498-0.048-0.637 0.139-0.086 0.118-0.107 0.23-0.107 0.599v0.45l-0.182 0.123c-0.466 0.316-0.808 0.182-0.808-0.316 0-0.235 0.219-0.583 0.482-0.765 0.219-0.155 0.23-0.155 0.3-0.053 0.134 0.182-0.016 0.615-0.321 0.91-0.134 0.128-0.139 0.139-0.032 0.075 0.177-0.112 0.364-0.391 0.433-0.647 0.043-0.177 0.037-0.235-0.032-0.348-0.086-0.128-0.086-0.139 0.021-0.214 0.369-0.257 0.546-0.594 0.524-0.99l-0.011-0.198-0.273 0.005c-0.417 0.016-0.69-0.209-0.653-0.535 0.016-0.123 0.043-0.144 0.203-0.161 0.144-0.011 0.246 0.027 0.428 0.155 0.171 0.123 0.209 0.139 0.134 0.053-0.144-0.161-0.364-0.273-0.546-0.273-0.144-0.005-0.144-0.005-0.048-0.080 0.059-0.043 0.193-0.080 0.305-0.080 0.161 0 0.252 0.048 0.471 0.246zM17.102 12.408l0.021 0.974-0.894-0.032-0.016-0.947-0.011-0.947 0.385-0.016c0.214-0.011 0.417-0.016 0.444-0.016 0.032 0.005 0.059 0.385 0.070 0.985zM21.875 11.771c0 0.059-0.011 0.107-0.016 0.107-0.011 0-0.064-0.048-0.118-0.107-0.096-0.102-0.091-0.107 0.016-0.107 0.080 0 0.118 0.032 0.118 0.107zM8.021 13.537c0.070 0.037 0.102 0.112 0.102 0.235 0 0.102 0.059 0.262 0.134 0.38 0.128 0.187 0.134 0.209 0.053 0.294-0.225 0.252-0.658 0.268-0.878 0.032-0.182-0.193-0.161-0.674 0.037-0.904 0.091-0.102 0.385-0.123 0.551-0.037zM14.319 16.373c0.005 1.060 0 1.926-0.016 1.926s-0.064-0.091-0.107-0.203c-0.075-0.177-0.080-0.353-0.027-1.536 0.059-1.348 0.107-2.114 0.128-2.114 0.005 0 0.016 0.867 0.021 1.926zM5.019 20.098l0.294 0.134-0.155-0.161c-0.177-0.187-0.155-0.209 0.064-0.075 0.294 0.182 0.615 0.466 0.765 0.68l0.161 0.214-0.037-0.225c-0.021-0.123-0.021-0.225 0-0.225 0.016 0 0.144 0.225 0.278 0.492 0.332 0.669 0.658 1.156 1.038 1.536 0.278 0.284 0.294 0.31 0.144 0.246-0.316-0.123-0.396 0-0.166 0.268l0.139 0.161-0.118-0.177c-0.070-0.102-0.102-0.198-0.075-0.225s0.316 0.080 0.664 0.241c0.557 0.268 0.648 0.294 0.985 0.294 0.396 0 0.894-0.112 1.231-0.273 0.118-0.053 0.219-0.091 0.235-0.080 0.011 0.016-0.027 0.252-0.091 0.524-0.144 0.669-0.209 1.247-0.273 2.585-0.053 1.081-0.075 1.375-0.139 1.803-0.027 0.187-0.043 0.203-0.385 0.321-0.503 0.171-1.696 0.171-2.344 0-1.429-0.38-2.317-0.936-3.040-1.905-0.112-0.144-0.246-0.359-0.31-0.482l-0.107-0.219 0.166 0.155c0.091 0.091 0.166 0.144 0.166 0.123 0-0.032-0.102-0.268-0.332-0.76-0.054-0.118-0.257-0.589-0.45-1.043-0.476-1.14-0.835-1.771-1.225-2.167-0.273-0.278-0.375-0.342-0.647-0.417-0.177-0.048-0.391-0.091-0.476-0.091-0.112 0-0.139-0.016-0.096-0.059 0.032-0.032 0.161-0.053 0.278-0.037 0.144 0.011 0.198 0 0.161-0.037-0.027-0.027-0.305-0.053-0.61-0.053-0.535 0-0.551-0.005-0.466-0.102 0.144-0.155 1.332-0.712 1.841-0.856 0.771-0.219 1.589-0.278 2.317-0.166l0.161 0.027-0.171-0.080c-0.091-0.043-0.182-0.102-0.203-0.128-0.043-0.070 0.46 0.075 0.829 0.241zM11.991 20.708c0.235 0.471 0.23 0.487-0.112 0.867-0.235 0.262-0.53 0.417-0.792 0.417-0.182 0-0.193-0.005-0.155-0.15 0.086-0.348 0.733-1.573 0.829-1.557 0.016 0 0.118 0.193 0.23 0.423zM15.716 21.393c0.005 0.246-0.23 1.295-0.412 1.83-0.193 0.557-0.407 0.99-0.53 1.070-0.086 0.053-0.086 0.059 0.011 0.027 0.171-0.053 0.985-0.508 1.022-0.567 0.016-0.032-0.032-0.016-0.118 0.037l-0.155 0.102 0.118-0.166c0.064-0.091 0.177-0.337 0.246-0.551 0.107-0.321 0.139-0.369 0.171-0.273 0.037 0.112 0.043 0.112 0.252-0.086 0.118-0.118 0.3-0.326 0.407-0.471l0.193-0.262 0.139 0.155c0.123 0.144 0.144 0.235 0.214 0.904 0.043 0.412 0.080 1.193 0.080 1.739v0.99l-0.412 1.231c-0.225 0.674-0.428 1.322-0.444 1.434-0.032 0.187-0.059 0.219-0.337 0.342-0.423 0.198-0.953 0.225-1.354 0.075l-0.305-0.118 0.086-0.305c0.128-0.444 0.123-1.942-0.011-2.413-0.123-0.45-0.353-0.904-0.562-1.097-0.091-0.086-0.15-0.177-0.128-0.209 0.016-0.027-0.048 0.005-0.144 0.075s-0.342 0.359-0.557 0.637c-0.621 0.824-1.172 1.857-1.477 2.756-0.128 0.391-0.161 0.439-0.369 0.557-0.353 0.193-1.113 0.166-1.413-0.059-0.080-0.064-0.080-0.091-0.011-0.321 0.118-0.396 0.187-0.985 0.268-2.371 0.118-1.905 0.209-2.504 0.54-3.601l0.134-0.439h0.252c0.332 0 0.685-0.219 0.953-0.589l0.198-0.278 0.139 0.182c0.551 0.706 1.279 1.37 1.959 1.777 0.471 0.284 0.519 0.268 0.685-0.198 0.134-0.375 0.316-0.958 0.498-1.616 0.075-0.257 0.102-0.3 0.134-0.214 0.021 0.059 0.043 0.187 0.043 0.284zM15.855 23.105c-0.171 0.503-0.369 0.76-0.583 0.76-0.118 0-0.134-0.016-0.096-0.096 0.107-0.209 0.337-0.92 0.439-1.375 0.059-0.268 0.123-0.54 0.144-0.615 0.021-0.102 0.059-0.005 0.139 0.375l0.107 0.503-0.15 0.45zM17.134 22.040c0.027 0.155 0.021 0.171-0.048 0.112-0.086-0.070-0.107-0.225-0.043-0.284 0.043-0.048 0.048-0.043 0.091 0.171zM15.266 24.025c-0.144 0.086-0.273 0.144-0.284 0.134-0.059-0.053 0.144-0.241 0.284-0.257 0.086-0.011 0.187-0.021 0.214-0.027 0.032-0.005-0.064 0.064-0.214 0.15zM19.515 28.874c0.359 0.107 0.69 0.401 0.733 0.664l0.037 0.187-0.214-0.225c-0.252-0.273-0.605-0.444-0.899-0.439l-0.214 0.005 0.235 0.048c0.46 0.091 0.969 0.439 0.969 0.664 0 0.096-0.599 0.391-0.626 0.31-0.139-0.417-0.749-0.771-1.129-0.658-0.128 0.037-0.112 0.043 0.096 0.048 0.316 0.005 0.69 0.198 0.84 0.428 0.070 0.102 0.123 0.198 0.123 0.219 0 0.075-0.621 0.166-1.349 0.198-0.664 0.027-0.738 0.021-0.738-0.053 0-0.053-0.043-0.091-0.091-0.091-0.080 0-0.086 0.011-0.016 0.053 0.3 0.193-1.718-0.112-2.274-0.342-0.203-0.086-0.225-0.187-0.155-0.626l0.032-0.187 0.262 0.053c0.177 0.037 0.348 0.037 0.53 0 0.219-0.048 0.268-0.043 0.278 0.021 0.011 0.059 0.107 0.080 0.391 0.080 0.45 0 0.642-0.032 1.579-0.23 1.092-0.235 1.209-0.246 1.6-0.128zM11.103 29.077c0.021 0.021-0.342 0.974-0.444 1.161-0.053 0.102-0.091 0.203-0.086 0.225 0.005 0.027-0.139 0.198-0.321 0.38-0.551 0.551-1.381 0.947-2.114 1.022-0.332 0.032-0.391 0.027-0.391-0.043 0-0.278 0.321-0.755 0.637-0.958 0.294-0.187 0.235-0.198-0.075-0.016-0.252 0.144-0.54 0.546-0.594 0.824-0.037 0.166-0.048 0.177-0.225 0.144-0.102-0.016-0.294-0.080-0.433-0.15-0.209-0.102-0.241-0.144-0.23-0.257 0.048-0.337 0.417-0.76 0.824-0.936 0.096-0.043 0.144-0.075 0.107-0.080-0.086 0-0.433 0.182-0.583 0.31-0.166 0.15-0.391 0.492-0.391 0.605 0 0.198-0.171 0.080-0.23-0.155-0.080-0.342 0.246-0.755 0.749-0.936 0.246-0.086 1.065-0.252 1.258-0.252 0.059 0 0.080 0.027 0.064 0.080-0.027 0.064 0.016 0.080 0.225 0.075l0.262-0.011-0.214-0.032c-0.257-0.037-0.198-0.091 0.161-0.139 0.15-0.021 0.342-0.059 0.439-0.086 0.203-0.064 0.514-0.396 0.605-0.648l0.070-0.182 0.46 0.021c0.252 0.011 0.466 0.027 0.471 0.032z"></path>
<path d="M10.691 1.465c0 0.070 0.037 0.209 0.086 0.305 0.053 0.118 0.070 0.134 0.048 0.048-0.123-0.46-0.102-0.466 0.235-0.016 0.182 0.246 0.348 0.444 0.364 0.444 0.011 0-0.027-0.064-0.086-0.15-0.064-0.080-0.214-0.284-0.332-0.455-0.23-0.332-0.316-0.38-0.316-0.177z"></path>
<path d="M10.316 1.872c0 0.086 0.037 0.268 0.080 0.401 0.048 0.134 0.075 0.262 0.059 0.284-0.032 0.048 0.177 0.412 0.209 0.375 0.016-0.016-0.037-0.177-0.107-0.369-0.15-0.375-0.23-0.797-0.155-0.797 0.027 0 0.112 0.037 0.182 0.086l0.134 0.086-0.128-0.112c-0.177-0.161-0.273-0.144-0.273 0.048z"></path>
<path d="M15.106 2.466c-0.086 0.027-0.476 0.043-0.862 0.043-0.738-0.005-0.84 0.021-1.22 0.289-0.161 0.112-0.621 0.706-0.621 0.803 0 0.032 0.070-0.048 0.15-0.182 0.086-0.128 0.241-0.31 0.342-0.401 0.31-0.273 0.498-0.31 1.439-0.273 0.68 0.027 0.856 0.021 0.936-0.043 0.053-0.043 0.080-0.080 0.053-0.080s-0.011-0.043 0.027-0.091c0.043-0.048 0.048-0.075 0.011-0.054-0.032 0.021-0.070 0.016-0.080-0.005-0.005-0.027-0.086-0.027-0.177-0.005z"></path>
<path d="M13.864 3.316c-0.123 0.027-0.3 0.086-0.401 0.134-0.246 0.128-0.626 0.508-0.594 0.594 0.016 0.043 0.048 0.059 0.075 0.043 0.112-0.070 0.262 0.043 0.262 0.193 0 0.203 0.23 0.466 0.466 0.53 0.219 0.059 0.53-0.037 0.583-0.182 0.037-0.091 0.182-0.070 0.364 0.059 0.096 0.064 0.091 0.075-0.080 0.177-0.102 0.064-0.155 0.112-0.123 0.112 0.027 0 0.134-0.059 0.23-0.128l0.177-0.128-0.235-0.139c-0.273-0.155-0.942-0.423-1.327-0.519-0.144-0.037-0.268-0.096-0.268-0.134 0-0.091 0.289-0.31 0.589-0.444 0.177-0.080 0.353-0.112 0.653-0.112 0.391 0 0.423 0.005 0.508 0.144 0.075 0.112 0.096 0.257 0.096 0.637 0 0.348 0.016 0.471 0.053 0.407 0.091-0.155 0.064-0.771-0.048-1.011-0.080-0.182-0.128-0.225-0.294-0.252-0.235-0.037-0.396-0.032-0.685 0.021zM13.42 4.296c0 0.161 0.144 0.294 0.364 0.337 0.134 0.027 0.171 0.016 0.171-0.053 0-0.053 0.048-0.086 0.134-0.086 0.161 0 0.182 0.134 0.032 0.214-0.161 0.086-0.503 0.064-0.626-0.043-0.214-0.171-0.316-0.492-0.155-0.492 0.048 0 0.080 0.048 0.080 0.123z"></path>
<path d="M15.095 3.926c-0.070 0.573-0.219 0.969-0.407 1.054-0.166 0.075-1.038-0.021-1.279-0.144-0.096-0.048-0.241-0.161-0.326-0.252-0.096-0.107-0.134-0.123-0.112-0.059 0.027 0.075-0.011 0.059-0.134-0.059-0.241-0.219-0.391-0.439-0.433-0.637-0.037-0.144-0.043-0.15-0.048-0.032-0.011 0.3 0.471 0.819 1.006 1.086 0.284 0.139 0.417 0.171 0.803 0.187 0.439 0.021 0.476 0.016 0.626-0.118 0.193-0.161 0.321-0.546 0.375-1.145 0.053-0.557 0-0.476-0.070 0.118z"></path>
<path d="M16.154 3.825c-0.064 0.198-0.112 0.385-0.107 0.423 0 0.032 0.059-0.123 0.128-0.342s0.118-0.407 0.107-0.417c-0.011-0.011-0.070 0.139-0.128 0.337z"></path>
<path d="M16.459 4.178c-0.112 0.053-0.257 0.187-0.332 0.294-0.080 0.118-0.139 0.161-0.15 0.118-0.016-0.037-0.043 0.021-0.064 0.139-0.053 0.278-0.011 0.3 0.107 0.053 0.134-0.284 0.471-0.61 0.631-0.61s0.433 0.305 0.487 0.535c0.021 0.096 0.021 0.305 0 0.466-0.032 0.246-0.048 0.284-0.123 0.252-0.118-0.048-0.856-0.316-1.011-0.364-0.102-0.032-0.123-0.021-0.123 0.075 0 0.091-0.021 0.107-0.091 0.080-0.407-0.171-0.498-0.187-0.936-0.128-0.246 0.032-0.455 0.070-0.46 0.075-0.011 0.011 0.246 0.016 0.567 0.011 0.54-0.011 0.605 0 0.76 0.112 0.214 0.161 0.642 0.214 0.642 0.086 0-0.059 0.027-0.075 0.086-0.053 0.048 0.016 0.107 0.032 0.134 0.032 0.112 0 0.037 0.118-0.123 0.187-0.123 0.053-0.144 0.075-0.075 0.080 0.059 0 0.161-0.053 0.23-0.118 0.112-0.102 0.139-0.107 0.268-0.043 0.086 0.043 0.166 0.075 0.193 0.075 0.107 0.011 0.005 0.118-0.166 0.177l-0.198 0.070 0.187-0.027c0.246-0.037 0.439-0.182 0.492-0.375 0.021-0.086 0.016-0.128-0.005-0.102-0.027 0.027-0.059 0.096-0.070 0.155s-0.053 0.107-0.096 0.107c-0.048 0-0.070-0.032-0.059-0.080 0.048-0.15 0.070-0.701 0.037-0.835-0.032-0.123-0.433-0.562-0.508-0.557-0.016 0.005-0.123 0.053-0.23 0.112z"></path>
<path d="M14.651 7.71l-0.562 0.096 0.407-0.027c0.225-0.011 0.514-0.059 0.642-0.096 0.31-0.096 0.193-0.091-0.487 0.027z"></path>
<path d="M14.555 8.068c-0.209 0.075-0.375 0.144-0.364 0.161 0.037 0.037 0.583-0.139 0.701-0.225 0.134-0.102 0.134-0.102-0.337 0.064z"></path>
<path d="M17.182 2.503c-0.128 0.080-0.23 0.161-0.23 0.182s0.107-0.037 0.241-0.128c0.198-0.139 0.252-0.155 0.321-0.096s0.075 0.054 0.048-0.021c-0.048-0.118-0.118-0.107-0.38 0.064z"></path>
<path d="M17.621 2.567c-0.021 0.032-0.053 0.043-0.080 0.027-0.021-0.016-0.053 0.011-0.075 0.054-0.037 0.102 0.043 0.102 0.128 0 0.037-0.043 0.086-0.064 0.112-0.048s0.048 0 0.048-0.027c0-0.075-0.091-0.075-0.134-0.005z"></path>
<path d="M12.457 17.62c0 0.064 0.337 0.599 0.562 0.888 0.128 0.166 0.396 0.455 0.594 0.648l0.359 0.348-0.423-0.471c-0.23-0.257-0.573-0.69-0.755-0.958-0.187-0.273-0.337-0.476-0.337-0.455z"></path>
<path d="M21.634 9.925c-0.102 0.107-0.187 0.23-0.182 0.284 0 0.075 0.011 0.075 0.048-0.016 0.064-0.161 0.332-0.391 0.482-0.417 0.134-0.021 0.134-0.021-0.011-0.032-0.102-0.005-0.203 0.053-0.337 0.182z"></path>
<path d="M22.694 11.049c0 0.177 0.011 0.241 0.021 0.144s0.011-0.241 0-0.321c-0.011-0.080-0.021 0-0.021 0.177z"></path>
<path d="M18.627 13.361c-0.070 0.144-0.086 0.209-0.043 0.155 0.059-0.075 0.080-0.086 0.080-0.027 0.005 0.053 0.016 0.048 0.059-0.021 0.032-0.053 0.048-0.155 0.037-0.225-0.016-0.118-0.032-0.107-0.134 0.118z"></path>
<path d="M18.857 13.387l-0.096 0.177 0.112-0.134c0.059-0.075 0.112-0.118 0.112-0.096 0 0.070-0.23 0.658-0.31 0.792-0.086 0.134-0.086 0.134 0.075-0.011 0.086-0.080 0.198-0.225 0.252-0.321l0.102-0.177-0.112 0.134c-0.134 0.161-0.139 0.139-0.032-0.161 0.139-0.391 0.075-0.519-0.102-0.203z"></path>
<path d="M24.154 11.006c-0.021 0.021-0.166 0.053-0.316 0.075l-0.278 0.032 0.246 0.011c0.139 0 0.284-0.027 0.348-0.075 0.053-0.043 0.086-0.080 0.070-0.080s-0.048 0.016-0.070 0.037z"></path>
<path d="M8.727 12.815l-0.219 0.187-0.225-0.080c-0.123-0.043-0.278-0.080-0.342-0.075-0.246 0.005 0.444 0.166 0.797 0.182 0.3 0.011 0.321 0.011 0.107-0.016l-0.268-0.037 0.23-0.155c0.123-0.086 0.225-0.161 0.225-0.171 0-0.064-0.112 0-0.305 0.166z"></path>
<path d="M7.587 13.029c-0.070 0.075-0.118 0.139-0.102 0.15 0.011 0.005 0.086-0.053 0.166-0.134s0.123-0.15 0.102-0.15c-0.021 0-0.096 0.059-0.166 0.134z"></path>
<path d="M9.144 13.066c0.011 0.011 0.096 0.075 0.182 0.15l0.161 0.134-0.128-0.15c-0.075-0.080-0.155-0.144-0.182-0.144-0.032 0-0.043 0.005-0.032 0.011z"></path>
<path d="M16.47 11.878l-0.187 0.037 0.171 0.011c0.091 0 0.187-0.021 0.203-0.048 0.016-0.032 0.027-0.048 0.016-0.048-0.011 0.005-0.102 0.027-0.203 0.048z"></path>
<path d="M6.736 22.832c-0.011 0.182 0.31 0.546 0.76 0.856 0.225 0.161 0.412 0.278 0.412 0.262s-0.144-0.128-0.326-0.252c-0.417-0.284-0.733-0.605-0.792-0.819-0.037-0.123-0.048-0.139-0.053-0.048z"></path>
<path d="M6.303 23.442c0 0.032 0.123 0.182 0.278 0.332l0.273 0.278-0.252-0.284c-0.144-0.155-0.246-0.3-0.23-0.316s0.134 0.043 0.262 0.134c0.241 0.161 0.578 0.348 0.578 0.316 0-0.037-0.792-0.519-0.851-0.519-0.032 0-0.059 0.027-0.059 0.059z"></path>
<path d="M5.741 23.603c-0.032 0.048 0.209 0.476 0.273 0.476 0.011 0-0.037-0.091-0.112-0.198-0.246-0.364-0.193-0.369 0.401-0.016 0.252 0.144 0.476 0.268 0.508 0.268 0.027 0-0.177-0.134-0.455-0.294-0.546-0.316-0.567-0.321-0.615-0.235z"></path>
<path d="M5.045 23.849c0.016 0.086 0.107 0.262 0.193 0.396 0.177 0.278 0.813 0.91 1.011 1.006l0.134 0.064-0.134-0.091c-0.46-0.316-1.274-1.332-1.156-1.45 0.016-0.016 0.15 0.043 0.3 0.134 0.332 0.209 0.353 0.182 0.032-0.043-0.31-0.209-0.433-0.214-0.38-0.016z"></path>
<path d="M6.993 24.127c0.070 0.064 0.15 0.112 0.182 0.112 0.064 0 0.059 0-0.15-0.128l-0.161-0.091 0.128 0.107z"></path>
<path d="M3.841 24.502c0 0.032 0.021 0.053 0.054 0.043 0.027-0.005 0.235 0.182 0.455 0.417l0.407 0.428-0.38-0.455c-0.359-0.423-0.535-0.567-0.535-0.433z"></path>
<path d="M4.558 24.587c-0.037 0.091 0.214 0.631 0.342 0.738 0.043 0.032 0.005-0.059-0.086-0.203-0.289-0.476-0.278-0.637 0.027-0.38 0.187 0.161 0.744 0.514 0.803 0.514 0.021 0-0.075-0.075-0.225-0.166-0.144-0.096-0.364-0.246-0.482-0.337-0.305-0.246-0.342-0.262-0.38-0.166z"></path>
<path d="M10.375 24.994c-0.011 0.444 0.498 1.819 0.819 2.215 0.048 0.059-0.032-0.134-0.177-0.428-0.294-0.599-0.455-1.070-0.562-1.611-0.059-0.284-0.075-0.326-0.080-0.177z"></path>
<path d="M16.684 26.765c-0.102 0.15-0.401 0.487-0.669 0.755-0.262 0.268-0.433 0.455-0.369 0.423 0.284-0.15 1.327-1.343 1.247-1.423-0.011-0.011-0.107 0.102-0.209 0.246z"></path>
<path d="M10.236 28.542c0.102 0.053 0.305 0.080 0.562 0.075l0.401-0.005-0.455-0.037c-0.252-0.021-0.503-0.053-0.562-0.075-0.059-0.016-0.032 0 0.053 0.043z"></path>
<path d="M14.822 28.579c0.037 0.027 0.193 0.043 0.337 0.043 0.321-0.005 0.268-0.032-0.123-0.064-0.171-0.011-0.257-0.005-0.214 0.021z"></path>
<path d="M15.764 28.611c0.064 0.011 0.171 0.011 0.241 0 0.064-0.011 0.011-0.021-0.123-0.021s-0.187 0.011-0.118 0.021z"></path>
<path d="M17.086 29.377c0.123 0.048 0.086 0.070-0.268 0.161l-0.214 0.053 0.241-0.032c0.235-0.027 0.375-0.096 0.375-0.187 0-0.027-0.053-0.048-0.118-0.043-0.118 0-0.118 0.005-0.016 0.048z"></path>
<path d="M16.807 29.735c0.171 0.011 0.294 0.043 0.284 0.064-0.016 0.021 0.032 0.032 0.102 0.016 0.284-0.053 0.112-0.118-0.278-0.107-0.375 0.011-0.385 0.011-0.107 0.027z"></path>
<path d="M16.882 29.922c0.011 0.027 0.128 0.043 0.262 0.043 0.128 0 0.235 0.021 0.235 0.053 0 0.027 0.027 0.053 0.059 0.053 0.043 0 0.043-0.021 0-0.075-0.064-0.075-0.605-0.144-0.557-0.075z"></path>
<path d="M9.262 30.056c0.080 0.011 0.198 0.011 0.268 0 0.064-0.011 0-0.021-0.15-0.021-0.144 0-0.203 0.011-0.118 0.021z"></path>
<path d="M9.396 30.286c-0.096 0.086-0.144 0.161-0.107 0.161s0.080-0.037 0.096-0.080c0.021-0.043 0.059-0.064 0.096-0.043 0.032 0.016 0.037 0.011 0.016-0.011-0.021-0.027 0.016-0.080 0.080-0.118 0.070-0.037 0.091-0.064 0.059-0.070-0.037 0-0.144 0.070-0.241 0.161z"></path>
<path d="M9.797 30.356c0.016 0.048 0.011 0.102-0.016 0.118-0.032 0.021-0.053 0-0.053-0.037 0-0.043-0.027-0.037-0.091 0.027-0.134 0.134-0.043 0.171 0.139 0.059 0.139-0.091 0.144-0.107 0.070-0.182-0.075-0.070-0.080-0.064-0.048 0.016z"></path>
<path d="M9.952 30.532c-0.064 0.102-0.107 0.182-0.096 0.182 0.037 0 0.262-0.326 0.235-0.348-0.011-0.011-0.070 0.064-0.139 0.166z"></path>
<path d="M10.102 30.634c-0.102 0.075-0.214 0.134-0.257 0.134-0.037 0-0.053 0.027-0.037 0.053 0.037 0.064 0.134 0.016 0.375-0.187 0.209-0.171 0.155-0.171-0.080 0z"></path>
</symbol>
</defs>
</svg>
