<svg aria-hidden="true" style="position: absolute; width: 0; height: 0; overflow: hidden;" version="1.1" xmlns="http://www.w3.org/2000/svg" xmlns:xlink="http://www.w3.org/1999/xlink">
<defs>

<symbol id="icon-user" viewBox="0 0 32 32">

<path d="M14.396 0.074c-5.303 0.767-9.084 3.081-11.848 7.273-3.279 4.972-3.398 11.663-0.331 16.846 0.529 0.886 1.917 2.671 2.129 2.75 0.066 0.026 0.304-0.053 0.529-0.172l0.423-0.212-0.582-0.622c-1.296-1.388-2.605-3.782-3.2-5.845-2.301-8.066 2.552-16.503 10.711-18.645 6.691-1.745 13.871 1.455 17.084 7.63 1.15 2.208 1.666 4.43 1.666 7.048-0.013 3.055-0.886 5.845-2.579 8.357-0.291 0.41-0.516 0.78-0.516 0.807 0 0.040 0.198 0.132 0.423 0.212 0.516 0.185 0.569 0.119 1.64-1.732 2.129-3.663 2.592-8.569 1.23-12.8-0.383-1.164-1.574-3.464-2.301-4.43-2.010-2.671-5.091-4.879-8.145-5.805-1.917-0.582-4.76-0.886-6.334-0.661z"></path>
<path d="M15.838 2.772c-0.264 0.132-0.78 0.582-1.164 0.992l-0.674 0.754-0.344-0.423c-0.688-0.807-1.719-1.031-2.526-0.529-0.238 0.145-0.436 0.278-0.436 0.304 0 0.013 0.238 0.026 0.529 0.026 0.423 0 0.608 0.093 0.965 0.45 0.304 0.317 0.344 0.41 0.159 0.344-0.582-0.238-1.336-0.225-1.534 0.013-0.172 0.212-0.159 0.225 0.066 0.145 0.251-0.106 1.269 0.119 1.269 0.278 0 0.053-0.238 0.106-0.542 0.119-0.727 0.026-1.534 0.569-1.851 1.269-0.304 0.674-0.304 0.965-0.053 1.732 0.185 0.542 0.185 0.648 0 0.992-0.264 0.529-0.278 0.899 0 0.674 0.172-0.145 0.172-0.106 0.053 0.264-0.198 0.542-0.079 1.997 0.225 2.777 0.119 0.344 0.264 1.243 0.317 2.116 0.106 1.521 0.172 1.878 0.463 2.248 0.079 0.106 0.251 0.555 0.383 0.992s0.383 1.058 0.569 1.388c0.291 0.529 0.317 0.688 0.238 1.441-0.053 0.476-0.172 0.979-0.264 1.124-0.093 0.159-0.212 0.595-0.251 0.992-0.053 0.397-0.238 1.137-0.423 1.653-0.172 0.502-0.317 1.071-0.317 1.256 0.013 0.331 0.013 0.331 0.238-0.079 0.304-0.569 0.727-0.86 1.309-0.873 0.542-0.013 0.846 0.291 1.455 1.455 0.37 0.701 0.529 0.82 0.793 0.555 0.093-0.093-0.212-0.661-1.071-1.931l-1.203-1.798-0.013-1.666c-0.013-1.507-0.040-1.732-0.357-2.393-0.185-0.397-0.423-1.031-0.502-1.388-0.093-0.37-0.291-0.793-0.436-0.952-0.198-0.238-0.264-0.529-0.291-1.388-0.026-0.741 0-0.965 0.066-0.701l0.106 0.397 0.106-0.555 0.093-0.555 0.357 0.251c0.661 0.476 2.288 0.674 2.922 0.357 0.41-0.212 0.886-0.912 1.058-1.574 0.132-0.463 0.185-0.503 0.595-0.503s0.463 0.040 0.463 0.357c0 0.542 0.529 1.362 1.058 1.64 0.582 0.317 1.931 0.331 2.896 0.040 0.582-0.172 0.727-0.278 0.886-0.648 0.106-0.251 0.185-0.582 0.185-0.727 0-0.542 0.37-0.278 0.463 0.344 0.040 0.331 0.172 0.899 0.291 1.283l0.212 0.688 0.172-0.397c0.093-0.225 0.172-0.542 0.185-0.714 0-0.278 0.026-0.291 0.212-0.132 0.198 0.159 0.212 0.145 0.132-0.106-0.079-0.264-0.066-0.278 0.251-0.132 0.304 0.145 0.331 0.212 0.251 0.688-0.106 0.688-0.635 2.235-0.899 2.645-0.278 0.423-0.701 0.436-0.767 0.040-0.079-0.569-0.899 1.891-0.899 2.698 0 0.555-0.079 0.846-0.383 1.309-0.582 0.912-2.764 2.883-4.271 3.874-0.714 0.463-1.507 1.243-1.388 1.349 0.026 0.040 0.344-0.013 0.701-0.093 0.555-0.132 0.741-0.278 1.283-0.926 0.635-0.767 0.648-0.78 1.322-0.78 0.767 0 1.798 0.251 2.433 0.569 0.238 0.132 0.45 0.225 0.476 0.225 0.040 0 0.291-0.516 0.555-1.164 0.635-1.441 0.635-1.878 0.013-3.385-0.264-0.648-0.476-1.296-0.476-1.441s0.119-0.608 0.278-1.018c0.238-0.661 0.304-0.741 0.582-0.701 0.569 0.119 1.19-0.979 1.56-2.711 0.079-0.37 0.198-0.688 0.264-0.688s0.079-0.159 0.026-0.37c-0.053-0.198-0.106-0.516-0.132-0.727-0.026-0.198-0.093-0.423-0.132-0.489-0.106-0.172 0.331-1.719 0.476-1.719 0.185 0 0.41-1.084 0.41-1.891-0.013-0.992-0.476-2.010-1.256-2.764l-0.595-0.569 0.251-0.317c0.344-0.423 0.317-0.846-0.093-1.336-0.516-0.595-1.256-0.926-2.962-1.283-2.42-0.516-3.041-0.529-3.782-0.119s-0.833 0.423-0.516 0.079c0.304-0.344 1.296-0.714 1.706-0.635 0.185 0.040 0.304 0.013 0.264-0.040-0.119-0.212-1.296-0.119-1.785 0.145zM16.803 6.104c-0.053 0.542-0.040 0.555 0.159 0.304 0.132-0.172 0.198-0.198 0.212-0.079 0 0.106 0.119 0.040 0.278-0.172 0.145-0.185 0.331-0.344 0.41-0.344 0.093 0 0.013 0.145-0.145 0.317-0.37 0.397-0.291 0.569 0.264 0.582 0.516 0.013 1.137 0.423 2.235 1.494 1.217 1.177 1.494 1.825 1.56 3.517 0.053 1.164 0.026 1.362-0.145 1.362-0.119 0-0.238-0.159-0.291-0.383-0.040-0.212-0.198-0.489-0.331-0.608-0.529-0.489-2.195-0.701-3.385-0.45-1.031 0.225-2.486 0.185-3.226-0.079-0.383-0.145-0.793-0.198-1.124-0.145-0.688 0.093-1.653 0.304-1.957 0.423-0.225 0.079-0.238 0.040-0.159-0.555 0.093-0.727 0.807-2.869 1.098-3.332 0.106-0.159 0.145-0.291 0.079-0.291-0.053 0 0.066-0.185 0.278-0.397 0.383-0.397 0.82-0.569 1.825-0.727 0.397-0.066 0.489-0.132 0.436-0.291-0.066-0.172-0.053-0.185 0.106-0.053 0.198 0.172 1.164 0.159 1.058-0.013-0.040-0.053 0-0.212 0.066-0.331 0.119-0.212 0.132-0.185 0.145 0.106 0 0.198 0.093 0.423 0.198 0.516 0.172 0.145 0.198 0.093 0.198-0.291 0-0.37 0.079-0.635 0.185-0.635 0.013 0 0 0.251-0.026 0.555zM12.228 11.975c-0.066 0.172-0.026 0.198 0.212 0.132 0.648-0.185 2.182-0.251 2.46-0.093 0.595 0.317 0.198 2.103-0.555 2.592-0.502 0.331-2.314 0.225-2.83-0.159-0.317-0.238-0.357-0.357-0.397-1.23-0.026-0.529 0.013-1.018 0.093-1.098 0.066-0.066 0.317-0.172 0.569-0.225 0.238-0.053 0.463-0.106 0.489-0.119s0 0.079-0.040 0.198zM19.765 12.16c0.45 0.172 0.489 0.172 0.397-0.079-0.066-0.159-0.013-0.185 0.225-0.119 0.529 0.159 0.754 0.555 0.754 1.388 0 0.82-0.145 1.058-0.86 1.322-0.555 0.212-2.182 0.225-2.684 0.013-0.807-0.331-1.336-1.785-0.899-2.446 0.212-0.331 0.238-0.331 1.481-0.264 0.688 0.040 1.402 0.119 1.587 0.185zM16.393 12.319c-0.079 0.212-0.238 0.317-0.529 0.344-0.225 0.026-0.41-0.013-0.41-0.093 0-0.066-0.040-0.212-0.079-0.331-0.066-0.172 0.026-0.212 0.529-0.212 0.569 0 0.595 0.013 0.489 0.291z"></path>
<path d="M12.982 12.901c-0.198 0.185-0.278 0.291-0.172 0.238s0.383-0.093 0.635-0.079c0.251 0.026 0.529-0.026 0.621-0.106 0.132-0.106 0.251-0.106 0.45 0 0.159 0.079 0.278 0.093 0.278 0.026 0-0.172-0.621-0.423-1.058-0.423-0.225 0-0.529 0.132-0.754 0.344z"></path>
<path d="M17.491 12.887c-0.132 0.106-0.185 0.198-0.106 0.198 0.066 0 0.212-0.079 0.291-0.159 0.132-0.132 0.198-0.132 0.264-0.013 0.119 0.185 0.701 0.264 0.926 0.132 0.093-0.066 0.159-0.053 0.159 0.026s0.066 0.145 0.159 0.145c0.079 0 0.040-0.119-0.093-0.264-0.291-0.317-1.203-0.357-1.6-0.066z"></path>
<path d="M14.502 16.841c-0.82 0.225-1.243 0.516-1.349 0.952-0.053 0.185-0.066 0.37-0.040 0.397 0.013 0.026 0.331-0.106 0.674-0.278 0.569-0.291 0.78-0.317 1.917-0.291 1.071 0.040 1.375 0.106 1.97 0.397l0.688 0.357v-0.383c0-0.291-0.106-0.45-0.436-0.661-0.582-0.357-2.102-0.714-2.221-0.529-0.066 0.106-0.119 0.106-0.172 0-0.119-0.172-0.238-0.172-1.031 0.040z"></path>
<path d="M14.198 18.256c-0.145 0.066 0.516 0.093 1.481 0.079s1.64-0.066 1.507-0.119c-0.344-0.119-2.658-0.093-2.988 0.040z"></path>
<path d="M14.661 19.023c0 0.066 0.093 0.185 0.198 0.278 0.37 0.304 0.238 0.86-0.331 1.375-0.291 0.264-0.595 0.476-0.674 0.476-0.291 0-0.899-0.767-0.992-1.243-0.106-0.635-0.317-0.383-0.317 0.383 0 0.463 0.079 0.622 0.569 1.084 1.071 1.045 2.46 1.494 3.795 1.217 0.939-0.198 1.481-0.476 2.38-1.243 1.031-0.873 1.203-1.084 0.648-0.754l-0.476 0.291-0.093-0.41c-0.040-0.225-0.079-0.595-0.079-0.82 0-0.489-0.172-0.344-0.383 0.331-0.093 0.264-0.304 0.635-0.489 0.833-0.436 0.476-1.005 0.383-1.6-0.264-0.476-0.502-0.555-0.86-0.238-1.124 0.106-0.093 0.198-0.251 0.198-0.344 0-0.145-0.251-0.185-1.058-0.185-0.582 0-1.058 0.053-1.058 0.119z"></path>
<path d="M22.343 22.329c0.278 0.807 0.066 1.468-1.785 5.435-0.992 2.129-1.785 3.901-1.745 3.927 0.119 0.119 1.626-0.264 2.79-0.714 1.507-0.569 2.645-1.19 3.901-2.129 0.979-0.727 3.041-2.711 3.041-2.936 0-0.053-0.542-0.291-1.217-0.516-1.6-0.542-2.83-1.283-4.086-2.499-0.926-0.886-1.031-0.939-0.899-0.569z"></path>
<path d="M10.694 24.154c-0.41 0.569-1.521 1.19-3.134 1.759s-2.949 1.164-2.949 1.336c0 0.159 1.693 1.56 2.671 2.195 0.833 0.542 2.764 1.534 2.83 1.455 0.026-0.013 0.106-1.098 0.185-2.407 0.119-1.891 0.212-2.605 0.489-3.478 0.185-0.595 0.304-1.124 0.264-1.164s-0.198 0.093-0.357 0.304z"></path>
<path d="M17.345 25.74c-0.251 0.278-0.555 0.635-0.661 0.793-0.119 0.172-0.436 0.344-0.873 0.436-0.383 0.093-0.926 0.304-1.217 0.463l-0.529 0.304-0.45-0.833c-0.767-1.428-1.296-1.798-1.917-1.349-0.238 0.172-0.238 0.198 0.026 0.793 0.145 0.331 0.555 0.912 0.899 1.283 0.529 0.569 0.621 0.741 0.621 1.203 0 0.344-0.106 0.661-0.291 0.886-0.476 0.608-1.071 1.666-0.965 1.759 0.251 0.238 3.729 0.661 3.729 0.45 0-0.026-0.119-0.357-0.264-0.727-0.476-1.203-0.344-1.6 0.912-2.83 0.45-0.436 0.807-0.833 0.807-0.899 0-0.212 1.018-0.741 1.693-0.886 0.383-0.079 0.939-0.264 1.243-0.423 0.648-0.331 0.569-0.41-0.701-0.714-1.309-0.304-1.534-0.264-2.063 0.291z"></path>

</symbol>
</defs>
</svg>
